<svg xmlns="http://www.w3.org/2000/svg" xmlns:xlink="http://www.w3.org/1999/xlink" width="1024" zoomAndPan="magnify" viewBox="0 0 768 431.249996" height="575" preserveAspectRatio="xMidYMid meet" version="1.0"><defs><clipPath id="d767f8f65b"><path d="M 0.667969 0 L 767.332031 0 L 767.332031 430.5 L 0.667969 430.5 Z M 0.667969 0 " clip-rule="nonzero"/></clipPath><clipPath id="f1f7622e42"><path d="M 0.667969 248 L 101 248 L 101 430.5 L 0.667969 430.5 Z M 0.667969 248 " clip-rule="nonzero"/></clipPath><clipPath id="23c70c13b0"><path d="M -13.363281 439.496094 L -106.363281 332.847656 L 7.621094 233.449219 L 100.621094 340.097656 Z M -13.363281 439.496094 " clip-rule="nonzero"/></clipPath><clipPath id="9450cc4c70"><path d="M 220.972656 708.214844 L -106.257812 332.96875 L 398.210938 -106.945312 L 725.4375 268.300781 Z M 220.972656 708.214844 " clip-rule="nonzero"/></clipPath><clipPath id="734af79ca0"><path d="M 0.667969 233 L 101 233 L 101 410 L 0.667969 410 Z M 0.667969 233 " clip-rule="nonzero"/></clipPath><clipPath id="0d88821dfb"><path d="M -13.363281 439.496094 L -106.363281 332.847656 L 7.621094 233.449219 L 100.621094 340.097656 Z M -13.363281 439.496094 " clip-rule="nonzero"/></clipPath><clipPath id="c876857473"><path d="M 220.972656 708.214844 L -106.257812 332.96875 L 398.210938 -106.945312 L 725.4375 268.300781 Z M 220.972656 708.214844 " clip-rule="nonzero"/></clipPath><clipPath id="8fd04e2c99"><path d="M 0.667969 233 L 101 233 L 101 381 L 0.667969 381 Z M 0.667969 233 " clip-rule="nonzero"/></clipPath><clipPath id="f50299f542"><path d="M -13.363281 439.496094 L -106.363281 332.847656 L 7.621094 233.449219 L 100.621094 340.097656 Z M -13.363281 439.496094 " clip-rule="nonzero"/></clipPath><clipPath id="3a32a538e4"><path d="M 220.972656 708.214844 L -106.257812 332.96875 L 398.210938 -106.945312 L 725.4375 268.300781 Z M 220.972656 708.214844 " clip-rule="nonzero"/></clipPath><clipPath id="f9d9678fcf"><path d="M 0.667969 233 L 101 233 L 101 353 L 0.667969 353 Z M 0.667969 233 " clip-rule="nonzero"/></clipPath><clipPath id="8017e8c056"><path d="M -13.363281 439.496094 L -106.363281 332.847656 L 7.621094 233.449219 L 100.621094 340.097656 Z M -13.363281 439.496094 " clip-rule="nonzero"/></clipPath><clipPath id="3191d9e7d3"><path d="M 220.972656 708.214844 L -106.257812 332.96875 L 398.210938 -106.945312 L 725.4375 268.300781 Z M 220.972656 708.214844 " clip-rule="nonzero"/></clipPath><clipPath id="18a2f3488c"><path d="M 32 145 L 161 145 L 161 334 L 32 334 Z M 32 145 " clip-rule="nonzero"/></clipPath><clipPath id="b90c40591a"><path d="M 48.589844 334.953125 L -31.621094 242.976562 L 80.105469 145.542969 L 160.316406 237.523438 Z M 48.589844 334.953125 " clip-rule="nonzero"/></clipPath><clipPath id="2681b26fab"><path d="M 282.921875 603.671875 L -44.308594 228.425781 L 460.160156 -211.488281 L 787.386719 163.757812 Z M 282.921875 603.671875 " clip-rule="nonzero"/></clipPath><clipPath id="f922adf1ce"><path d="M 7 145 L 161 145 L 161 305 L 7 305 Z M 7 145 " clip-rule="nonzero"/></clipPath><clipPath id="5d476610d6"><path d="M 48.589844 334.953125 L -31.621094 242.976562 L 80.105469 145.542969 L 160.316406 237.523438 Z M 48.589844 334.953125 " clip-rule="nonzero"/></clipPath><clipPath id="b4373416a1"><path d="M 282.921875 603.671875 L -44.308594 228.425781 L 460.160156 -211.488281 L 787.386719 163.757812 Z M 282.921875 603.671875 " clip-rule="nonzero"/></clipPath><clipPath id="4527988515"><path d="M 0.667969 145 L 161 145 L 161 277 L 0.667969 277 Z M 0.667969 145 " clip-rule="nonzero"/></clipPath><clipPath id="d3762d791f"><path d="M 48.589844 334.953125 L -31.621094 242.976562 L 80.105469 145.542969 L 160.316406 237.523438 Z M 48.589844 334.953125 " clip-rule="nonzero"/></clipPath><clipPath id="523c28468c"><path d="M 282.921875 603.671875 L -44.308594 228.425781 L 460.160156 -211.488281 L 787.386719 163.757812 Z M 282.921875 603.671875 " clip-rule="nonzero"/></clipPath><clipPath id="9d9cf0a191"><path d="M 0.667969 145 L 161 145 L 161 248 L 0.667969 248 Z M 0.667969 145 " clip-rule="nonzero"/></clipPath><clipPath id="90f59611a2"><path d="M 48.589844 334.953125 L -31.621094 242.976562 L 80.105469 145.542969 L 160.316406 237.523438 Z M 48.589844 334.953125 " clip-rule="nonzero"/></clipPath><clipPath id="907629e213"><path d="M 282.921875 603.671875 L -44.308594 228.425781 L 460.160156 -211.488281 L 787.386719 163.757812 Z M 282.921875 603.671875 " clip-rule="nonzero"/></clipPath><clipPath id="74e63b715c"><path d="M 55 174 L 767.332031 174 L 767.332031 364 L 55 364 Z M 55 174 " clip-rule="nonzero"/></clipPath><clipPath id="bfc6722adc"><path d="M 305.972656 634.164062 L -21.257812 258.917969 L 483.207031 -180.996094 L 810.4375 194.25 Z M 305.972656 634.164062 " clip-rule="nonzero"/></clipPath><clipPath id="a6a7cffab1"><path d="M 305.972656 634.164062 L -21.257812 258.917969 L 483.207031 -180.996094 L 810.4375 194.25 Z M 305.972656 634.164062 " clip-rule="nonzero"/></clipPath><clipPath id="3c18019da6"><path d="M 30 146 L 767.332031 146 L 767.332031 336 L 30 336 Z M 30 146 " clip-rule="nonzero"/></clipPath><clipPath id="ddc8e5d399"><path d="M 305.972656 634.164062 L -21.257812 258.917969 L 483.207031 -180.996094 L 810.4375 194.25 Z M 305.972656 634.164062 " clip-rule="nonzero"/></clipPath><clipPath id="681cdb6acb"><path d="M 305.972656 634.164062 L -21.257812 258.917969 L 483.207031 -180.996094 L 810.4375 194.25 Z M 305.972656 634.164062 " clip-rule="nonzero"/></clipPath><clipPath id="9f5e8fb5eb"><path d="M 5 117 L 759 117 L 759 307 L 5 307 Z M 5 117 " clip-rule="nonzero"/></clipPath><clipPath id="91013037d9"><path d="M 305.972656 634.164062 L -21.257812 258.917969 L 483.207031 -180.996094 L 810.4375 194.25 Z M 305.972656 634.164062 " clip-rule="nonzero"/></clipPath><clipPath id="3e84ff9401"><path d="M 305.972656 634.164062 L -21.257812 258.917969 L 483.207031 -180.996094 L 810.4375 194.25 Z M 305.972656 634.164062 " clip-rule="nonzero"/></clipPath><clipPath id="6d928e28e3"><path d="M 0.667969 89 L 735 89 L 735 279 L 0.667969 279 Z M 0.667969 89 " clip-rule="nonzero"/></clipPath><clipPath id="90a996cef2"><path d="M 305.972656 634.164062 L -21.257812 258.917969 L 483.207031 -180.996094 L 810.4375 194.25 Z M 305.972656 634.164062 " clip-rule="nonzero"/></clipPath><clipPath id="5e535f2bba"><path d="M 305.972656 634.164062 L -21.257812 258.917969 L 483.207031 -180.996094 L 810.4375 194.25 Z M 305.972656 634.164062 " clip-rule="nonzero"/></clipPath><clipPath id="03e46cb652"><path d="M 50 151 L 767.332031 151 L 767.332031 341 L 50 341 Z M 50 151 " clip-rule="nonzero"/></clipPath><clipPath id="fb0da6a59c"><path d="M 301.246094 611.003906 L -25.980469 235.757812 L 478.484375 -204.15625 L 805.714844 171.089844 Z M 301.246094 611.003906 " clip-rule="nonzero"/></clipPath><clipPath id="1866426433"><path d="M 301.246094 611.003906 L -25.980469 235.757812 L 478.484375 -204.15625 L 805.714844 171.089844 Z M 301.246094 611.003906 " clip-rule="nonzero"/></clipPath><clipPath id="4e5458efc9"><path d="M 25 123 L 767.332031 123 L 767.332031 313 L 25 313 Z M 25 123 " clip-rule="nonzero"/></clipPath><clipPath id="5b5786203f"><path d="M 301.246094 611.003906 L -25.980469 235.757812 L 478.484375 -204.15625 L 805.714844 171.089844 Z M 301.246094 611.003906 " clip-rule="nonzero"/></clipPath><clipPath id="9f19d7a63c"><path d="M 301.246094 611.003906 L -25.980469 235.757812 L 478.484375 -204.15625 L 805.714844 171.089844 Z M 301.246094 611.003906 " clip-rule="nonzero"/></clipPath><clipPath id="e9209b55e5"><path d="M 0.667969 94 L 755 94 L 755 284 L 0.667969 284 Z M 0.667969 94 " clip-rule="nonzero"/></clipPath><clipPath id="5929a81329"><path d="M 301.246094 611.003906 L -25.980469 235.757812 L 478.484375 -204.15625 L 805.714844 171.089844 Z M 301.246094 611.003906 " clip-rule="nonzero"/></clipPath><clipPath id="761881986b"><path d="M 301.246094 611.003906 L -25.980469 235.757812 L 478.484375 -204.15625 L 805.714844 171.089844 Z M 301.246094 611.003906 " clip-rule="nonzero"/></clipPath><clipPath id="1f8d171642"><path d="M 0.667969 66 L 730 66 L 730 256 L 0.667969 256 Z M 0.667969 66 " clip-rule="nonzero"/></clipPath><clipPath id="d47497cfbe"><path d="M 301.246094 611.003906 L -25.980469 235.757812 L 478.484375 -204.15625 L 805.714844 171.089844 Z M 301.246094 611.003906 " clip-rule="nonzero"/></clipPath><clipPath id="614afa0005"><path d="M 301.246094 611.003906 L -25.980469 235.757812 L 478.484375 -204.15625 L 805.714844 171.089844 Z M 301.246094 611.003906 " clip-rule="nonzero"/></clipPath><clipPath id="05cfd29c32"><path d="M 0.667969 238 L 103 238 L 103 428 L 0.667969 428 Z M 0.667969 238 " clip-rule="nonzero"/></clipPath><clipPath id="1f0fa3c997"><path d="M -11.464844 428.988281 L -104.46875 322.339844 L 9.515625 222.941406 L 102.519531 329.589844 Z M -11.464844 428.988281 " clip-rule="nonzero"/></clipPath><clipPath id="3f9defede0"><path d="M 222.867188 697.707031 L -104.363281 322.460938 L 400.105469 -117.453125 L 727.332031 257.792969 Z M 222.867188 697.707031 " clip-rule="nonzero"/></clipPath><clipPath id="499f42977a"><path d="M 0.667969 222 L 103 222 L 103 399 L 0.667969 399 Z M 0.667969 222 " clip-rule="nonzero"/></clipPath><clipPath id="877a0adb65"><path d="M -11.464844 428.988281 L -104.46875 322.339844 L 9.515625 222.941406 L 102.519531 329.589844 Z M -11.464844 428.988281 " clip-rule="nonzero"/></clipPath><clipPath id="434c46cbcb"><path d="M 222.867188 697.707031 L -104.363281 322.460938 L 400.105469 -117.453125 L 727.332031 257.792969 Z M 222.867188 697.707031 " clip-rule="nonzero"/></clipPath><clipPath id="5f2bfbe352"><path d="M 0.667969 222 L 103 222 L 103 371 L 0.667969 371 Z M 0.667969 222 " clip-rule="nonzero"/></clipPath><clipPath id="7ddaaee1f7"><path d="M -11.464844 428.988281 L -104.46875 322.339844 L 9.515625 222.941406 L 102.519531 329.589844 Z M -11.464844 428.988281 " clip-rule="nonzero"/></clipPath><clipPath id="02d7ce39d2"><path d="M 222.867188 697.707031 L -104.363281 322.460938 L 400.105469 -117.453125 L 727.332031 257.792969 Z M 222.867188 697.707031 " clip-rule="nonzero"/></clipPath><clipPath id="487a55c877"><path d="M 0.667969 222 L 103 222 L 103 342 L 0.667969 342 Z M 0.667969 222 " clip-rule="nonzero"/></clipPath><clipPath id="fde4baebc8"><path d="M -11.464844 428.988281 L -104.46875 322.339844 L 9.515625 222.941406 L 102.519531 329.589844 Z M -11.464844 428.988281 " clip-rule="nonzero"/></clipPath><clipPath id="eec0224061"><path d="M 222.867188 697.707031 L -104.363281 322.460938 L 400.105469 -117.453125 L 727.332031 257.792969 Z M 222.867188 697.707031 " clip-rule="nonzero"/></clipPath><clipPath id="ea5b8d0a54"><path d="M 0.667969 227 L 94 227 L 94 417 L 0.667969 417 Z M 0.667969 227 " clip-rule="nonzero"/></clipPath><clipPath id="f3af68a093"><path d="M -20.429688 418.359375 L -113.429688 311.710938 L 0.554688 212.3125 L 93.554688 318.960938 Z M -20.429688 418.359375 " clip-rule="nonzero"/></clipPath><clipPath id="9f7ccb6f6a"><path d="M 213.90625 687.082031 L -113.324219 311.835938 L 391.140625 -128.078125 L 718.371094 247.167969 Z M 213.90625 687.082031 " clip-rule="nonzero"/></clipPath><clipPath id="d3efbed11b"><path d="M 0.667969 212 L 94 212 L 94 389 L 0.667969 389 Z M 0.667969 212 " clip-rule="nonzero"/></clipPath><clipPath id="5cbb8a9245"><path d="M -20.429688 418.359375 L -113.429688 311.710938 L 0.554688 212.3125 L 93.554688 318.960938 Z M -20.429688 418.359375 " clip-rule="nonzero"/></clipPath><clipPath id="2df25fc06b"><path d="M 213.90625 687.082031 L -113.324219 311.835938 L 391.140625 -128.078125 L 718.371094 247.167969 Z M 213.90625 687.082031 " clip-rule="nonzero"/></clipPath><clipPath id="095ef1fe41"><path d="M 0.667969 212 L 94 212 L 94 360 L 0.667969 360 Z M 0.667969 212 " clip-rule="nonzero"/></clipPath><clipPath id="a0fc068dd1"><path d="M -20.429688 418.359375 L -113.429688 311.710938 L 0.554688 212.3125 L 93.554688 318.960938 Z M -20.429688 418.359375 " clip-rule="nonzero"/></clipPath><clipPath id="9134366392"><path d="M 213.90625 687.082031 L -113.324219 311.835938 L 391.140625 -128.078125 L 718.371094 247.167969 Z M 213.90625 687.082031 " clip-rule="nonzero"/></clipPath><clipPath id="378f25a9b3"><path d="M 0.667969 212 L 94 212 L 94 332 L 0.667969 332 Z M 0.667969 212 " clip-rule="nonzero"/></clipPath><clipPath id="6791774dc5"><path d="M -20.429688 418.359375 L -113.429688 311.710938 L 0.554688 212.3125 L 93.554688 318.960938 Z M -20.429688 418.359375 " clip-rule="nonzero"/></clipPath><clipPath id="7265df1cfc"><path d="M 213.90625 687.082031 L -113.324219 311.835938 L 391.140625 -128.078125 L 718.371094 247.167969 Z M 213.90625 687.082031 " clip-rule="nonzero"/></clipPath><clipPath id="67bc6083f1"><path d="M 762 3 L 767.332031 3 L 767.332031 193 L 762 193 Z M 762 3 " clip-rule="nonzero"/></clipPath><clipPath id="a910a0e5f9"><path d="M 778.523438 194.003906 L 685.523438 87.355469 L 799.507812 -12.042969 L 892.507812 94.605469 Z M 778.523438 194.003906 " clip-rule="nonzero"/></clipPath><clipPath id="59bcfbe5fe"><path d="M 1012.859375 462.722656 L 685.628906 87.476562 L 1190.097656 -352.4375 L 1517.324219 22.808594 Z M 1012.859375 462.722656 " clip-rule="nonzero"/></clipPath><clipPath id="587a2c0074"><path d="M 737 0 L 767.332031 0 L 767.332031 164 L 737 164 Z M 737 0 " clip-rule="nonzero"/></clipPath><clipPath id="b0b8fe1d43"><path d="M 778.523438 194.003906 L 685.523438 87.355469 L 799.507812 -12.042969 L 892.507812 94.605469 Z M 778.523438 194.003906 " clip-rule="nonzero"/></clipPath><clipPath id="2162232055"><path d="M 1012.859375 462.722656 L 685.628906 87.476562 L 1190.097656 -352.4375 L 1517.324219 22.808594 Z M 1012.859375 462.722656 " clip-rule="nonzero"/></clipPath><clipPath id="8605ce3d1c"><path d="M 712 0 L 767.332031 0 L 767.332031 136 L 712 136 Z M 712 0 " clip-rule="nonzero"/></clipPath><clipPath id="eb49875f6b"><path d="M 778.523438 194.003906 L 685.523438 87.355469 L 799.507812 -12.042969 L 892.507812 94.605469 Z M 778.523438 194.003906 " clip-rule="nonzero"/></clipPath><clipPath id="e4da36100a"><path d="M 1012.859375 462.722656 L 685.628906 87.476562 L 1190.097656 -352.4375 L 1517.324219 22.808594 Z M 1012.859375 462.722656 " clip-rule="nonzero"/></clipPath><clipPath id="7e82210d38"><path d="M 687 0 L 767.332031 0 L 767.332031 107 L 687 107 Z M 687 0 " clip-rule="nonzero"/></clipPath><clipPath id="2ff89813cb"><path d="M 778.523438 194.003906 L 685.523438 87.355469 L 799.507812 -12.042969 L 892.507812 94.605469 Z M 778.523438 194.003906 " clip-rule="nonzero"/></clipPath><clipPath id="dcdf395028"><path d="M 1012.859375 462.722656 L 685.628906 87.476562 L 1190.097656 -352.4375 L 1517.324219 22.808594 Z M 1012.859375 462.722656 " clip-rule="nonzero"/></clipPath><clipPath id="7fd156f574"><path d="M 752 0 L 767.332031 0 L 767.332031 165 L 752 165 Z M 752 0 " clip-rule="nonzero"/></clipPath><clipPath id="115aa9460e"><path d="M 793.574219 194.550781 L 700.574219 87.902344 L 814.558594 -11.496094 L 907.558594 95.152344 Z M 793.574219 194.550781 " clip-rule="nonzero"/></clipPath><clipPath id="bd8ec28da9"><path d="M 1027.910156 463.269531 L 700.679688 88.023438 L 1205.144531 -351.890625 L 1532.375 23.355469 Z M 1027.910156 463.269531 " clip-rule="nonzero"/></clipPath><clipPath id="8c5480edbc"><path d="M 727 0 L 767.332031 0 L 767.332031 136 L 727 136 Z M 727 0 " clip-rule="nonzero"/></clipPath><clipPath id="fe1e30d878"><path d="M 793.574219 194.550781 L 700.574219 87.902344 L 814.558594 -11.496094 L 907.558594 95.152344 Z M 793.574219 194.550781 " clip-rule="nonzero"/></clipPath><clipPath id="2e5a7439d7"><path d="M 1027.910156 463.269531 L 700.679688 88.023438 L 1205.144531 -351.890625 L 1532.375 23.355469 Z M 1027.910156 463.269531 " clip-rule="nonzero"/></clipPath><clipPath id="3280714afa"><path d="M 702 0 L 767.332031 0 L 767.332031 108 L 702 108 Z M 702 0 " clip-rule="nonzero"/></clipPath><clipPath id="d55bd2df54"><path d="M 793.574219 194.550781 L 700.574219 87.902344 L 814.558594 -11.496094 L 907.558594 95.152344 Z M 793.574219 194.550781 " clip-rule="nonzero"/></clipPath><clipPath id="a72e13e47f"><path d="M 1027.910156 463.269531 L 700.679688 88.023438 L 1205.144531 -351.890625 L 1532.375 23.355469 Z M 1027.910156 463.269531 " clip-rule="nonzero"/></clipPath></defs><g clip-path="url(#d767f8f65b)"><path fill="#ffffff" d="M 0.667969 0 L 767.332031 0 L 767.332031 430.5 L 0.667969 430.5 Z M 0.667969 0 " fill-opacity="1" fill-rule="nonzero"/><path fill="#ffffff" d="M 0.667969 0 L 767.332031 0 L 767.332031 430.5 L 0.667969 430.5 Z M 0.667969 0 " fill-opacity="1" fill-rule="nonzero"/></g><g clip-path="url(#f1f7622e42)"><g clip-path="url(#23c70c13b0)"><g clip-path="url(#9450cc4c70)"><path fill="#058789" d="M -29.855469 417.011719 L 79.355469 321.773438 C 102.367188 301.707031 137.441406 304.109375 157.511719 327.125 L 165.476562 336.261719 C 205.625 382.296875 275.769531 387.101562 321.792969 346.964844 L 330.871094 339.050781 C 353.933594 318.9375 388.957031 321.386719 409.027344 344.402344 L 416.949219 353.484375 C 457.09375 399.519531 527.238281 404.324219 573.261719 364.191406 L 705.433594 248.933594 L 723.640625 269.808594 L 591.46875 385.070312 C 533.964844 435.214844 446.277344 429.257812 396.074219 371.6875 L 388.15625 362.605469 C 378.097656 351.070312 360.609375 349.871094 349.078125 359.925781 L 340 367.84375 C 282.445312 418.035156 194.765625 411.980469 144.605469 354.460938 L 136.640625 345.328125 C 126.628906 333.84375 109.09375 332.59375 97.5625 342.648438 L -11.652344 437.886719 Z M -29.855469 417.011719 " fill-opacity="1" fill-rule="nonzero"/></g></g></g><g clip-path="url(#734af79ca0)"><g clip-path="url(#0d88821dfb)"><g clip-path="url(#c876857473)"><path fill="#cdaeff" d="M -54.707031 388.511719 L 62.175781 286.585938 C 96.664062 256.507812 149.277344 260.0625 179.410156 294.613281 L 187.328125 303.695312 C 217.460938 338.25 270.023438 341.851562 304.566406 311.726562 L 313.644531 303.808594 C 348.1875 273.6875 400.792969 277.339844 430.878906 311.839844 L 438.84375 320.972656 C 468.929688 355.476562 521.535156 359.128906 556.082031 329.003906 L 680.582031 220.433594 L 698.789062 241.3125 L 574.285156 349.882812 C 528.261719 390.015625 458.117188 385.210938 417.972656 339.175781 L 410.007812 330.042969 C 389.933594 307.023438 354.863281 304.621094 331.851562 324.6875 L 322.773438 332.605469 C 276.695312 372.785156 206.601562 367.933594 166.457031 321.898438 L 158.539062 312.816406 C 138.464844 289.796875 103.394531 287.394531 80.382812 307.460938 L -36.503906 409.390625 Z M -54.707031 388.511719 " fill-opacity="1" fill-rule="nonzero"/></g></g></g><g clip-path="url(#8fd04e2c99)"><g clip-path="url(#f50299f542)"><g clip-path="url(#3a32a538e4)"><path fill="#d54b1a" d="M -79.605469 359.960938 L 44.894531 251.390625 C 90.917969 211.257812 161.066406 216.0625 201.210938 262.097656 L 209.175781 271.230469 C 229.246094 294.25 264.320312 296.652344 287.332031 276.585938 L 296.410156 268.667969 C 342.484375 228.488281 412.578125 233.339844 452.722656 279.375 L 460.644531 288.457031 C 480.714844 311.472656 515.789062 313.878906 538.800781 293.808594 L 655.683594 191.882812 L 673.890625 212.761719 L 557.007812 314.6875 C 522.515625 344.765625 469.902344 341.210938 439.773438 306.65625 L 431.851562 297.574219 C 401.722656 263.023438 349.160156 259.421875 314.617188 289.546875 L 305.539062 297.464844 C 270.996094 327.585938 218.386719 323.933594 188.300781 289.433594 L 180.335938 280.300781 C 150.25 245.796875 97.644531 242.144531 63.101562 272.269531 L -61.398438 380.839844 Z M -79.605469 359.960938 " fill-opacity="1" fill-rule="nonzero"/></g></g></g><g clip-path="url(#f9d9678fcf)"><g clip-path="url(#8017e8c056)"><g clip-path="url(#3191d9e7d3)"><path fill="#e3a72f" d="M -104.457031 331.460938 L 27.714844 216.203125 C 85.21875 166.058594 172.902344 172.015625 223.105469 229.585938 L 231.027344 238.667969 C 241.085938 250.203125 258.574219 251.402344 270.105469 241.347656 L 279.183594 233.429688 C 336.738281 183.238281 424.417969 189.292969 474.574219 246.8125 L 482.542969 255.945312 C 492.554688 267.429688 510.085938 268.679688 521.621094 258.621094 L 630.832031 163.386719 L 649.039062 184.261719 L 539.828125 279.5 C 516.816406 299.566406 481.742188 297.164062 461.667969 274.148438 L 453.703125 265.011719 C 413.558594 218.976562 343.414062 214.171875 297.390625 254.304688 L 288.3125 262.222656 C 265.246094 282.335938 230.226562 279.886719 210.15625 256.871094 L 202.234375 247.789062 C 162.089844 201.753906 91.945312 196.949219 45.921875 237.082031 L -86.25 352.339844 Z M -104.457031 331.460938 " fill-opacity="1" fill-rule="nonzero"/></g></g></g><g clip-path="url(#18a2f3488c)"><g clip-path="url(#b90c40591a)"><g clip-path="url(#2681b26fab)"><path fill="#058789" d="M 32.09375 312.464844 L 141.304688 217.226562 C 164.316406 197.160156 199.390625 199.5625 219.460938 222.582031 L 227.429688 231.714844 C 267.574219 277.75 337.71875 282.554688 383.742188 242.421875 L 392.820312 234.503906 C 415.882812 214.394531 450.90625 216.839844 470.976562 239.859375 L 478.898438 248.941406 C 519.042969 294.976562 589.1875 299.78125 635.210938 259.648438 L 767.382812 144.386719 L 785.589844 165.265625 L 653.417969 280.527344 C 595.914062 330.667969 508.230469 324.710938 458.023438 267.140625 L 450.105469 258.058594 C 440.046875 246.523438 422.558594 245.328125 411.027344 255.382812 L 401.949219 263.300781 C 344.394531 313.488281 256.714844 307.433594 206.554688 249.917969 L 198.589844 240.78125 C 188.578125 229.300781 171.042969 228.050781 159.511719 238.105469 L 50.300781 333.34375 Z M 32.09375 312.464844 " fill-opacity="1" fill-rule="nonzero"/></g></g></g><g clip-path="url(#f922adf1ce)"><g clip-path="url(#5d476610d6)"><g clip-path="url(#b4373416a1)"><path fill="#cdaeff" d="M 7.242188 283.96875 L 124.125 182.039062 C 158.617188 151.964844 211.226562 155.519531 241.359375 190.070312 L 249.28125 199.152344 C 279.410156 233.707031 331.972656 237.304688 366.515625 207.183594 L 375.59375 199.265625 C 410.136719 169.144531 462.742188 172.792969 492.828125 207.296875 L 500.792969 216.429688 C 530.882812 250.929688 583.488281 254.582031 618.03125 224.460938 L 742.53125 115.890625 L 760.738281 136.769531 L 636.234375 245.335938 C 590.214844 285.472656 520.066406 280.667969 479.921875 234.628906 L 471.957031 225.496094 C 451.886719 202.480469 416.8125 200.078125 393.800781 220.144531 L 384.722656 228.0625 C 338.644531 268.242188 268.550781 263.390625 228.40625 217.355469 L 220.488281 208.273438 C 200.414062 185.253906 165.34375 182.851562 142.332031 202.917969 L 25.445312 304.84375 Z M 7.242188 283.96875 " fill-opacity="1" fill-rule="nonzero"/></g></g></g><g clip-path="url(#4527988515)"><g clip-path="url(#d3762d791f)"><g clip-path="url(#523c28468c)"><path fill="#d54b1a" d="M -17.65625 255.417969 L 106.84375 146.847656 C 152.867188 106.714844 223.015625 111.519531 263.160156 157.554688 L 271.125 166.6875 C 291.195312 189.707031 326.269531 192.109375 349.28125 172.042969 L 358.359375 164.125 C 404.433594 123.945312 474.527344 128.796875 514.675781 174.832031 L 522.59375 183.914062 C 542.667969 206.929688 577.738281 209.332031 600.75 189.265625 L 717.632812 87.339844 L 735.839844 108.21875 L 618.957031 210.144531 C 584.464844 240.222656 531.851562 236.667969 501.722656 202.113281 L 493.800781 193.03125 C 463.671875 158.480469 411.109375 154.878906 376.566406 185 L 367.488281 192.917969 C 332.945312 223.042969 280.339844 219.390625 250.25 184.890625 L 242.285156 175.753906 C 212.199219 141.253906 159.59375 137.601562 125.050781 167.726562 L 0.550781 276.296875 Z M -17.65625 255.417969 " fill-opacity="1" fill-rule="nonzero"/></g></g></g><g clip-path="url(#9d9cf0a191)"><g clip-path="url(#90f59611a2)"><g clip-path="url(#907629e213)"><path fill="#e3a72f" d="M -42.507812 226.917969 L 89.664062 111.660156 C 147.167969 61.515625 234.851562 67.472656 285.054688 125.042969 L 292.976562 134.125 C 303.035156 145.660156 320.523438 146.859375 332.054688 136.800781 L 341.132812 128.882812 C 398.6875 78.695312 486.367188 84.75 536.527344 142.269531 L 544.492188 151.402344 C 554.503906 162.886719 572.039062 164.136719 583.570312 154.078125 L 692.78125 58.839844 L 710.988281 79.71875 L 601.777344 174.957031 C 578.765625 195.023438 543.691406 192.621094 523.617188 169.601562 L 515.652344 160.46875 C 475.507812 114.433594 405.363281 109.628906 359.339844 149.761719 L 350.261719 157.679688 C 327.195312 177.792969 292.175781 175.34375 272.105469 152.324219 L 264.183594 143.242188 C 224.039062 97.207031 153.894531 92.402344 107.871094 132.535156 L -24.300781 247.796875 Z M -42.507812 226.917969 " fill-opacity="1" fill-rule="nonzero"/></g></g></g><g clip-path="url(#74e63b715c)"><g clip-path="url(#bfc6722adc)"><g clip-path="url(#a6a7cffab1)"><path fill="#058789" d="M 55.140625 342.957031 L 164.355469 247.71875 C 187.367188 227.652344 222.4375 230.054688 242.511719 253.074219 L 250.476562 262.207031 C 290.621094 308.242188 360.769531 313.046875 406.789062 272.914062 L 415.871094 264.996094 C 438.933594 244.882812 473.953125 247.332031 494.027344 270.351562 L 501.945312 279.433594 C 542.089844 325.46875 612.238281 330.273438 658.261719 290.140625 L 790.433594 174.878906 L 808.640625 195.757812 L 676.464844 311.015625 C 618.964844 361.160156 531.277344 355.203125 481.074219 297.632812 L 473.15625 288.550781 C 463.09375 277.015625 445.609375 275.820312 434.078125 285.875 L 424.996094 293.792969 C 367.441406 343.980469 279.761719 337.925781 229.605469 280.410156 L 221.640625 271.273438 C 211.625 259.792969 194.09375 258.542969 182.5625 268.597656 L 73.347656 363.835938 Z M 55.140625 342.957031 " fill-opacity="1" fill-rule="nonzero"/></g></g></g><g clip-path="url(#3c18019da6)"><g clip-path="url(#ddc8e5d399)"><g clip-path="url(#681cdb6acb)"><path fill="#cdaeff" d="M 30.289062 314.460938 L 147.171875 212.53125 C 181.664062 182.453125 234.277344 186.011719 264.410156 220.5625 L 272.328125 229.644531 C 302.460938 264.199219 355.019531 267.796875 389.5625 237.675781 L 398.644531 229.757812 C 433.1875 199.632812 485.792969 203.285156 515.878906 237.789062 L 523.84375 246.921875 C 553.929688 281.421875 606.535156 285.074219 641.078125 254.953125 L 765.582031 146.382812 L 783.785156 167.257812 L 659.285156 275.828125 C 613.261719 315.964844 543.117188 311.160156 502.972656 265.121094 L 495.007812 255.988281 C 474.933594 232.96875 439.859375 230.570312 416.851562 250.636719 L 407.769531 258.554688 C 361.695312 298.730469 291.601562 293.882812 251.457031 247.847656 L 243.535156 238.765625 C 223.464844 215.746094 188.390625 213.34375 165.378906 233.410156 L 48.496094 335.335938 Z M 30.289062 314.460938 " fill-opacity="1" fill-rule="nonzero"/></g></g></g><g clip-path="url(#9f5e8fb5eb)"><g clip-path="url(#91013037d9)"><g clip-path="url(#3e84ff9401)"><path fill="#d54b1a" d="M 5.394531 285.910156 L 129.894531 177.339844 C 175.917969 137.203125 246.0625 142.011719 286.207031 188.046875 L 294.171875 197.179688 C 314.246094 220.199219 349.320312 222.601562 372.332031 202.535156 L 381.410156 194.617188 C 427.484375 154.4375 497.578125 159.285156 537.722656 205.324219 L 545.644531 214.40625 C 565.714844 237.421875 600.789062 239.824219 623.800781 219.757812 L 740.683594 117.832031 L 758.890625 138.710938 L 642.007812 240.636719 C 607.515625 270.714844 554.902344 267.160156 524.769531 232.605469 L 516.851562 223.523438 C 486.71875 188.972656 434.160156 185.371094 399.617188 215.492188 L 390.535156 223.410156 C 355.992188 253.535156 303.386719 249.882812 273.300781 215.382812 L 265.335938 206.246094 C 235.25 171.746094 182.644531 168.09375 148.101562 198.21875 L 23.597656 306.785156 Z M 5.394531 285.910156 " fill-opacity="1" fill-rule="nonzero"/></g></g></g><g clip-path="url(#6d928e28e3)"><g clip-path="url(#90a996cef2)"><g clip-path="url(#5e535f2bba)"><path fill="#e3a72f" d="M -19.457031 257.410156 L 112.714844 142.152344 C 170.214844 92.007812 257.902344 97.964844 308.105469 155.535156 L 316.027344 164.617188 C 326.085938 176.152344 343.570312 177.351562 355.105469 167.292969 L 364.183594 159.375 C 421.738281 109.1875 509.417969 115.242188 559.574219 172.761719 L 567.539062 181.894531 C 577.554688 193.375 595.085938 194.625 606.617188 184.570312 L 715.832031 89.332031 L 734.039062 110.210938 L 624.824219 205.449219 C 601.8125 225.515625 566.742188 223.113281 546.667969 200.09375 L 538.703125 190.960938 C 498.558594 144.925781 428.414062 140.121094 382.390625 180.253906 L 373.308594 188.171875 C 350.246094 208.285156 315.226562 205.835938 295.152344 182.816406 L 287.234375 173.734375 C 247.089844 127.699219 176.941406 122.894531 130.921875 163.027344 L -1.253906 278.289062 Z M -19.457031 257.410156 " fill-opacity="1" fill-rule="nonzero"/></g></g></g><g clip-path="url(#03e46cb652)"><g clip-path="url(#fb0da6a59c)"><g clip-path="url(#1866426433)"><path fill="#058789" d="M 50.417969 319.796875 L 159.632812 224.558594 C 182.644531 204.492188 217.714844 206.894531 237.789062 229.910156 L 245.753906 239.046875 C 285.898438 285.082031 356.042969 289.886719 402.066406 249.753906 L 411.144531 241.835938 C 434.210938 221.722656 469.230469 224.171875 489.300781 247.1875 L 497.222656 256.269531 C 537.367188 302.304688 607.515625 307.109375 653.535156 266.976562 L 785.707031 151.71875 L 803.914062 172.597656 L 671.742188 287.855469 C 614.242188 338 526.554688 332.042969 476.351562 274.472656 L 468.429688 265.390625 C 458.371094 253.855469 440.882812 252.65625 429.351562 262.714844 L 420.273438 270.628906 C 362.71875 320.820312 275.039062 314.765625 224.882812 257.246094 L 216.914062 248.113281 C 206.902344 236.628906 189.371094 235.378906 177.835938 245.4375 L 68.625 340.675781 Z M 50.417969 319.796875 " fill-opacity="1" fill-rule="nonzero"/></g></g></g><g clip-path="url(#4e5458efc9)"><g clip-path="url(#5b5786203f)"><g clip-path="url(#9f19d7a63c)"><path fill="#cdaeff" d="M 25.566406 291.296875 L 142.449219 189.371094 C 176.941406 159.292969 229.554688 162.847656 259.683594 197.402344 L 267.605469 206.484375 C 297.734375 241.035156 350.296875 244.636719 384.839844 214.511719 L 393.917969 206.59375 C 428.460938 176.472656 481.070312 180.125 511.15625 214.625 L 519.121094 223.757812 C 549.207031 258.261719 601.8125 261.914062 636.355469 231.789062 L 760.855469 123.21875 L 779.0625 144.097656 L 654.5625 252.667969 C 608.539062 292.800781 538.394531 287.996094 498.246094 241.960938 L 490.28125 232.828125 C 470.210938 209.808594 435.136719 207.40625 412.125 227.472656 L 403.046875 235.390625 C 356.972656 275.570312 286.878906 270.71875 246.734375 224.683594 L 238.8125 215.601562 C 218.742188 192.585938 183.667969 190.183594 160.65625 210.25 L 43.773438 312.175781 Z M 25.566406 291.296875 " fill-opacity="1" fill-rule="nonzero"/></g></g></g><g clip-path="url(#e9209b55e5)"><g clip-path="url(#5929a81329)"><g clip-path="url(#761881986b)"><path fill="#d54b1a" d="M 0.667969 262.746094 L 125.171875 154.175781 C 171.195312 114.042969 241.339844 118.847656 281.484375 164.882812 L 289.449219 174.019531 C 309.523438 197.035156 344.59375 199.4375 367.605469 179.371094 L 376.6875 171.453125 C 422.761719 131.273438 492.855469 136.125 533 182.160156 L 540.917969 191.242188 C 560.992188 214.261719 596.066406 216.664062 619.074219 196.597656 L 735.960938 94.667969 L 754.164062 115.546875 L 637.28125 217.472656 C 602.792969 247.550781 550.179688 243.996094 520.046875 209.445312 L 512.128906 200.363281 C 481.996094 165.808594 429.433594 162.207031 394.890625 192.332031 L 385.8125 200.25 C 351.269531 230.371094 298.664062 226.71875 268.578125 192.21875 L 260.613281 183.085938 C 230.527344 148.585938 177.921875 144.933594 143.375 175.054688 L 18.875 283.625 Z M 0.667969 262.746094 " fill-opacity="1" fill-rule="nonzero"/></g></g></g><g clip-path="url(#1f8d171642)"><g clip-path="url(#d47497cfbe)"><g clip-path="url(#614afa0005)"><path fill="#e3a72f" d="M -24.183594 234.25 L 107.988281 118.988281 C 165.492188 68.84375 253.179688 74.800781 303.382812 132.371094 L 311.300781 141.453125 C 321.359375 152.988281 338.847656 154.1875 350.378906 144.132812 L 359.457031 136.214844 C 417.011719 86.023438 504.691406 92.078125 554.851562 149.597656 L 562.816406 158.730469 C 572.828125 170.214844 590.363281 171.464844 601.894531 161.410156 L 711.109375 66.171875 L 729.3125 87.046875 L 620.101562 182.285156 C 597.089844 202.355469 562.015625 199.953125 541.945312 176.933594 L 533.980469 167.800781 C 493.832031 121.761719 423.6875 116.957031 377.664062 157.09375 L 368.585938 165.007812 C 345.523438 185.121094 310.503906 182.675781 290.429688 159.65625 L 282.507812 150.574219 C 242.363281 104.539062 172.21875 99.734375 126.195312 139.867188 L -5.976562 255.125 Z M -24.183594 234.25 " fill-opacity="1" fill-rule="nonzero"/></g></g></g><g clip-path="url(#05cfd29c32)"><g clip-path="url(#1f0fa3c997)"><g clip-path="url(#3f9defede0)"><path fill="#058789" d="M -27.960938 406.503906 L 81.25 311.265625 C 104.261719 291.195312 139.335938 293.597656 159.40625 316.617188 L 167.375 325.75 C 207.519531 371.789062 277.664062 376.59375 323.6875 336.457031 L 332.765625 328.539062 C 355.828125 308.429688 390.851562 310.875 410.921875 333.894531 L 418.84375 342.976562 C 458.988281 389.011719 529.132812 393.816406 575.15625 353.683594 L 707.328125 238.425781 L 725.535156 259.300781 L 593.363281 374.5625 C 535.859375 424.707031 448.175781 418.746094 397.96875 361.179688 L 390.050781 352.09375 C 379.992188 340.558594 362.503906 339.363281 350.972656 349.417969 L 341.894531 357.335938 C 284.339844 407.527344 196.660156 401.472656 146.5 343.953125 L 138.535156 334.820312 C 128.523438 323.335938 110.988281 322.085938 99.457031 332.140625 L -9.753906 427.378906 Z M -27.960938 406.503906 " fill-opacity="1" fill-rule="nonzero"/></g></g></g><g clip-path="url(#499f42977a)"><g clip-path="url(#877a0adb65)"><g clip-path="url(#434c46cbcb)"><path fill="#cdaeff" d="M -52.8125 378.003906 L 64.070312 276.078125 C 98.5625 246 151.171875 249.554688 181.304688 284.105469 L 189.226562 293.1875 C 219.355469 327.742188 271.917969 331.339844 306.460938 301.21875 L 315.539062 293.300781 C 350.082031 263.179688 402.6875 266.832031 432.773438 301.332031 L 440.738281 310.464844 C 470.824219 344.964844 523.433594 348.617188 557.976562 318.496094 L 682.476562 209.925781 L 700.683594 230.804688 L 576.179688 339.375 C 530.160156 379.507812 460.011719 374.703125 419.867188 328.667969 L 411.902344 319.53125 C 391.832031 296.515625 356.757812 294.113281 333.746094 314.179688 L 324.667969 322.097656 C 278.589844 362.277344 208.496094 357.425781 168.351562 311.390625 L 160.433594 302.308594 C 140.359375 279.289062 105.289062 276.886719 82.277344 296.953125 L -34.609375 398.882812 Z M -52.8125 378.003906 " fill-opacity="1" fill-rule="nonzero"/></g></g></g><g clip-path="url(#5f2bfbe352)"><g clip-path="url(#7ddaaee1f7)"><g clip-path="url(#02d7ce39d2)"><path fill="#d54b1a" d="M -77.710938 349.453125 L 46.789062 240.882812 C 92.8125 200.75 162.960938 205.554688 203.105469 251.589844 L 211.070312 260.722656 C 231.140625 283.742188 266.214844 286.144531 289.226562 266.078125 L 298.304688 258.160156 C 344.378906 217.980469 414.472656 222.832031 454.621094 268.867188 L 462.539062 277.949219 C 482.613281 300.964844 517.683594 303.367188 540.695312 283.300781 L 657.578125 181.375 L 675.785156 202.253906 L 558.902344 304.179688 C 524.410156 334.257812 471.796875 330.703125 441.667969 296.148438 L 433.746094 287.066406 C 403.617188 252.515625 351.054688 248.914062 316.511719 279.039062 L 307.433594 286.953125 C 272.890625 317.078125 220.285156 313.425781 190.195312 278.925781 L 182.230469 269.789062 C 152.144531 235.289062 99.539062 231.636719 64.996094 261.761719 L -59.503906 370.332031 Z M -77.710938 349.453125 " fill-opacity="1" fill-rule="nonzero"/></g></g></g><g clip-path="url(#487a55c877)"><g clip-path="url(#fde4baebc8)"><g clip-path="url(#eec0224061)"><path fill="#e3a72f" d="M -102.5625 320.953125 L 29.609375 205.695312 C 87.113281 155.550781 174.796875 161.507812 225 219.078125 L 232.921875 228.160156 C 242.980469 239.695312 260.46875 240.894531 272 230.835938 L 281.078125 222.921875 C 338.632812 172.730469 426.3125 178.785156 476.472656 236.304688 L 484.4375 245.4375 C 494.449219 256.921875 511.984375 258.171875 523.515625 248.113281 L 632.726562 152.875 L 650.933594 173.753906 L 541.722656 268.992188 C 518.710938 289.058594 483.636719 286.65625 463.5625 263.640625 L 455.597656 254.503906 C 415.453125 208.46875 345.308594 203.664062 299.285156 243.796875 L 290.207031 251.714844 C 267.140625 271.828125 232.121094 269.378906 212.050781 246.363281 L 204.128906 237.28125 C 163.984375 191.242188 93.839844 186.4375 47.816406 226.574219 L -84.355469 341.832031 Z M -102.5625 320.953125 " fill-opacity="1" fill-rule="nonzero"/></g></g></g><g clip-path="url(#ea5b8d0a54)"><g clip-path="url(#f3af68a093)"><g clip-path="url(#9f7ccb6f6a)"><path fill="#058789" d="M -36.925781 395.875 L 72.289062 300.636719 C 95.300781 280.570312 130.371094 282.972656 150.445312 305.988281 L 158.410156 315.125 C 198.554688 361.160156 268.699219 365.964844 314.722656 325.832031 L 323.804688 317.914062 C 346.867188 297.800781 381.886719 300.25 401.960938 323.265625 L 409.878906 332.347656 C 450.023438 378.382812 520.171875 383.1875 566.195312 343.054688 L 698.367188 227.796875 L 716.574219 248.675781 L 584.398438 363.933594 C 526.898438 414.078125 439.210938 408.121094 389.007812 350.550781 L 381.089844 341.46875 C 371.027344 329.933594 353.542969 328.734375 342.007812 338.789062 L 332.929688 346.707031 C 275.375 396.898438 187.695312 390.84375 137.539062 333.324219 L 129.574219 324.191406 C 119.558594 312.707031 102.027344 311.457031 90.496094 321.515625 L -18.71875 416.75 Z M -36.925781 395.875 " fill-opacity="1" fill-rule="nonzero"/></g></g></g><g clip-path="url(#d3efbed11b)"><g clip-path="url(#5cbb8a9245)"><g clip-path="url(#2df25fc06b)"><path fill="#cdaeff" d="M -61.777344 367.375 L 55.105469 265.449219 C 89.597656 235.371094 142.210938 238.925781 172.34375 273.480469 L 180.261719 282.5625 C 210.394531 317.113281 262.953125 320.714844 297.496094 290.589844 L 306.578125 282.671875 C 341.121094 252.550781 393.726562 256.203125 423.8125 290.703125 L 431.777344 299.835938 C 461.863281 334.339844 514.46875 337.992188 549.011719 307.867188 L 673.515625 199.296875 L 691.71875 220.175781 L 567.21875 328.746094 C 521.195312 368.878906 451.050781 364.074219 410.90625 318.039062 L 402.941406 308.90625 C 382.867188 285.886719 347.792969 283.484375 324.785156 303.550781 L 315.703125 311.46875 C 269.628906 351.648438 199.535156 346.796875 159.390625 300.761719 L 151.46875 291.679688 C 131.398438 268.664062 96.324219 266.257812 73.3125 286.328125 L -43.570312 388.253906 Z M -61.777344 367.375 " fill-opacity="1" fill-rule="nonzero"/></g></g></g><g clip-path="url(#095ef1fe41)"><g clip-path="url(#a0fc068dd1)"><g clip-path="url(#9134366392)"><path fill="#d54b1a" d="M -86.671875 338.824219 L 37.828125 230.253906 C 83.851562 190.121094 153.996094 194.925781 194.140625 240.960938 L 202.105469 250.09375 C 222.179688 273.113281 257.253906 275.515625 280.261719 255.449219 L 289.34375 247.53125 C 335.417969 207.351562 405.511719 212.203125 445.65625 258.238281 L 453.578125 267.320312 C 473.648438 290.339844 508.722656 292.742188 531.734375 272.675781 L 648.617188 170.746094 L 666.824219 191.625 L 549.941406 293.550781 C 515.449219 323.628906 462.835938 320.074219 432.703125 285.523438 L 424.785156 276.4375 C 394.652344 241.886719 342.09375 238.285156 307.550781 268.410156 L 298.46875 276.328125 C 263.925781 306.449219 211.320312 302.796875 181.234375 268.296875 L 173.269531 259.164062 C 143.183594 224.660156 90.578125 221.007812 56.035156 251.132812 L -68.46875 359.703125 Z M -86.671875 338.824219 " fill-opacity="1" fill-rule="nonzero"/></g></g></g><g clip-path="url(#378f25a9b3)"><g clip-path="url(#6791774dc5)"><g clip-path="url(#7265df1cfc)"><path fill="#e3a72f" d="M -111.527344 310.328125 L 20.648438 195.066406 C 78.148438 144.921875 165.835938 150.878906 216.039062 208.449219 L 223.957031 217.53125 C 234.019531 229.066406 251.503906 230.265625 263.039062 220.210938 L 272.117188 212.292969 C 329.671875 162.101562 417.351562 168.15625 467.507812 225.675781 L 475.472656 234.808594 C 485.488281 246.292969 503.019531 247.542969 514.550781 237.488281 L 623.765625 142.25 L 641.972656 163.125 L 532.757812 258.363281 C 509.746094 278.429688 474.675781 276.027344 454.601562 253.011719 L 446.636719 243.875 C 406.492188 197.839844 336.347656 193.035156 290.324219 233.171875 L 281.242188 241.085938 C 258.179688 261.199219 223.160156 258.75 203.085938 235.734375 L 195.167969 226.652344 C 155.023438 180.617188 84.875 175.8125 38.851562 215.945312 L -93.320312 331.203125 Z M -111.527344 310.328125 " fill-opacity="1" fill-rule="nonzero"/></g></g></g><g clip-path="url(#67bc6083f1)"><g clip-path="url(#a910a0e5f9)"><g clip-path="url(#59bcfbe5fe)"><path fill="#058789" d="M 762.03125 171.515625 L 871.242188 76.277344 C 894.253906 56.210938 929.328125 58.613281 949.398438 81.632812 L 957.363281 90.765625 C 997.511719 136.800781 1067.65625 141.605469 1113.679688 101.472656 L 1122.757812 93.554688 C 1145.820312 73.441406 1180.839844 75.890625 1200.914062 98.910156 L 1208.835938 107.992188 C 1248.980469 154.027344 1319.125 158.832031 1365.148438 118.699219 L 1497.320312 3.4375 L 1515.527344 24.316406 L 1383.355469 139.578125 C 1325.851562 189.71875 1238.164062 183.761719 1187.960938 126.191406 L 1180.042969 117.109375 C 1169.984375 105.574219 1152.496094 104.378906 1140.964844 114.433594 L 1131.882812 122.351562 C 1074.328125 172.539062 986.652344 166.484375 936.492188 108.96875 L 928.527344 99.832031 C 918.515625 88.351562 900.980469 87.101562 889.449219 97.15625 L 780.234375 192.394531 Z M 762.03125 171.515625 " fill-opacity="1" fill-rule="nonzero"/></g></g></g><g clip-path="url(#587a2c0074)"><g clip-path="url(#b0b8fe1d43)"><g clip-path="url(#2162232055)"><path fill="#cdaeff" d="M 737.175781 143.019531 L 854.0625 41.089844 C 888.550781 11.015625 941.164062 14.570312 971.296875 49.121094 L 979.214844 58.203125 C 1009.347656 92.757812 1061.910156 96.355469 1096.453125 66.234375 L 1105.53125 58.316406 C 1140.074219 28.195312 1192.679688 31.84375 1222.765625 66.347656 L 1230.730469 75.480469 C 1260.816406 109.980469 1313.421875 113.632812 1347.964844 83.511719 L 1472.46875 -25.058594 L 1490.675781 -4.183594 L 1366.171875 104.386719 C 1320.148438 144.523438 1250.003906 139.71875 1209.859375 93.679688 L 1201.894531 84.546875 C 1181.820312 61.53125 1146.75 59.128906 1123.738281 79.195312 L 1114.65625 87.113281 C 1068.582031 127.289062 998.488281 122.441406 958.34375 76.40625 L 950.425781 67.324219 C 930.351562 44.304688 895.277344 41.902344 872.265625 61.96875 L 755.382812 163.894531 Z M 737.175781 143.019531 " fill-opacity="1" fill-rule="nonzero"/></g></g></g><g clip-path="url(#8605ce3d1c)"><g clip-path="url(#eb49875f6b)"><g clip-path="url(#e4da36100a)"><path fill="#d54b1a" d="M 712.28125 114.46875 L 836.78125 5.898438 C 882.804688 -34.234375 952.949219 -29.429688 993.09375 16.605469 L 1001.0625 25.738281 C 1021.132812 48.757812 1056.207031 51.160156 1079.21875 31.09375 L 1088.296875 23.175781 C 1134.371094 -17.003906 1204.464844 -12.15625 1244.609375 33.882812 L 1252.53125 42.964844 C 1272.601562 65.980469 1307.675781 68.382812 1330.6875 48.316406 L 1447.570312 -53.609375 L 1465.777344 -32.730469 L 1348.894531 69.195312 C 1314.402344 99.273438 1261.789062 95.71875 1231.660156 61.164062 L 1223.738281 52.082031 C 1193.605469 17.53125 1141.046875 13.929688 1106.503906 44.050781 L 1097.421875 51.96875 C 1062.882812 82.09375 1010.273438 78.441406 980.1875 43.941406 L 972.222656 34.804688 C 942.136719 0.304688 889.53125 -3.347656 854.988281 26.777344 L 730.488281 135.347656 Z M 712.28125 114.46875 " fill-opacity="1" fill-rule="nonzero"/></g></g></g><g clip-path="url(#7e82210d38)"><g clip-path="url(#2ff89813cb)"><g clip-path="url(#dcdf395028)"><path fill="#e3a72f" d="M 687.429688 85.96875 L 819.601562 -29.289062 C 877.101562 -79.433594 964.789062 -73.476562 1014.992188 -15.90625 L 1022.914062 -6.824219 C 1032.972656 4.710938 1050.460938 5.910156 1061.992188 -4.148438 L 1071.070312 -12.066406 C 1128.625 -62.253906 1216.304688 -56.199219 1266.460938 1.320312 L 1274.425781 10.453125 C 1284.441406 21.933594 1301.972656 23.1875 1313.507812 13.128906 L 1422.71875 -82.109375 L 1440.925781 -61.230469 L 1331.710938 34.007812 C 1308.699219 54.074219 1273.628906 51.671875 1253.554688 28.652344 L 1245.589844 19.519531 C 1205.445312 -26.515625 1135.300781 -31.320312 1089.277344 8.8125 L 1080.199219 16.730469 C 1057.132812 36.84375 1022.113281 34.394531 1002.039062 11.375 L 994.121094 2.292969 C 953.976562 -43.742188 883.828125 -48.546875 837.808594 -8.414062 L 705.636719 106.847656 Z M 687.429688 85.96875 " fill-opacity="1" fill-rule="nonzero"/></g></g></g><g clip-path="url(#7fd156f574)"><g clip-path="url(#115aa9460e)"><g clip-path="url(#bd8ec28da9)"><path fill="#cdaeff" d="M 752.226562 143.566406 L 869.109375 41.640625 C 903.601562 11.5625 956.214844 15.117188 986.347656 49.667969 L 994.265625 58.75 C 1024.398438 93.304688 1076.957031 96.90625 1111.5 66.78125 L 1120.582031 58.863281 C 1155.125 28.742188 1207.730469 32.394531 1237.816406 66.894531 L 1245.78125 76.027344 C 1275.867188 110.527344 1328.472656 114.179688 1363.015625 84.058594 L 1487.519531 -24.511719 L 1505.722656 -3.632812 L 1381.222656 104.9375 C 1335.199219 145.070312 1265.054688 140.265625 1224.910156 94.230469 L 1216.945312 85.09375 C 1196.871094 62.078125 1161.796875 59.675781 1138.789062 79.742188 L 1129.707031 87.660156 C 1083.632812 127.839844 1013.539062 122.988281 973.394531 76.953125 L 965.472656 67.871094 C 945.402344 44.851562 910.328125 42.449219 887.316406 62.515625 L 770.433594 164.445312 Z M 752.226562 143.566406 " fill-opacity="1" fill-rule="nonzero"/></g></g></g><g clip-path="url(#8c5480edbc)"><g clip-path="url(#fe1e30d878)"><g clip-path="url(#2e5a7439d7)"><path fill="#d54b1a" d="M 727.332031 115.015625 L 851.832031 6.445312 C 897.855469 -33.6875 968 -28.882812 1008.144531 17.152344 L 1016.109375 26.285156 C 1036.183594 49.304688 1071.257812 51.707031 1094.265625 31.640625 L 1103.347656 23.722656 C 1149.421875 -16.457031 1219.515625 -11.605469 1259.660156 34.429688 L 1267.582031 43.511719 C 1287.652344 66.527344 1322.726562 68.929688 1345.738281 48.863281 L 1462.621094 -53.0625 L 1480.828125 -32.183594 L 1363.945312 69.742188 C 1329.453125 99.820312 1276.839844 96.265625 1246.707031 61.710938 L 1238.789062 52.628906 C 1208.65625 18.078125 1156.097656 14.476562 1121.554688 44.601562 L 1112.472656 52.519531 C 1077.929688 82.640625 1025.324219 78.988281 995.238281 44.488281 L 987.273438 35.351562 C 957.1875 0.851562 904.582031 -2.800781 870.039062 27.324219 L 745.535156 135.894531 Z M 727.332031 115.015625 " fill-opacity="1" fill-rule="nonzero"/></g></g></g><g clip-path="url(#3280714afa)"><g clip-path="url(#d55bd2df54)"><g clip-path="url(#a72e13e47f)"><path fill="#e3a72f" d="M 702.476562 86.515625 L 834.652344 -28.742188 C 892.152344 -78.886719 979.839844 -72.929688 1030.042969 -15.359375 L 1037.960938 -6.277344 C 1048.023438 5.257812 1065.507812 6.457031 1077.042969 -3.601562 L 1086.121094 -11.515625 C 1143.675781 -61.707031 1231.355469 -55.652344 1281.511719 1.867188 L 1289.476562 11 C 1299.492188 22.484375 1317.023438 23.734375 1328.554688 13.675781 L 1437.769531 -81.5625 L 1455.976562 -60.683594 L 1346.761719 34.554688 C 1323.75 54.621094 1288.679688 52.21875 1268.605469 29.203125 L 1260.640625 20.066406 C 1220.496094 -25.96875 1150.351562 -30.773438 1104.328125 9.359375 L 1095.246094 17.277344 C 1072.183594 37.390625 1037.164062 34.941406 1017.089844 11.925781 L 1009.171875 2.84375 C 969.027344 -43.195312 898.878906 -48 852.855469 -7.863281 L 720.683594 107.394531 Z M 702.476562 86.515625 " fill-opacity="1" fill-rule="nonzero"/></g></g></g></svg>