<svg xmlns="http://www.w3.org/2000/svg" xmlns:xlink="http://www.w3.org/1999/xlink" width="100%" zoomAndPan="magnify" viewBox="0 0 1440 449.999984" height="auto" preserveAspectRatio="xMidYMid meet" version="1.0"><defs><clipPath id="d181b81f04"><path d="M 0 0 L 1440 0 L 1440 447 L 0 447 Z M 0 0 " clip-rule="nonzero"/></clipPath><clipPath id="9dffd8f56d"><path d="M -161.058594 317.738281 L 459.492188 -752.0625 L 1690.183594 -38.183594 L 1069.632812 1031.613281 Z M -161.058594 317.738281 " clip-rule="nonzero"/></clipPath><clipPath id="fccb75c703"><path d="M -161.058594 317.738281 L 459.492188 -752.0625 L 1690.183594 -38.183594 L 1069.632812 1031.613281 Z M -161.058594 317.738281 " clip-rule="nonzero"/></clipPath></defs><rect x="-144" width="1728" fill="#ffffff" y="-44.999998" height="539.99998" fill-opacity="1"/><rect x="-144" width="1728" fill="#ffffff" y="-44.999998" height="539.99998" fill-opacity="1"/><g clip-path="url(#d181b81f04)"><g clip-path="url(#9dffd8f56d)"><g clip-path="url(#fccb75c703)"><path fill="#eaa22d" d="M -120.074219 339.132812 L -81.128906 359.355469 L -42.183594 379.570312 L -3.234375 399.785156 C 4.75 384.609375 13.765625 370.074219 23.820312 356.183594 C 33.871094 342.289062 44.855469 329.179688 56.773438 316.847656 C 81.453125 291.449219 108.898438 269.507812 139.105469 251.027344 C 169.808594 232.289062 202.253906 217.316406 236.433594 206.109375 C 253.488281 200.546875 270.804688 195.984375 288.386719 192.410156 L 291.660156 191.734375 C 292.753906 191.511719 293.84375 191.269531 294.96875 191.089844 L 301.648438 189.925781 L 305 189.328125 C 306.117188 189.125 307.238281 188.976562 308.363281 188.800781 L 315.097656 187.769531 C 317.335938 187.394531 319.601562 187.132812 321.863281 186.839844 L 328.632812 185.964844 C 330.890625 185.683594 333.167969 185.484375 335.433594 185.238281 C 337.699219 184.988281 339.972656 184.738281 342.242188 184.527344 C 379.144531 181.265625 416.011719 181.585938 452.847656 185.492188 C 490.371094 189.515625 527.285156 196.671875 563.59375 206.964844 C 600.375 217.421875 636.148438 230.601562 670.921875 246.503906 L 677.421875 249.554688 C 679.597656 250.574219 681.761719 251.554688 683.960938 252.628906 L 697.054688 259.015625 L 710.21875 265.722656 C 712.410156 266.820312 714.644531 268.015625 716.847656 269.183594 L 723.460938 272.675781 C 741.15625 282.097656 759.054688 292.097656 777.277344 302.453125 C 795.503906 312.808594 814.136719 323.542969 833.242188 334.28125 C 838.023438 336.96875 842.769531 339.660156 847.664062 342.34375 L 854.960938 346.371094 C 857.394531 347.710938 859.800781 349.0625 862.296875 350.386719 L 877.152344 358.390625 L 892.296875 366.296875 C 894.796875 367.621094 897.382812 368.910156 899.960938 370.203125 L 907.695312 374.078125 L 911.558594 376.019531 L 913.488281 376.984375 L 915.460938 377.929688 L 923.351562 381.707031 L 931.246094 385.472656 C 933.894531 386.722656 936.617188 387.917969 939.300781 389.136719 L 947.371094 392.78125 L 951.40625 394.597656 L 955.570312 396.382812 C 978.003906 406.0625 1000.882812 414.535156 1024.210938 421.800781 C 1036 425.484375 1048.011719 428.789062 1060.183594 431.773438 C 1072.351562 434.757812 1084.726562 437.40625 1097.328125 439.558594 C 1122.5 443.871094 1148.445312 446.613281 1175.097656 446.820312 C 1188.40625 446.945312 1201.855469 446.503906 1215.414062 445.339844 C 1229.117188 444.160156 1242.722656 442.269531 1256.226562 439.660156 C 1283.921875 434.390625 1310.632812 425.988281 1336.359375 414.453125 C 1361.625 403.070312 1385.390625 389.132812 1407.652344 372.632812 C 1429.089844 356.75 1448.929688 339.074219 1467.171875 319.609375 C 1484.824219 300.765625 1500.953125 280.699219 1515.558594 259.410156 C 1522.773438 248.929688 1529.589844 238.261719 1536.007812 227.398438 L 1538.414062 223.328125 L 1540.78125 219.242188 C 1542.363281 216.519531 1543.898438 213.773438 1545.390625 211.011719 C 1548.480469 205.472656 1551.222656 199.992188 1554.058594 194.53125 C 1565.253906 172.585938 1575.023438 150.367188 1583.6875 128.199219 C 1592.351562 106.03125 1599.933594 83.871094 1606.769531 61.945312 C 1620.433594 18.074219 1631.199219 -24.921875 1641.589844 -66.34375 L 1599.007812 -77.039062 L 1556.4375 -87.699219 L 1513.871094 -98.359375 L 1471.296875 -109.015625 C 1460.957031 -67.695312 1450.886719 -27.910156 1439.160156 9.683594 C 1427.433594 47.273438 1414.070312 82.613281 1397.675781 114.710938 C 1395.605469 118.679688 1393.582031 122.785156 1391.457031 126.558594 C 1390.433594 128.488281 1389.347656 130.371094 1388.261719 132.285156 L 1386.617188 135.117188 L 1384.949219 137.929688 C 1380.503906 145.433594 1375.839844 152.742188 1370.964844 159.828125 C 1361.402344 173.789062 1350.84375 186.949219 1339.285156 199.3125 C 1328.300781 211.066406 1316.347656 221.742188 1303.429688 231.339844 C 1291.3125 240.347656 1278.375 247.960938 1264.617188 254.183594 C 1251.242188 260.183594 1237.351562 264.539062 1222.949219 267.25 C 1215.496094 268.691406 1207.984375 269.738281 1200.421875 270.390625 C 1192.699219 271.066406 1184.835938 271.363281 1176.832031 271.28125 C 1160.816406 271.175781 1144.195312 269.460938 1127.347656 266.585938 C 1118.914062 265.152344 1110.414062 263.308594 1101.882812 261.242188 C 1093.351562 259.171875 1084.789062 256.804688 1076.222656 254.125 C 1058.789062 248.675781 1041.691406 242.328125 1024.929688 235.085938 L 1021.746094 233.722656 L 1018.496094 232.253906 L 1011.984375 229.3125 C 1009.816406 228.320312 1007.648438 227.378906 1005.476562 226.359375 L 998.941406 223.230469 L 992.410156 220.109375 L 990.773438 219.328125 L 989.132812 218.503906 L 985.851562 216.851562 L 979.28125 213.558594 C 977.09375 212.46875 974.90625 211.382812 972.699219 210.210938 L 959.484375 203.308594 L 946.175781 196.140625 C 943.976562 194.972656 941.71875 193.707031 939.484375 192.476562 L 932.777344 188.773438 C 928.324219 186.335938 923.789062 183.761719 919.277344 181.230469 C 901.199219 171.066406 882.859375 160.511719 864.015625 149.792969 C 845.171875 139.078125 825.824219 128.261719 805.871094 117.636719 L 798.355469 113.664062 C 795.851562 112.34375 793.355469 111.011719 790.78125 109.71875 L 775.445312 101.902344 L 759.792969 94.261719 C 757.203125 92.976562 754.515625 91.75 751.882812 90.523438 L 743.894531 86.804688 C 700.941406 67.160156 656.746094 50.882812 611.3125 37.976562 C 565.351562 24.957031 518.621094 15.917969 471.121094 10.851562 C 422.855469 5.753906 374.554688 5.363281 326.210938 9.683594 C 323.175781 9.953125 320.144531 10.300781 317.113281 10.609375 C 314.085938 10.921875 311.046875 11.230469 308.015625 11.605469 L 298.925781 12.765625 C 295.890625 13.167969 292.859375 13.527344 289.832031 14.019531 L 280.761719 15.410156 C 279.25 15.648438 277.738281 15.855469 276.222656 16.125 L 271.6875 16.953125 L 262.621094 18.535156 C 261.113281 18.785156 259.589844 19.105469 258.074219 19.410156 L 253.527344 20.339844 C 235.324219 24.019531 217.3125 28.492188 199.5 33.75 C 181.6875 39.011719 164.140625 45.039062 146.855469 51.832031 C 129.570312 58.628906 112.613281 66.167969 95.988281 74.449219 C 79.363281 82.730469 63.132812 91.71875 47.292969 101.421875 C 25.910156 114.515625 5.429688 128.898438 -14.140625 144.574219 C -33.714844 160.246094 -52.226562 177.085938 -69.675781 195.09375 C -104.707031 231.507812 -135.207031 273.179688 -159.039062 318.933594 Z M -120.074219 339.132812 " fill-opacity="1" fill-rule="nonzero"/><path fill="#d54b1a" d="M -81.128906 359.355469 L -42.183594 379.570312 L -3.234375 399.785156 C 4.75 384.609375 13.765625 370.074219 23.820312 356.183594 C 33.871094 342.289062 44.855469 329.179688 56.773438 316.847656 C 81.453125 291.449219 108.898438 269.507812 139.105469 251.027344 C 169.808594 232.289062 202.253906 217.316406 236.433594 206.109375 C 253.488281 200.546875 270.804688 195.984375 288.386719 192.410156 L 291.660156 191.734375 C 292.753906 191.511719 293.84375 191.269531 294.96875 191.089844 L 301.648438 189.925781 L 305 189.328125 C 306.117188 189.125 307.238281 188.976562 308.363281 188.800781 L 315.097656 187.769531 C 317.335938 187.394531 319.601562 187.132812 321.863281 186.839844 L 328.632812 185.964844 C 330.890625 185.683594 333.167969 185.484375 335.433594 185.238281 C 337.699219 184.988281 339.972656 184.738281 342.242188 184.527344 C 379.144531 181.265625 416.011719 181.585938 452.847656 185.492188 C 490.371094 189.515625 527.285156 196.671875 563.59375 206.964844 C 600.375 217.421875 636.148438 230.601562 670.921875 246.503906 L 677.421875 249.554688 C 679.597656 250.574219 681.761719 251.554688 683.960938 252.628906 L 697.054688 259.015625 L 710.21875 265.722656 C 712.410156 266.820312 714.644531 268.015625 716.847656 269.183594 L 723.460938 272.675781 C 741.15625 282.097656 759.054688 292.097656 777.277344 302.453125 C 795.503906 312.808594 814.136719 323.542969 833.242188 334.28125 C 838.023438 336.96875 842.769531 339.660156 847.664062 342.34375 L 854.960938 346.371094 C 857.394531 347.710938 859.800781 349.0625 862.296875 350.386719 L 877.152344 358.390625 L 892.296875 366.296875 C 894.796875 367.621094 897.382812 368.910156 899.960938 370.203125 L 907.695312 374.078125 L 911.558594 376.019531 L 913.488281 376.984375 L 915.460938 377.929688 L 923.351562 381.707031 L 931.246094 385.472656 C 933.894531 386.722656 936.617188 387.917969 939.300781 389.136719 L 947.371094 392.78125 L 951.40625 394.597656 L 955.570312 396.382812 C 978.003906 406.0625 1000.882812 414.535156 1024.210938 421.800781 C 1036 425.484375 1048.011719 428.789062 1060.183594 431.773438 C 1072.351562 434.757812 1084.726562 437.40625 1097.328125 439.558594 C 1122.5 443.871094 1148.445312 446.613281 1175.097656 446.820312 C 1188.40625 446.945312 1201.855469 446.503906 1215.414062 445.339844 C 1229.117188 444.160156 1242.722656 442.269531 1256.226562 439.660156 C 1283.921875 434.390625 1310.632812 425.988281 1336.359375 414.453125 C 1361.625 403.070312 1385.390625 389.132812 1407.652344 372.632812 C 1429.089844 356.75 1448.929688 339.074219 1467.171875 319.609375 C 1484.824219 300.765625 1500.953125 280.699219 1515.558594 259.410156 C 1522.773438 248.929688 1529.589844 238.261719 1536.007812 227.398438 L 1538.414062 223.328125 L 1540.78125 219.242188 C 1542.363281 216.519531 1543.898438 213.773438 1545.390625 211.011719 C 1548.480469 205.472656 1551.222656 199.992188 1554.058594 194.53125 C 1565.253906 172.585938 1575.023438 150.367188 1583.6875 128.199219 C 1592.351562 106.03125 1599.933594 83.871094 1606.769531 61.945312 C 1620.433594 18.074219 1631.199219 -24.921875 1641.589844 -66.34375 L 1599.007812 -77.039062 L 1556.4375 -87.699219 L 1513.871094 -98.359375 C 1503.519531 -57.007812 1493.285156 -16.421875 1481.058594 22.742188 C 1468.832031 61.902344 1454.667969 99.589844 1436.765625 134.660156 C 1434.5 139.011719 1432.296875 143.449219 1429.941406 147.664062 C 1428.792969 149.804688 1427.59375 151.910156 1426.390625 154.019531 L 1424.566406 157.167969 L 1422.742188 160.308594 C 1417.804688 168.644531 1412.601562 176.789062 1407.136719 184.734375 C 1396.316406 200.527344 1384.363281 215.417969 1371.285156 229.398438 C 1358.480469 243.082031 1344.554688 255.503906 1329.503906 266.671875 C 1314.84375 277.558594 1299.1875 286.753906 1282.542969 294.265625 C 1274.367188 297.929688 1266.003906 301.105469 1257.460938 303.800781 C 1248.851562 306.488281 1240.121094 308.683594 1231.265625 310.378906 C 1222.296875 312.109375 1213.261719 313.367188 1204.160156 314.144531 C 1195 314.917969 1185.738281 315.253906 1176.386719 315.15625 C 1157.734375 315.035156 1138.765625 313.054688 1119.828125 309.816406 C 1110.363281 308.207031 1100.894531 306.15625 1091.449219 303.859375 C 1082.007812 301.5625 1072.578125 298.96875 1063.207031 296.03125 C 1044.304688 290.132812 1025.761719 283.253906 1007.585938 275.394531 C 989.191406 267.390625 970.84375 258.613281 952.570312 249.242188 L 938.875 242.089844 L 925.160156 234.703125 C 920.597656 232.246094 916.023438 229.679688 911.457031 227.164062 C 906.890625 224.652344 902.304688 222.066406 897.726562 219.496094 C 879.390625 209.183594 860.980469 198.589844 842.289062 187.957031 C 823.597656 177.324219 804.617188 166.722656 785.226562 156.398438 L 777.933594 152.542969 C 775.5 151.261719 773.078125 149.964844 770.597656 148.71875 L 755.804688 141.183594 L 740.789062 133.863281 C 738.300781 132.628906 735.742188 131.460938 733.207031 130.277344 L 725.589844 126.730469 C 684.679688 108.023438 642.589844 92.527344 599.316406 80.238281 C 555.765625 67.902344 511.484375 59.332031 466.476562 54.527344 C 421.085938 49.726562 375.65625 49.355469 330.191406 53.410156 C 327.34375 53.667969 324.503906 53.992188 321.660156 54.28125 C 318.816406 54.566406 315.972656 54.851562 313.132812 55.203125 L 304.621094 56.296875 C 301.785156 56.667969 298.945312 57.007812 296.117188 57.46875 L 287.625 58.765625 C 286.214844 58.992188 284.796875 59.191406 283.386719 59.4375 L 279.15625 60.1875 L 270.6875 61.691406 C 269.28125 61.933594 267.871094 62.21875 266.453125 62.511719 L 262.21875 63.375 C 239.625 67.964844 217.367188 73.832031 195.449219 80.984375 C 151.480469 95.398438 109.75 114.667969 70.261719 138.792969 C 50.464844 150.914062 31.503906 164.230469 13.382812 178.738281 C -4.738281 193.25 -21.878906 208.835938 -38.039062 225.507812 C -70.351562 259.113281 -98.289062 297.339844 -120.074219 339.132812 Z M -81.128906 359.355469 " fill-opacity="1" fill-rule="nonzero"/><path fill="#cdaeff" d="M -42.179688 379.566406 L -3.230469 399.78125 C 4.753906 384.605469 13.769531 370.070312 23.820312 356.175781 C 33.875 342.285156 44.859375 329.171875 56.777344 316.84375 C 81.457031 291.441406 108.898438 269.503906 139.109375 251.023438 C 169.8125 232.28125 202.253906 217.308594 236.4375 206.105469 C 253.492188 200.542969 270.808594 195.976562 288.390625 192.40625 L 291.664062 191.726562 C 292.757812 191.503906 293.84375 191.265625 294.972656 191.085938 L 301.652344 189.917969 L 305.003906 189.320312 C 306.121094 189.121094 307.242188 188.972656 308.367188 188.796875 L 315.097656 187.761719 C 317.339844 187.390625 319.605469 187.128906 321.863281 186.832031 L 328.636719 185.960938 C 330.894531 185.679688 333.167969 185.476562 335.4375 185.230469 C 337.703125 184.984375 339.972656 184.730469 342.246094 184.523438 C 379.144531 181.257812 416.011719 181.578125 452.847656 185.484375 C 490.375 189.511719 527.289062 196.667969 563.597656 206.960938 C 600.375 217.417969 636.152344 230.597656 670.921875 246.5 L 677.425781 249.550781 C 679.601562 250.566406 681.765625 251.550781 683.964844 252.625 L 697.054688 259.007812 L 710.21875 265.714844 C 712.414062 266.816406 714.648438 268.011719 716.851562 269.179688 L 723.464844 272.671875 C 741.160156 282.09375 759.058594 292.09375 777.28125 302.449219 C 795.507812 312.804688 814.136719 323.539062 833.242188 334.277344 C 838.027344 336.964844 842.773438 339.652344 847.664062 342.339844 L 854.964844 346.363281 C 857.398438 347.703125 859.800781 349.054688 862.300781 350.382812 L 877.152344 358.386719 L 892.300781 366.292969 C 894.800781 367.613281 897.386719 368.90625 899.960938 370.199219 L 907.699219 374.074219 L 911.5625 376.011719 L 913.492188 376.980469 L 915.464844 377.921875 L 923.355469 381.699219 L 931.25 385.464844 C 933.898438 386.714844 936.617188 387.910156 939.300781 389.128906 L 947.375 392.773438 L 951.410156 394.589844 L 955.570312 396.378906 C 978.007812 406.058594 1000.886719 414.53125 1024.214844 421.796875 C 1036 425.480469 1048.015625 428.78125 1060.1875 431.765625 C 1072.355469 434.75 1084.726562 437.398438 1097.328125 439.554688 C 1122.5 443.867188 1148.449219 446.605469 1175.101562 446.816406 C 1188.410156 446.941406 1201.855469 446.496094 1215.417969 445.335938 C 1229.121094 444.15625 1242.722656 442.261719 1256.226562 439.652344 C 1283.925781 434.382812 1310.636719 425.980469 1336.363281 414.445312 C 1361.628906 403.066406 1385.390625 389.125 1407.65625 372.628906 C 1429.09375 356.746094 1448.933594 339.070312 1467.175781 319.601562 C 1484.828125 300.761719 1500.957031 280.695312 1515.5625 259.40625 C 1522.773438 248.925781 1529.589844 238.253906 1536.011719 227.390625 L 1538.417969 223.320312 L 1540.785156 219.238281 C 1542.367188 216.511719 1543.902344 213.765625 1545.394531 211.003906 C 1548.484375 205.46875 1551.226562 199.988281 1554.0625 194.527344 C 1565.257812 172.582031 1575.027344 150.363281 1583.691406 128.195312 C 1592.351562 106.023438 1599.9375 83.863281 1606.773438 61.9375 C 1620.4375 18.066406 1631.203125 -24.929688 1641.59375 -66.347656 L 1599.007812 -77.039062 L 1556.4375 -87.699219 C 1546.074219 -46.328125 1535.664062 -4.933594 1522.960938 35.792969 C 1510.257812 76.519531 1495.253906 116.59375 1475.851562 154.625 C 1466.230469 173.695312 1455.371094 192.03125 1443.265625 209.628906 C 1431.183594 227.253906 1417.84375 243.867188 1403.242188 259.46875 C 1388.621094 275.078125 1372.71875 289.253906 1355.539062 301.992188 C 1338.347656 314.746094 1319.992188 325.527344 1300.480469 334.335938 C 1280.929688 343.101562 1260.628906 349.480469 1239.582031 353.476562 C 1229.101562 355.503906 1218.546875 356.972656 1207.910156 357.886719 C 1197.285156 358.777344 1186.632812 359.167969 1175.953125 359.054688 C 1154.613281 358.917969 1133.347656 356.660156 1112.3125 353.097656 C 1101.792969 351.316406 1091.371094 349.050781 1081.011719 346.535156 C 1070.648438 344.015625 1060.363281 341.171875 1050.175781 338.007812 C 1029.800781 331.648438 1009.816406 324.238281 990.21875 315.773438 C 970.65625 307.304688 951.417969 298.046875 932.460938 288.285156 C 913.5 278.527344 894.820312 268.222656 876.222656 257.789062 C 857.625 247.355469 839.152344 236.695312 820.609375 226.15625 C 802.066406 215.617188 783.453125 205.207031 764.628906 195.1875 L 757.558594 191.453125 C 755.203125 190.203125 752.847656 188.953125 750.464844 187.757812 L 736.214844 180.492188 L 721.835938 173.484375 C 719.453125 172.296875 717.027344 171.191406 714.605469 170.0625 L 707.355469 166.691406 C 668.492188 148.917969 628.507812 134.195312 587.398438 122.515625 C 546.277344 110.84375 504.464844 102.726562 461.960938 98.167969 C 419.414062 93.664062 376.832031 93.308594 334.214844 97.101562 C 312.953125 99.050781 291.859375 102.144531 270.933594 106.371094 C 250.011719 110.621094 229.398438 116.058594 209.101562 122.675781 C 168.394531 136.035156 129.757812 153.882812 93.199219 176.226562 C 74.988281 187.371094 57.546875 199.613281 40.875 212.953125 C 24.203125 226.292969 8.433594 240.625 -6.433594 255.949219 C -35.980469 286.730469 -61.402344 321.523438 -81.128906 359.355469 Z M -42.179688 379.566406 " fill-opacity="1" fill-rule="nonzero"/><path fill="#078789" d="M 1599.007812 -77.039062 L 1641.574219 -66.378906 C 1631.191406 -24.957031 1620.425781 18.039062 1606.757812 61.90625 C 1599.90625 83.851562 1592.34375 105.976562 1583.671875 128.160156 C 1575 150.347656 1565.234375 172.558594 1554.042969 194.492188 C 1551.191406 199.980469 1548.46875 205.4375 1545.378906 210.972656 C 1543.894531 213.714844 1542.332031 216.472656 1540.765625 219.207031 L 1538.398438 223.289062 L 1535.996094 227.359375 C 1529.570312 238.210938 1522.753906 248.882812 1515.542969 259.375 C 1500.9375 280.664062 1484.808594 300.730469 1467.15625 319.570312 C 1448.914062 339.039062 1429.074219 356.714844 1407.640625 372.597656 C 1385.375 389.09375 1361.609375 403.035156 1336.34375 414.414062 C 1310.617188 425.949219 1283.90625 434.351562 1256.210938 439.621094 C 1242.707031 442.230469 1229.101562 444.125 1215.398438 445.304688 C 1201.851562 446.445312 1188.390625 446.914062 1175.082031 446.785156 C 1148.429688 446.574219 1122.484375 443.835938 1097.3125 439.523438 C 1084.710938 437.367188 1072.359375 434.703125 1060.167969 431.734375 C 1047.972656 428.765625 1035.976562 425.445312 1024.195312 421.765625 C 1000.871094 414.496094 977.988281 406.023438 955.554688 396.347656 L 951.394531 394.558594 L 947.355469 392.742188 L 939.285156 389.097656 C 936.601562 387.878906 933.882812 386.683594 931.230469 385.433594 L 923.335938 381.667969 L 915.449219 377.890625 L 913.476562 376.949219 L 911.546875 375.980469 L 899.945312 370.167969 C 897.367188 368.875 894.785156 367.582031 892.28125 366.261719 L 877.136719 358.355469 L 862.285156 350.351562 C 859.785156 349.023438 857.363281 347.664062 854.945312 346.332031 L 847.648438 342.308594 C 842.734375 339.609375 838.007812 336.933594 833.226562 334.246094 C 814.121094 323.507812 795.496094 312.785156 777.265625 302.417969 C 759.03125 292.050781 741.140625 282.058594 723.445312 272.640625 L 716.832031 269.148438 C 714.628906 267.980469 712.433594 266.804688 710.203125 265.683594 L 697.039062 258.976562 L 683.945312 252.59375 C 681.757812 251.503906 679.589844 250.519531 677.40625 249.519531 L 670.90625 246.46875 C 636.132812 230.566406 600.359375 217.386719 563.582031 206.929688 C 527.273438 196.636719 490.355469 189.480469 452.832031 185.453125 C 416 181.550781 379.136719 181.230469 342.238281 184.496094 C 339.960938 184.703125 337.703125 184.976562 335.429688 185.207031 C 333.15625 185.4375 330.859375 185.636719 328.628906 185.933594 L 321.859375 186.808594 C 319.597656 187.105469 317.332031 187.363281 315.09375 187.738281 L 308.359375 188.769531 C 307.234375 188.945312 306.113281 189.09375 304.996094 189.296875 L 301.644531 189.894531 L 294.964844 191.058594 C 293.839844 191.242188 292.75 191.480469 291.65625 191.703125 L 288.382812 192.382812 C 270.800781 195.953125 253.484375 200.515625 236.429688 206.078125 C 202.25 217.285156 169.808594 232.257812 139.101562 250.996094 C 108.894531 269.476562 81.449219 291.417969 56.769531 316.816406 C 44.851562 329.148438 33.867188 342.257812 23.816406 356.152344 C 13.761719 370.042969 4.746094 384.578125 -3.238281 399.753906 L -42.179688 379.566406 C -33.222656 362.519531 -23.105469 346.191406 -11.824219 330.585938 C -0.542969 314.980469 11.789062 300.253906 25.167969 286.40625 C 52.429688 258.324219 82.753906 234.070312 116.140625 213.644531 C 141.308594 198.238281 167.621094 185.136719 195.082031 174.34375 C 222.546875 163.546875 250.738281 155.226562 279.65625 149.375 L 283.257812 148.644531 C 284.460938 148.394531 285.660156 148.140625 286.875 147.941406 L 294.164062 146.644531 L 297.800781 145.996094 C 299.015625 145.78125 300.242188 145.613281 301.460938 145.421875 L 308.78125 144.304688 C 311.21875 143.902344 313.671875 143.609375 316.125 143.292969 L 323.476562 142.34375 C 325.929688 142.039062 328.394531 141.820312 330.839844 141.574219 C 333.285156 141.332031 335.75 141.039062 338.21875 140.816406 C 377.980469 137.289062 417.703125 137.628906 457.398438 141.828125 C 497.417969 146.113281 536.785156 153.746094 575.507812 164.722656 C 614.453125 175.785156 652.332031 189.738281 689.152344 206.574219 L 696.03125 209.777344 C 698.296875 210.835938 700.621094 211.894531 702.898438 213.042969 L 716.640625 219.738281 L 730.347656 226.726562 C 732.632812 227.871094 734.914062 229.085938 737.195312 230.292969 L 744.042969 233.914062 C 762.304688 243.636719 780.566406 253.847656 798.933594 264.3125 C 817.304688 274.78125 835.871094 285.453125 854.6875 296.027344 C 859.40625 298.679688 864.101562 301.335938 868.882812 303.960938 C 873.667969 306.585938 878.382812 309.242188 883.207031 311.835938 L 897.675781 319.632812 L 912.335938 327.285156 C 932.007812 337.40625 952.117188 347.066406 972.859375 356.074219 C 993.875 365.148438 1015.304688 373.097656 1037.15625 379.910156 C 1048.128906 383.339844 1059.300781 386.414062 1070.539062 389.195312 C 1081.777344 391.976562 1093.195312 394.417969 1104.761719 396.375 C 1127.859375 400.328125 1151.46875 402.8125 1175.457031 402.996094 C 1187.445312 403.105469 1199.496094 402.65625 1211.609375 401.648438 C 1223.777344 400.601562 1235.859375 398.921875 1247.851562 396.605469 C 1259.960938 394.285156 1271.902344 391.28125 1283.667969 387.605469 C 1295.488281 383.878906 1307.054688 379.484375 1318.363281 374.421875 C 1340.75 364.328125 1361.808594 351.96875 1381.539062 337.347656 C 1400.847656 323.039062 1418.726562 307.113281 1435.164062 289.578125 C 1451.289062 272.363281 1466.023438 254.03125 1479.363281 234.578125 C 1485.992188 224.945312 1492.269531 215.117188 1498.199219 205.09375 L 1500.414062 201.335938 L 1502.601562 197.566406 C 1504.0625 195.050781 1505.484375 192.511719 1506.859375 189.953125 C 1509.707031 184.859375 1512.253906 179.75 1514.910156 174.636719 C 1525.347656 154.160156 1534.570312 133.296875 1542.765625 112.265625 C 1550.960938 91.238281 1558.226562 70.074219 1564.820312 48.929688 C 1578.03125 6.542969 1588.613281 -35.652344 1599.007812 -77.039062 Z M 1599.007812 -77.039062 " fill-opacity="1" fill-rule="nonzero"/></g></g></g></svg>
