<svg xmlns="http://www.w3.org/2000/svg" xmlns:xlink="http://www.w3.org/1999/xlink" width="110%" zoomAndPan="magnify" viewBox="0 0 766 425.249996" height="auto" preserveAspectRatio="xMidYMid meet" version="1.0"><defs><clipPath id="ec7c7ef2e9"><path d="M 0.667969 0 L 767.332031 0 L 767.332031 430.5 L 0.667969 430.5 Z M 0.667969 0 " clip-rule="nonzero"/></clipPath><clipPath id="8d806615dc"><path d="M 0.667969 0 L 767.332031 0 L 767.332031 240 L 0.667969 240 Z M 0.667969 0 " clip-rule="nonzero"/></clipPath><clipPath id="f8655f4f1b"><path d="M -54.972656 9.972656 L 767.140625 -29.671875 L 778.214844 200.023438 L -43.898438 239.671875 Z M -54.972656 9.972656 " clip-rule="nonzero"/></clipPath><clipPath id="b9c40de73a"><path d="M -54.972656 9.972656 L 767.140625 -29.671875 L 778.214844 200.023438 L -43.898438 239.671875 Z M -54.972656 9.972656 " clip-rule="nonzero"/></clipPath><clipPath id="e9a15ddc41"><path d="M 0.667969 247 L 102 247 L 102 429 L 0.667969 429 Z M 0.667969 247 " clip-rule="nonzero"/></clipPath><clipPath id="cd343e5697"><path d="M -7.742188 429.359375 L -96.316406 327.789062 L 12.589844 232.820312 L 101.164062 334.390625 Z M -7.742188 429.359375 " clip-rule="nonzero"/></clipPath><clipPath id="6316f160b0"><path d="M 215.835938 685.746094 L -96.140625 327.992188 L 385.191406 -91.746094 L 697.167969 266.007812 Z M 215.835938 685.746094 " clip-rule="nonzero"/></clipPath><clipPath id="17b3ff7f22"><path d="M 0.667969 232 L 102 232 L 102 401 L 0.667969 401 Z M 0.667969 232 " clip-rule="nonzero"/></clipPath><clipPath id="2b604bc4a4"><path d="M -7.742188 429.359375 L -96.316406 327.789062 L 12.589844 232.820312 L 101.164062 334.390625 Z M -7.742188 429.359375 " clip-rule="nonzero"/></clipPath><clipPath id="a8153ce7a1"><path d="M 215.835938 685.746094 L -96.140625 327.992188 L 385.191406 -91.746094 L 697.167969 266.007812 Z M 215.835938 685.746094 " clip-rule="nonzero"/></clipPath><clipPath id="3fc045a479"><path d="M 0.667969 232 L 102 232 L 102 374 L 0.667969 374 Z M 0.667969 232 " clip-rule="nonzero"/></clipPath><clipPath id="74071b9eee"><path d="M -7.742188 429.359375 L -96.316406 327.789062 L 12.589844 232.820312 L 101.164062 334.390625 Z M -7.742188 429.359375 " clip-rule="nonzero"/></clipPath><clipPath id="2ddad87e95"><path d="M 215.835938 685.746094 L -96.140625 327.992188 L 385.191406 -91.746094 L 697.167969 266.007812 Z M 215.835938 685.746094 " clip-rule="nonzero"/></clipPath><clipPath id="57aaf58af9"><path d="M 0.667969 232 L 102 232 L 102 347 L 0.667969 347 Z M 0.667969 232 " clip-rule="nonzero"/></clipPath><clipPath id="04f286ea6c"><path d="M -7.742188 429.359375 L -96.316406 327.789062 L 12.589844 232.820312 L 101.164062 334.390625 Z M -7.742188 429.359375 " clip-rule="nonzero"/></clipPath><clipPath id="5aded8b815"><path d="M 215.835938 685.746094 L -96.140625 327.992188 L 385.191406 -91.746094 L 697.167969 266.007812 Z M 215.835938 685.746094 " clip-rule="nonzero"/></clipPath><clipPath id="66f68fafb5"><path d="M 35 148 L 159 148 L 159 329 L 35 329 Z M 35 148 " clip-rule="nonzero"/></clipPath><clipPath id="b0c38a209b"><path d="M 51.363281 329.625 L -25.398438 241.597656 L 81.25 148.59375 L 158.015625 236.621094 Z M 51.363281 329.625 " clip-rule="nonzero"/></clipPath><clipPath id="3db9672523"><path d="M 274.945312 586.011719 L -37.03125 228.257812 L 444.300781 -191.480469 L 756.273438 166.273438 Z M 274.945312 586.011719 " clip-rule="nonzero"/></clipPath><clipPath id="87f6905cd4"><path d="M 12 148 L 159 148 L 159 302 L 12 302 Z M 12 148 " clip-rule="nonzero"/></clipPath><clipPath id="f40de0250e"><path d="M 51.363281 329.625 L -25.398438 241.597656 L 81.25 148.59375 L 158.015625 236.621094 Z M 51.363281 329.625 " clip-rule="nonzero"/></clipPath><clipPath id="0a73df361b"><path d="M 274.945312 586.011719 L -37.03125 228.257812 L 444.300781 -191.480469 L 756.273438 166.273438 Z M 274.945312 586.011719 " clip-rule="nonzero"/></clipPath><clipPath id="b943ab32b4"><path d="M 0.667969 148 L 159 148 L 159 274 L 0.667969 274 Z M 0.667969 148 " clip-rule="nonzero"/></clipPath><clipPath id="e8848d91a9"><path d="M 51.363281 329.625 L -25.398438 241.597656 L 81.25 148.59375 L 158.015625 236.621094 Z M 51.363281 329.625 " clip-rule="nonzero"/></clipPath><clipPath id="db6cfa5da2"><path d="M 274.945312 586.011719 L -37.03125 228.257812 L 444.300781 -191.480469 L 756.273438 166.273438 Z M 274.945312 586.011719 " clip-rule="nonzero"/></clipPath><clipPath id="dd596ad2a4"><path d="M 0.667969 148 L 159 148 L 159 247 L 0.667969 247 Z M 0.667969 148 " clip-rule="nonzero"/></clipPath><clipPath id="5b118e6dbf"><path d="M 51.363281 329.625 L -25.398438 241.597656 L 81.25 148.59375 L 158.015625 236.621094 Z M 51.363281 329.625 " clip-rule="nonzero"/></clipPath><clipPath id="f7e9fc963c"><path d="M 274.945312 586.011719 L -37.03125 228.257812 L 444.300781 -191.480469 L 756.273438 166.273438 Z M 274.945312 586.011719 " clip-rule="nonzero"/></clipPath><clipPath id="7f04f133bc"><path d="M 57 176 L 767.332031 176 L 767.332031 358 L 57 358 Z M 57 176 " clip-rule="nonzero"/></clipPath><clipPath id="f3523cf05b"><path d="M 296.933594 615.089844 L -15.042969 257.335938 L 466.289062 -162.402344 L 778.261719 195.351562 Z M 296.933594 615.089844 " clip-rule="nonzero"/></clipPath><clipPath id="e8c790acbb"><path d="M 296.933594 615.089844 L -15.042969 257.335938 L 466.289062 -162.402344 L 778.261719 195.351562 Z M 296.933594 615.089844 " clip-rule="nonzero"/></clipPath><clipPath id="9f15c7ba5f"><path d="M 34 149 L 753 149 L 753 331 L 34 331 Z M 34 149 " clip-rule="nonzero"/></clipPath><clipPath id="9826e363e6"><path d="M 296.933594 615.089844 L -15.042969 257.335938 L 466.289062 -162.402344 L 778.261719 195.351562 Z M 296.933594 615.089844 " clip-rule="nonzero"/></clipPath><clipPath id="0688c363de"><path d="M 296.933594 615.089844 L -15.042969 257.335938 L 466.289062 -162.402344 L 778.261719 195.351562 Z M 296.933594 615.089844 " clip-rule="nonzero"/></clipPath><clipPath id="0bc4064bc5"><path d="M 10 122 L 730 122 L 730 303 L 10 303 Z M 10 122 " clip-rule="nonzero"/></clipPath><clipPath id="b47d85efcf"><path d="M 296.933594 615.089844 L -15.042969 257.335938 L 466.289062 -162.402344 L 778.261719 195.351562 Z M 296.933594 615.089844 " clip-rule="nonzero"/></clipPath><clipPath id="fb6f5bb534"><path d="M 296.933594 615.089844 L -15.042969 257.335938 L 466.289062 -162.402344 L 778.261719 195.351562 Z M 296.933594 615.089844 " clip-rule="nonzero"/></clipPath><clipPath id="ba9fe82fed"><path d="M 0.667969 95 L 706 95 L 706 276 L 0.667969 276 Z M 0.667969 95 " clip-rule="nonzero"/></clipPath><clipPath id="2b9a60b3d7"><path d="M 296.933594 615.089844 L -15.042969 257.335938 L 466.289062 -162.402344 L 778.261719 195.351562 Z M 296.933594 615.089844 " clip-rule="nonzero"/></clipPath><clipPath id="20877f2677"><path d="M 296.933594 615.089844 L -15.042969 257.335938 L 466.289062 -162.402344 L 778.261719 195.351562 Z M 296.933594 615.089844 " clip-rule="nonzero"/></clipPath><clipPath id="ee03983cb6"><path d="M 53 154 L 767.332031 154 L 767.332031 336 L 53 336 Z M 53 154 " clip-rule="nonzero"/></clipPath><clipPath id="d82a5d164e"><path d="M 292.425781 592.992188 L -19.550781 235.238281 L 461.78125 -184.5 L 773.753906 173.253906 Z M 292.425781 592.992188 " clip-rule="nonzero"/></clipPath><clipPath id="0cf0417d2f"><path d="M 292.425781 592.992188 L -19.550781 235.238281 L 461.78125 -184.5 L 773.753906 173.253906 Z M 292.425781 592.992188 " clip-rule="nonzero"/></clipPath><clipPath id="92142ef610"><path d="M 29 127 L 749 127 L 749 309 L 29 309 Z M 29 127 " clip-rule="nonzero"/></clipPath><clipPath id="f6aab2c3f8"><path d="M 292.425781 592.992188 L -19.550781 235.238281 L 461.78125 -184.5 L 773.753906 173.253906 Z M 292.425781 592.992188 " clip-rule="nonzero"/></clipPath><clipPath id="8b108f6878"><path d="M 292.425781 592.992188 L -19.550781 235.238281 L 461.78125 -184.5 L 773.753906 173.253906 Z M 292.425781 592.992188 " clip-rule="nonzero"/></clipPath><clipPath id="c42353e4a2"><path d="M 5 100 L 725 100 L 725 281 L 5 281 Z M 5 100 " clip-rule="nonzero"/></clipPath><clipPath id="f608bb692b"><path d="M 292.425781 592.992188 L -19.550781 235.238281 L 461.78125 -184.5 L 773.753906 173.253906 Z M 292.425781 592.992188 " clip-rule="nonzero"/></clipPath><clipPath id="9e5f8dcfa2"><path d="M 292.425781 592.992188 L -19.550781 235.238281 L 461.78125 -184.5 L 773.753906 173.253906 Z M 292.425781 592.992188 " clip-rule="nonzero"/></clipPath><clipPath id="9a93b81f93"><path d="M 0.667969 73 L 701 73 L 701 254 L 0.667969 254 Z M 0.667969 73 " clip-rule="nonzero"/></clipPath><clipPath id="0629597229"><path d="M 292.425781 592.992188 L -19.550781 235.238281 L 461.78125 -184.5 L 773.753906 173.253906 Z M 292.425781 592.992188 " clip-rule="nonzero"/></clipPath><clipPath id="fca67bf5cd"><path d="M 292.425781 592.992188 L -19.550781 235.238281 L 461.78125 -184.5 L 773.753906 173.253906 Z M 292.425781 592.992188 " clip-rule="nonzero"/></clipPath><clipPath id="7e5dd558af"><path d="M 0.667969 237 L 103 237 L 103 418 L 0.667969 418 Z M 0.667969 237 " clip-rule="nonzero"/></clipPath><clipPath id="da332ee728"><path d="M -5.9375 419.332031 L -94.507812 317.761719 L 14.398438 222.792969 L 102.96875 324.363281 Z M -5.9375 419.332031 " clip-rule="nonzero"/></clipPath><clipPath id="49195c7bfd"><path d="M 217.644531 675.71875 L -94.332031 317.96875 L 387 -101.773438 L 698.972656 255.980469 Z M 217.644531 675.71875 " clip-rule="nonzero"/></clipPath><clipPath id="a15cfc49d7"><path d="M 0.667969 222 L 103 222 L 103 391 L 0.667969 391 Z M 0.667969 222 " clip-rule="nonzero"/></clipPath><clipPath id="f4c9a99390"><path d="M -5.9375 419.332031 L -94.507812 317.761719 L 14.398438 222.792969 L 102.96875 324.363281 Z M -5.9375 419.332031 " clip-rule="nonzero"/></clipPath><clipPath id="13a6d4f451"><path d="M 217.644531 675.71875 L -94.332031 317.96875 L 387 -101.773438 L 698.972656 255.980469 Z M 217.644531 675.71875 " clip-rule="nonzero"/></clipPath><clipPath id="6c61453c1c"><path d="M 0.667969 222 L 103 222 L 103 364 L 0.667969 364 Z M 0.667969 222 " clip-rule="nonzero"/></clipPath><clipPath id="f125b9e423"><path d="M -5.9375 419.332031 L -94.507812 317.761719 L 14.398438 222.792969 L 102.96875 324.363281 Z M -5.9375 419.332031 " clip-rule="nonzero"/></clipPath><clipPath id="852344e5a8"><path d="M 217.644531 675.71875 L -94.332031 317.96875 L 387 -101.773438 L 698.972656 255.980469 Z M 217.644531 675.71875 " clip-rule="nonzero"/></clipPath><clipPath id="eb73f41634"><path d="M 0.667969 222 L 103 222 L 103 337 L 0.667969 337 Z M 0.667969 222 " clip-rule="nonzero"/></clipPath><clipPath id="94b0d80171"><path d="M -5.9375 419.332031 L -94.507812 317.761719 L 14.398438 222.792969 L 102.96875 324.363281 Z M -5.9375 419.332031 " clip-rule="nonzero"/></clipPath><clipPath id="d32d56674a"><path d="M 217.644531 675.71875 L -94.332031 317.96875 L 387 -101.773438 L 698.972656 255.980469 Z M 217.644531 675.71875 " clip-rule="nonzero"/></clipPath><clipPath id="a72cd08024"><path d="M 0.667969 227 L 95 227 L 95 408 L 0.667969 408 Z M 0.667969 227 " clip-rule="nonzero"/></clipPath><clipPath id="545883d376"><path d="M -14.488281 409.191406 L -103.058594 307.621094 L 5.847656 212.652344 L 94.417969 314.222656 Z M -14.488281 409.191406 " clip-rule="nonzero"/></clipPath><clipPath id="9acd02ea73"><path d="M 209.09375 665.582031 L -102.882812 307.828125 L 378.449219 -111.910156 L 690.421875 245.839844 Z M 209.09375 665.582031 " clip-rule="nonzero"/></clipPath><clipPath id="f439f0ffdd"><path d="M 0.667969 212 L 95 212 L 95 381 L 0.667969 381 Z M 0.667969 212 " clip-rule="nonzero"/></clipPath><clipPath id="4d1ab67fa0"><path d="M -14.488281 409.191406 L -103.058594 307.621094 L 5.847656 212.652344 L 94.417969 314.222656 Z M -14.488281 409.191406 " clip-rule="nonzero"/></clipPath><clipPath id="7562d3d2c8"><path d="M 209.09375 665.582031 L -102.882812 307.828125 L 378.449219 -111.910156 L 690.421875 245.839844 Z M 209.09375 665.582031 " clip-rule="nonzero"/></clipPath><clipPath id="ee3b156e59"><path d="M 0.667969 212 L 95 212 L 95 354 L 0.667969 354 Z M 0.667969 212 " clip-rule="nonzero"/></clipPath><clipPath id="e67d89d28b"><path d="M -14.488281 409.191406 L -103.058594 307.621094 L 5.847656 212.652344 L 94.417969 314.222656 Z M -14.488281 409.191406 " clip-rule="nonzero"/></clipPath><clipPath id="88ee8eb1f1"><path d="M 209.09375 665.582031 L -102.882812 307.828125 L 378.449219 -111.910156 L 690.421875 245.839844 Z M 209.09375 665.582031 " clip-rule="nonzero"/></clipPath><clipPath id="7f6aa4417e"><path d="M 0.667969 212 L 95 212 L 95 327 L 0.667969 327 Z M 0.667969 212 " clip-rule="nonzero"/></clipPath><clipPath id="9376dad6c8"><path d="M -14.488281 409.191406 L -103.058594 307.621094 L 5.847656 212.652344 L 94.417969 314.222656 Z M -14.488281 409.191406 " clip-rule="nonzero"/></clipPath><clipPath id="496b15d72f"><path d="M 209.09375 665.582031 L -102.882812 307.828125 L 378.449219 -111.910156 L 690.421875 245.839844 Z M 209.09375 665.582031 " clip-rule="nonzero"/></clipPath><clipPath id="0e2253bf2f"><path d="M 732 13 L 767.332031 13 L 767.332031 194 L 732 194 Z M 732 13 " clip-rule="nonzero"/></clipPath><clipPath id="601cb00622"><path d="M 747.800781 195.132812 L 659.226562 93.5625 L 768.132812 -1.40625 L 856.707031 100.164062 Z M 747.800781 195.132812 " clip-rule="nonzero"/></clipPath><clipPath id="a079494f59"><path d="M 971.378906 451.519531 L 659.402344 93.765625 L 1140.734375 -325.972656 L 1452.710938 31.78125 Z M 971.378906 451.519531 " clip-rule="nonzero"/></clipPath><clipPath id="68ffcb0471"><path d="M 708 0 L 767.332031 0 L 767.332031 167 L 708 167 Z M 708 0 " clip-rule="nonzero"/></clipPath><clipPath id="88e9f3ec8e"><path d="M 747.800781 195.132812 L 659.226562 93.5625 L 768.132812 -1.40625 L 856.707031 100.164062 Z M 747.800781 195.132812 " clip-rule="nonzero"/></clipPath><clipPath id="b1508a77ca"><path d="M 971.378906 451.519531 L 659.402344 93.765625 L 1140.734375 -325.972656 L 1452.710938 31.78125 Z M 971.378906 451.519531 " clip-rule="nonzero"/></clipPath><clipPath id="b0fa6260c7"><path d="M 684 0 L 767.332031 0 L 767.332031 140 L 684 140 Z M 684 0 " clip-rule="nonzero"/></clipPath><clipPath id="08cb824321"><path d="M 747.800781 195.132812 L 659.226562 93.5625 L 768.132812 -1.40625 L 856.707031 100.164062 Z M 747.800781 195.132812 " clip-rule="nonzero"/></clipPath><clipPath id="0939eb69e5"><path d="M 971.378906 451.519531 L 659.402344 93.765625 L 1140.734375 -325.972656 L 1452.710938 31.78125 Z M 971.378906 451.519531 " clip-rule="nonzero"/></clipPath><clipPath id="e69e450aeb"><path d="M 661 0 L 767.332031 0 L 767.332031 113 L 661 113 Z M 661 0 " clip-rule="nonzero"/></clipPath><clipPath id="05a2f3cfad"><path d="M 747.800781 195.132812 L 659.226562 93.5625 L 768.132812 -1.40625 L 856.707031 100.164062 Z M 747.800781 195.132812 " clip-rule="nonzero"/></clipPath><clipPath id="5bd7e842dc"><path d="M 971.378906 451.519531 L 659.402344 93.765625 L 1140.734375 -325.972656 L 1452.710938 31.78125 Z M 971.378906 451.519531 " clip-rule="nonzero"/></clipPath><clipPath id="11a7390acd"><path d="M 746 13 L 767.332031 13 L 767.332031 195 L 746 195 Z M 746 13 " clip-rule="nonzero"/></clipPath><clipPath id="010002ad7e"><path d="M 762.160156 195.65625 L 673.585938 94.085938 L 782.492188 -0.886719 L 871.0625 100.683594 Z M 762.160156 195.65625 " clip-rule="nonzero"/></clipPath><clipPath id="300edf9019"><path d="M 985.738281 452.042969 L 673.761719 94.289062 L 1155.09375 -325.449219 L 1467.070312 32.304688 Z M 985.738281 452.042969 " clip-rule="nonzero"/></clipPath><clipPath id="22022242d9"><path d="M 722 0 L 767.332031 0 L 767.332031 168 L 722 168 Z M 722 0 " clip-rule="nonzero"/></clipPath><clipPath id="8bdac62bca"><path d="M 762.160156 195.65625 L 673.585938 94.085938 L 782.492188 -0.886719 L 871.0625 100.683594 Z M 762.160156 195.65625 " clip-rule="nonzero"/></clipPath><clipPath id="1805d26a9e"><path d="M 985.738281 452.042969 L 673.761719 94.289062 L 1155.09375 -325.449219 L 1467.070312 32.304688 Z M 985.738281 452.042969 " clip-rule="nonzero"/></clipPath><clipPath id="a639e9986a"><path d="M 699 0 L 767.332031 0 L 767.332031 140 L 699 140 Z M 699 0 " clip-rule="nonzero"/></clipPath><clipPath id="1d0836ec75"><path d="M 762.160156 195.65625 L 673.585938 94.085938 L 782.492188 -0.886719 L 871.0625 100.683594 Z M 762.160156 195.65625 " clip-rule="nonzero"/></clipPath><clipPath id="dd807eb02e"><path d="M 985.738281 452.042969 L 673.761719 94.289062 L 1155.09375 -325.449219 L 1467.070312 32.304688 Z M 985.738281 452.042969 " clip-rule="nonzero"/></clipPath><clipPath id="a85029d638"><path d="M 675 0 L 767.332031 0 L 767.332031 113 L 675 113 Z M 675 0 " clip-rule="nonzero"/></clipPath><clipPath id="94cf61f468"><path d="M 762.160156 195.65625 L 673.585938 94.085938 L 782.492188 -0.886719 L 871.0625 100.683594 Z M 762.160156 195.65625 " clip-rule="nonzero"/></clipPath><clipPath id="5b502aeaec"><path d="M 985.738281 452.042969 L 673.761719 94.289062 L 1155.09375 -325.449219 L 1467.070312 32.304688 Z M 985.738281 452.042969 " clip-rule="nonzero"/></clipPath><clipPath id="4bb9b95479"><path d="M 47.09375 35.796875 L 119 35.796875 L 119 57 L 47.09375 57 Z M 47.09375 35.796875 " clip-rule="nonzero"/></clipPath><clipPath id="9d332561d1"><path d="M 55.921875 37.808594 C 102.039062 38.933594 100.917969 41.703125 101.441406 41.851562 C 102.039062 42.003906 103.3125 38.410156 104.734375 37.433594 C 106.15625 36.460938 108.554688 35.9375 110.050781 35.863281 C 111.097656 35.863281 111.773438 36.011719 112.746094 36.460938 C 114.09375 37.136719 116.117188 38.484375 117.015625 39.980469 C 117.914062 41.476562 118.4375 43.574219 118.285156 45.296875 C 118.136719 47.019531 116.9375 49.191406 116.039062 50.386719 C 115.367188 51.210938 114.769531 51.660156 113.792969 52.109375 C 112.445312 52.707031 110.125 53.308594 108.402344 53.082031 C 106.683594 52.859375 104.660156 51.808594 103.460938 50.539062 C 102.265625 49.265625 101.367188 47.316406 101.140625 45.597656 C 100.917969 43.875 101.292969 41.703125 102.191406 40.207031 C 103.089844 38.707031 105.035156 37.210938 106.382812 36.535156 C 107.28125 36.085938 108.03125 35.9375 109.078125 35.9375 C 110.574219 35.9375 113.121094 36.613281 114.394531 37.285156 C 115.367188 37.808594 115.890625 38.484375 116.488281 39.230469 C 117.089844 39.980469 117.539062 40.65625 117.835938 41.628906 C 118.210938 43.050781 118.960938 45.445312 117.914062 47.167969 C 115.964844 50.238281 108.179688 53.308594 100.917969 54.878906 C 89.3125 57.351562 61.386719 57.199219 53.824219 54.804688 C 51.128906 53.90625 49.855469 52.859375 48.808594 51.285156 C 47.761719 49.714844 47.160156 47.242188 47.386719 45.371094 C 47.609375 43.5 48.808594 41.253906 50.230469 39.980469 C 51.652344 38.707031 55.921875 37.808594 55.921875 37.808594 " clip-rule="nonzero"/></clipPath><clipPath id="cc92b6aa3b"><path d="M 0.667969 0 L 144 0 L 144 240 L 0.667969 240 Z M 0.667969 0 " clip-rule="nonzero"/></clipPath><clipPath id="0721e6f7d5"><path d="M -137.472656 111.492188 L 37.84375 -33.382812 L 143.761719 94.792969 L -31.554688 239.667969 Z M -137.472656 111.492188 " clip-rule="nonzero"/></clipPath><clipPath id="4cc9145e33"><path d="M -137.472656 111.492188 L 37.84375 -33.382812 L 143.761719 94.792969 L -31.554688 239.667969 Z M -137.472656 111.492188 " clip-rule="nonzero"/></clipPath><clipPath id="0842c4b660"><path d="M 472 0 L 767.332031 0 L 767.332031 157 L 472 157 Z M 472 0 " clip-rule="nonzero"/></clipPath><clipPath id="332dfc2440"><path d="M 472.527344 30.476562 L 670.234375 -138.367188 L 778.21875 -11.921875 L 580.511719 156.921875 Z M 472.527344 30.476562 " clip-rule="nonzero"/></clipPath><clipPath id="2ce95ac00f"><path d="M 472.527344 30.476562 L 670.234375 -138.367188 L 778.21875 -11.921875 L 580.511719 156.921875 Z M 472.527344 30.476562 " clip-rule="nonzero"/></clipPath><clipPath id="cdfb12397f"><path d="M 35.324219 0 L 575.777344 0 L 575.777344 79.9375 L 35.324219 79.9375 Z M 35.324219 0 " clip-rule="nonzero"/></clipPath><clipPath id="40d30776b1"><path d="M 157 0 L 412 0 L 412 149 L 157 149 Z M 157 0 " clip-rule="nonzero"/></clipPath><clipPath id="cb5110c32b"><path d="M 251.511719 -107.726562 L 411.8125 58.683594 L 318.269531 148.789062 L 157.972656 -17.621094 Z M 251.511719 -107.726562 " clip-rule="nonzero"/></clipPath><clipPath id="7405855bdc"><path d="M 251.511719 -107.726562 L 411.8125 58.683594 L 318.269531 148.789062 L 157.972656 -17.621094 Z M 251.511719 -107.726562 " clip-rule="nonzero"/></clipPath><clipPath id="2e00e3b7a8"><path d="M 377 0 L 642 0 L 642 164 L 377 164 Z M 377 0 " clip-rule="nonzero"/></clipPath><clipPath id="7d7fdf2f3a"><path d="M 449.105469 -72.769531 L 641.308594 55.476562 L 569.21875 163.515625 L 377.015625 35.269531 Z M 449.105469 -72.769531 " clip-rule="nonzero"/></clipPath><clipPath id="8841a0ba01"><path d="M 449.105469 -72.769531 L 641.308594 55.476562 L 569.21875 163.515625 L 377.015625 35.269531 Z M 449.105469 -72.769531 " clip-rule="nonzero"/></clipPath><clipPath id="5c680aa29d"><path d="M 293 0 L 531 0 L 531 108 L 293 108 Z M 293 0 " clip-rule="nonzero"/></clipPath><clipPath id="356be1bce7"><path d="M 293.292969 -22.253906 L 524.082031 -33.382812 L 530.339844 96.347656 L 299.546875 107.476562 Z M 293.292969 -22.253906 " clip-rule="nonzero"/></clipPath><clipPath id="2cafdfa531"><path d="M 293.292969 -22.253906 L 524.082031 -33.382812 L 530.339844 96.347656 L 299.546875 107.476562 Z M 293.292969 -22.253906 " clip-rule="nonzero"/></clipPath><clipPath id="577e7e7f2b"><path d="M 55 0 L 306 0 L 306 107 L 55 107 Z M 55 0 " clip-rule="nonzero"/></clipPath><clipPath id="47d9a5aca5"><path d="M 55.609375 -20.472656 L 283.40625 -60.203125 L 305.550781 66.753906 L 77.753906 106.488281 Z M 55.609375 -20.472656 " clip-rule="nonzero"/></clipPath><clipPath id="cf765cbd9e"><path d="M 55.609375 -20.472656 L 283.40625 -60.203125 L 305.550781 66.753906 L 77.753906 106.488281 Z M 55.609375 -20.472656 " clip-rule="nonzero"/></clipPath><clipPath id="1c37164cfc"><path d="M 300 3 L 468 3 L 468 113 L 300 113 Z M 300 3 " clip-rule="nonzero"/></clipPath><clipPath id="29f1774698"><path d="M 300.121094 10.941406 L 462.972656 3.085938 L 467.878906 104.808594 L 305.027344 112.660156 Z M 300.121094 10.941406 " clip-rule="nonzero"/></clipPath><clipPath id="b2293e3a01"><path d="M 300.121094 10.941406 L 462.972656 3.085938 L 467.878906 104.808594 L 305.027344 112.660156 Z M 300.121094 10.941406 " clip-rule="nonzero"/></clipPath></defs><g clip-path="url(#ec7c7ef2e9)"><path fill="#ffffff" d="M 0.667969 0 L 767.332031 0 L 767.332031 430.5 L 0.667969 430.5 Z M 0.667969 0 " fill-opacity="1" fill-rule="nonzero"/><path fill="#680416" d="M 0.667969 0 L 767.332031 0 L 767.332031 430.5 L 0.667969 430.5 Z M 0.667969 0 " fill-opacity="1" fill-rule="nonzero"/></g><g clip-path="url(#8d806615dc)"><g clip-path="url(#f8655f4f1b)"><g clip-path="url(#b9c40de73a)"><path fill="#ffffff" d="M -54.972656 9.972656 L 767.140625 -29.671875 L 778.214844 200.023438 L -43.898438 239.671875 Z M -54.972656 9.972656 " fill-opacity="1" fill-rule="nonzero"/></g></g></g><g clip-path="url(#e9a15ddc41)"><g clip-path="url(#cd343e5697)"><g clip-path="url(#6316f160b0)"><path fill="#058789" d="M -23.296875 408.113281 L 80.90625 317.242188 C 102.863281 298.097656 136.3125 300.375 155.449219 322.320312 L 163.042969 331.027344 C 201.316406 374.917969 268.222656 379.472656 312.132812 341.179688 L 320.796875 333.628906 C 342.800781 314.4375 376.203125 316.757812 395.339844 338.703125 L 402.890625 347.363281 C 441.164062 391.253906 508.070312 395.808594 551.980469 357.515625 L 678.089844 247.542969 L 695.449219 267.449219 L 569.339844 377.421875 C 514.472656 425.265625 430.839844 419.617188 382.976562 364.730469 L 375.425781 356.070312 C 365.835938 345.074219 349.15625 343.9375 338.152344 353.53125 L 329.492188 361.085938 C 274.578125 408.972656 190.949219 403.230469 143.128906 348.394531 L 135.535156 339.6875 C 125.988281 328.738281 109.265625 327.554688 98.261719 337.148438 L -5.941406 428.019531 Z M -23.296875 408.113281 " fill-opacity="1" fill-rule="nonzero"/></g></g></g><g clip-path="url(#17b3ff7f22)"><g clip-path="url(#2b604bc4a4)"><g clip-path="url(#a8153ce7a1)"><path fill="#cdaeff" d="M -46.992188 380.941406 L 64.53125 283.691406 C 97.441406 254.992188 147.621094 258.363281 176.347656 291.304688 L 183.898438 299.964844 C 212.625 332.90625 262.757812 336.320312 295.714844 307.578125 L 304.378906 300.023438 C 337.335938 271.285156 387.511719 274.746094 416.195312 307.640625 L 423.789062 316.347656 C 452.472656 349.242188 502.648438 352.703125 535.605469 323.964844 L 654.398438 220.371094 L 671.753906 240.277344 L 552.964844 343.867188 C 509.050781 382.160156 442.148438 377.605469 403.875 333.714844 L 396.28125 325.007812 C 377.144531 303.0625 343.691406 300.785156 321.738281 319.929688 L 313.074219 327.484375 C 269.113281 365.820312 202.257812 361.222656 163.984375 317.332031 L 156.433594 308.671875 C 137.296875 286.726562 103.84375 284.449219 81.886719 303.597656 L -29.632812 400.847656 Z M -46.992188 380.941406 " fill-opacity="1" fill-rule="nonzero"/></g></g></g><g clip-path="url(#3fc045a479)"><g clip-path="url(#74071b9eee)"><g clip-path="url(#2ddad87e95)"><path fill="#d54b1a" d="M -70.726562 353.722656 L 48.0625 250.132812 C 91.976562 211.839844 158.878906 216.398438 197.152344 260.285156 L 204.746094 268.996094 C 223.882812 290.941406 257.335938 293.21875 279.292969 274.070312 L 287.953125 266.515625 C 331.914062 228.179688 398.769531 232.78125 437.042969 276.667969 L 444.59375 285.328125 C 463.730469 307.273438 497.183594 309.550781 519.140625 290.40625 L 630.660156 193.152344 L 648.019531 213.058594 L 536.496094 310.308594 C 503.585938 339.007812 453.40625 335.636719 424.679688 302.695312 L 417.128906 294.035156 C 388.402344 261.09375 338.269531 257.679688 305.3125 286.421875 L 296.648438 293.976562 C 263.691406 322.71875 213.515625 319.253906 184.832031 286.359375 L 177.238281 277.652344 C 148.554688 244.761719 98.378906 241.296875 65.421875 270.039062 L -53.371094 373.628906 Z M -70.726562 353.722656 " fill-opacity="1" fill-rule="nonzero"/></g></g></g><g clip-path="url(#57aaf58af9)"><g clip-path="url(#04f286ea6c)"><g clip-path="url(#5aded8b815)"><path fill="#e3a72f" d="M -94.421875 326.554688 L 31.6875 216.582031 C 86.554688 168.738281 170.1875 174.386719 218.050781 229.273438 L 225.601562 237.929688 C 235.191406 248.929688 251.871094 250.0625 262.875 240.46875 L 271.535156 232.914062 C 326.449219 185.027344 410.078125 190.769531 457.898438 245.605469 L 465.492188 254.316406 C 475.039062 265.261719 491.761719 266.449219 502.765625 256.851562 L 606.96875 165.984375 L 624.324219 185.886719 L 520.121094 276.757812 C 498.164062 295.902344 464.714844 293.625 445.578125 271.679688 L 437.984375 262.972656 C 399.710938 219.082031 332.804688 214.527344 288.894531 252.820312 L 280.230469 260.375 C 258.226562 279.5625 224.824219 277.242188 205.6875 255.296875 L 198.136719 246.636719 C 159.863281 202.75 92.957031 198.191406 49.046875 236.484375 L -77.0625 346.457031 Z M -94.421875 326.554688 " fill-opacity="1" fill-rule="nonzero"/></g></g></g><g clip-path="url(#66f68fafb5)"><g clip-path="url(#b0c38a209b)"><g clip-path="url(#3db9672523)"><path fill="#058789" d="M 35.808594 308.378906 L 140.015625 217.507812 C 161.96875 198.359375 195.421875 200.640625 214.558594 222.582031 L 222.152344 231.292969 C 260.425781 275.183594 327.332031 279.738281 371.242188 241.445312 L 379.90625 233.890625 C 401.910156 214.699219 435.3125 217.023438 454.449219 238.96875 L 462 247.625 C 500.273438 291.515625 567.179688 296.070312 611.089844 257.78125 L 737.199219 147.804688 L 754.558594 167.710938 L 628.449219 277.683594 C 573.582031 325.527344 489.949219 319.878906 442.085938 264.992188 L 434.535156 256.332031 C 424.945312 245.335938 408.265625 244.199219 397.261719 253.796875 L 388.601562 261.351562 C 333.683594 309.238281 250.058594 303.496094 202.238281 248.660156 L 194.644531 239.949219 C 185.097656 229.003906 168.375 227.816406 157.371094 237.410156 L 53.167969 328.28125 Z M 35.808594 308.378906 " fill-opacity="1" fill-rule="nonzero"/></g></g></g><g clip-path="url(#87f6905cd4)"><g clip-path="url(#f40de0250e)"><g clip-path="url(#0a73df361b)"><path fill="#cdaeff" d="M 12.117188 281.207031 L 123.640625 183.957031 C 156.546875 155.257812 206.730469 158.628906 235.457031 191.570312 L 243.007812 200.230469 C 271.734375 233.171875 321.867188 236.585938 354.824219 207.84375 L 363.488281 200.289062 C 396.445312 171.546875 446.621094 175.011719 475.304688 207.902344 L 482.898438 216.613281 C 511.582031 249.503906 561.757812 252.96875 594.714844 224.226562 L 713.507812 120.636719 L 730.863281 140.542969 L 612.074219 244.132812 C 568.160156 282.425781 501.257812 277.867188 462.984375 233.976562 L 455.390625 225.269531 C 436.253906 203.324219 402.800781 201.046875 380.84375 220.195312 L 372.183594 227.75 C 328.21875 266.085938 261.367188 261.484375 223.09375 217.59375 L 215.542969 208.9375 C 196.40625 186.992188 162.953125 184.714844 140.996094 203.859375 L 29.472656 301.113281 Z M 12.117188 281.207031 " fill-opacity="1" fill-rule="nonzero"/></g></g></g><g clip-path="url(#b943ab32b4)"><g clip-path="url(#e8848d91a9)"><g clip-path="url(#db6cfa5da2)"><path fill="#d54b1a" d="M -11.621094 253.988281 L 107.171875 150.398438 C 151.082031 112.105469 217.988281 116.660156 256.261719 160.550781 L 263.855469 169.257812 C 282.992188 191.203125 316.445312 193.480469 338.398438 174.335938 L 347.0625 166.78125 C 391.023438 128.445312 457.878906 133.042969 496.152344 176.933594 L 503.703125 185.59375 C 522.839844 207.535156 556.292969 209.816406 578.246094 190.667969 L 689.769531 93.417969 L 707.128906 113.320312 L 595.605469 210.574219 C 562.695312 239.273438 512.515625 235.902344 483.789062 202.957031 L 476.238281 194.300781 C 447.511719 161.359375 397.378906 157.945312 364.421875 186.683594 L 355.757812 194.238281 C 322.796875 222.980469 272.625 219.515625 243.941406 186.625 L 236.347656 177.917969 C 207.664062 145.023438 157.488281 141.558594 124.527344 170.300781 L 5.738281 273.890625 Z M -11.621094 253.988281 " fill-opacity="1" fill-rule="nonzero"/></g></g></g><g clip-path="url(#dd596ad2a4)"><g clip-path="url(#5b118e6dbf)"><g clip-path="url(#f7e9fc963c)"><path fill="#e3a72f" d="M -35.3125 226.816406 L 90.796875 116.84375 C 145.660156 69 229.296875 74.648438 277.160156 129.535156 L 284.710938 138.195312 C 294.300781 149.191406 310.980469 150.328125 321.980469 140.734375 L 330.644531 133.179688 C 385.558594 85.292969 469.1875 91.03125 517.007812 145.871094 L 524.601562 154.578125 C 534.148438 165.527344 550.871094 166.710938 561.871094 157.117188 L 666.078125 66.246094 L 683.433594 86.152344 L 579.230469 177.019531 C 557.273438 196.167969 523.824219 193.890625 504.6875 171.945312 L 497.09375 163.238281 C 458.816406 119.347656 391.914062 114.789062 348.003906 153.082031 L 339.339844 160.636719 C 317.332031 179.828125 283.933594 177.507812 264.796875 155.5625 L 257.246094 146.902344 C 218.972656 103.011719 152.066406 98.457031 108.15625 136.75 L -17.957031 246.722656 Z M -35.3125 226.816406 " fill-opacity="1" fill-rule="nonzero"/></g></g></g><g clip-path="url(#7f04f133bc)"><g clip-path="url(#f3523cf05b)"><g clip-path="url(#e8c790acbb)"><path fill="#058789" d="M 57.796875 337.457031 L 162.003906 246.589844 C 183.957031 227.441406 217.410156 229.71875 236.546875 251.664062 L 244.140625 260.371094 C 282.414062 304.261719 349.316406 308.820312 393.230469 270.527344 L 401.894531 262.972656 C 423.898438 243.78125 457.300781 246.101562 476.4375 268.046875 L 483.988281 276.707031 C 522.261719 320.597656 589.164062 325.152344 633.078125 286.859375 L 759.1875 176.886719 L 776.546875 196.792969 L 650.433594 306.765625 C 595.570312 354.609375 511.9375 348.960938 464.074219 294.074219 L 456.523438 285.414062 C 446.933594 274.417969 430.253906 273.28125 419.25 282.875 L 410.585938 290.429688 C 355.671875 338.316406 272.046875 332.574219 224.226562 277.738281 L 216.632812 269.03125 C 207.085938 258.082031 190.363281 256.898438 179.359375 266.492188 L 75.15625 357.363281 Z M 57.796875 337.457031 " fill-opacity="1" fill-rule="nonzero"/></g></g></g><g clip-path="url(#9f15c7ba5f)"><g clip-path="url(#9826e363e6)"><g clip-path="url(#0688c363de)"><path fill="#cdaeff" d="M 34.105469 310.289062 L 145.628906 213.035156 C 178.535156 184.335938 228.71875 187.707031 257.445312 220.652344 L 264.996094 229.308594 C 293.722656 262.25 343.851562 265.664062 376.8125 236.925781 L 385.476562 229.371094 C 418.433594 200.628906 468.609375 204.089844 497.292969 236.984375 L 504.886719 245.691406 C 533.570312 278.585938 583.746094 282.050781 616.703125 253.308594 L 735.496094 149.71875 L 752.851562 169.621094 L 634.0625 273.210938 C 590.148438 311.503906 523.246094 306.949219 484.972656 263.058594 L 477.378906 254.351562 C 458.242188 232.40625 424.789062 230.128906 402.832031 249.273438 L 394.167969 256.828125 C 350.207031 295.164062 283.355469 290.566406 245.082031 246.675781 L 237.53125 238.015625 C 218.394531 216.074219 184.941406 213.792969 162.984375 232.941406 L 51.460938 330.191406 Z M 34.105469 310.289062 " fill-opacity="1" fill-rule="nonzero"/></g></g></g><g clip-path="url(#0bc4064bc5)"><g clip-path="url(#b47d85efcf)"><g clip-path="url(#fb6f5bb534)"><path fill="#d54b1a" d="M 10.367188 283.066406 L 129.160156 179.476562 C 173.070312 141.183594 239.976562 145.742188 278.25 189.628906 L 285.84375 198.339844 C 304.980469 220.285156 338.433594 222.5625 360.386719 203.414062 L 369.050781 195.859375 C 413.011719 157.523438 479.867188 162.125 518.140625 206.015625 L 525.691406 214.671875 C 544.828125 236.617188 578.28125 238.894531 600.234375 219.75 L 711.757812 122.496094 L 729.117188 142.402344 L 617.59375 239.652344 C 584.683594 268.351562 534.503906 264.980469 505.777344 232.039062 L 498.226562 223.378906 C 469.5 190.4375 419.367188 187.023438 386.40625 215.765625 L 377.746094 223.320312 C 344.785156 252.0625 294.613281 248.597656 265.929688 215.707031 L 258.332031 206.996094 C 229.648438 174.105469 179.476562 170.640625 146.515625 199.382812 L 27.726562 302.972656 Z M 10.367188 283.066406 " fill-opacity="1" fill-rule="nonzero"/></g></g></g><g clip-path="url(#ba9fe82fed)"><g clip-path="url(#2b9a60b3d7)"><g clip-path="url(#20877f2677)"><path fill="#e3a72f" d="M -13.324219 255.898438 L 112.785156 145.925781 C 167.648438 98.082031 251.285156 103.730469 299.148438 158.617188 L 306.699219 167.273438 C 316.289062 178.273438 332.96875 179.410156 343.96875 169.8125 L 352.632812 162.257812 C 407.546875 114.371094 491.175781 120.113281 538.996094 174.949219 L 546.589844 183.660156 C 556.136719 194.605469 572.859375 195.792969 583.859375 186.195312 L 688.066406 95.328125 L 705.421875 115.230469 L 601.21875 206.101562 C 579.261719 225.25 545.808594 222.96875 526.671875 201.023438 L 519.078125 192.316406 C 480.804688 148.425781 413.902344 143.871094 369.992188 182.164062 L 361.328125 189.71875 C 339.320312 208.910156 305.917969 206.585938 286.78125 184.640625 L 279.230469 175.984375 C 240.957031 132.09375 174.054688 127.535156 130.144531 165.828125 L 4.03125 275.800781 Z M -13.324219 255.898438 " fill-opacity="1" fill-rule="nonzero"/></g></g></g><g clip-path="url(#ee03983cb6)"><g clip-path="url(#d82a5d164e)"><g clip-path="url(#0cf0417d2f)"><path fill="#058789" d="M 53.289062 315.359375 L 157.496094 224.488281 C 179.449219 205.34375 212.902344 207.621094 232.039062 229.566406 L 239.632812 238.273438 C 277.90625 282.164062 344.808594 286.71875 388.722656 248.425781 L 397.386719 240.871094 C 419.390625 221.683594 452.792969 224.003906 471.929688 245.949219 L 479.480469 254.609375 C 517.753906 298.496094 584.660156 303.054688 628.570312 264.761719 L 754.679688 154.789062 L 772.039062 174.691406 L 645.929688 284.664062 C 591.0625 332.511719 507.429688 326.859375 459.566406 271.972656 L 452.015625 263.316406 C 442.425781 252.316406 425.746094 251.183594 414.742188 260.777344 L 406.082031 268.332031 C 351.164062 316.21875 267.539062 310.476562 219.71875 255.640625 L 212.125 246.933594 C 202.578125 235.984375 185.855469 234.796875 174.851562 244.394531 L 70.648438 335.265625 Z M 53.289062 315.359375 " fill-opacity="1" fill-rule="nonzero"/></g></g></g><g clip-path="url(#92142ef610)"><g clip-path="url(#f6aab2c3f8)"><g clip-path="url(#8b108f6878)"><path fill="#cdaeff" d="M 29.597656 288.1875 L 141.121094 190.9375 C 174.027344 162.238281 224.210938 165.609375 252.9375 198.550781 L 260.488281 207.210938 C 289.214844 240.152344 339.347656 243.566406 372.304688 214.824219 L 380.96875 207.269531 C 413.925781 178.53125 464.101562 181.992188 492.785156 214.886719 L 500.378906 223.59375 C 529.0625 256.488281 579.238281 259.949219 612.195312 231.207031 L 730.988281 127.617188 L 748.34375 147.523438 L 629.554688 251.113281 C 585.640625 289.40625 518.738281 284.851562 480.464844 240.960938 L 472.871094 232.253906 C 453.734375 210.308594 420.28125 208.03125 398.324219 227.175781 L 389.664062 234.730469 C 345.699219 273.066406 278.847656 268.464844 240.574219 224.578125 L 233.023438 215.917969 C 213.886719 193.972656 180.433594 191.695312 158.476562 210.839844 L 46.953125 308.09375 Z M 29.597656 288.1875 " fill-opacity="1" fill-rule="nonzero"/></g></g></g><g clip-path="url(#c42353e4a2)"><g clip-path="url(#f608bb692b)"><g clip-path="url(#9e5f8dcfa2)"><path fill="#d54b1a" d="M 5.859375 260.96875 L 124.652344 157.378906 C 168.5625 119.085938 235.46875 123.640625 273.742188 167.53125 L 281.335938 176.242188 C 300.472656 198.183594 333.925781 200.464844 355.878906 181.316406 L 364.542969 173.761719 C 408.503906 135.425781 475.359375 140.027344 513.632812 183.914062 L 521.183594 192.574219 C 540.320312 214.519531 573.773438 216.796875 595.726562 197.652344 L 707.25 100.398438 L 724.609375 120.304688 L 613.085938 217.554688 C 580.175781 246.253906 529.996094 242.882812 501.269531 209.941406 L 493.71875 201.28125 C 464.992188 168.339844 414.859375 164.925781 381.902344 193.667969 L 373.238281 201.222656 C 340.277344 229.960938 290.105469 226.5 261.421875 193.605469 L 253.828125 184.898438 C 225.144531 152.007812 174.96875 148.542969 142.007812 177.285156 L 23.21875 280.875 Z M 5.859375 260.96875 " fill-opacity="1" fill-rule="nonzero"/></g></g></g><g clip-path="url(#9a93b81f93)"><g clip-path="url(#0629597229)"><g clip-path="url(#fca67bf5cd)"><path fill="#e3a72f" d="M -17.832031 233.800781 L 108.277344 123.828125 C 163.140625 75.980469 246.777344 81.632812 294.640625 136.519531 L 302.191406 145.175781 C 311.78125 156.175781 328.460938 157.308594 339.460938 147.714844 L 348.125 140.160156 C 403.039062 92.273438 486.667969 98.015625 534.488281 152.851562 L 542.082031 161.558594 C 551.628906 172.507812 568.351562 173.695312 579.351562 164.097656 L 683.558594 73.230469 L 700.914062 93.132812 L 596.710938 184.003906 C 574.753906 203.148438 541.304688 200.871094 522.167969 178.925781 L 514.574219 170.21875 C 476.296875 126.328125 409.394531 121.773438 365.484375 160.066406 L 356.820312 167.621094 C 334.8125 186.808594 301.414062 184.488281 282.277344 162.542969 L 274.726562 153.882812 C 236.453125 109.996094 169.546875 105.4375 125.636719 143.730469 L -0.476562 253.703125 Z M -17.832031 233.800781 " fill-opacity="1" fill-rule="nonzero"/></g></g></g><g clip-path="url(#7e5dd558af)"><g clip-path="url(#da332ee728)"><g clip-path="url(#49195c7bfd)"><path fill="#058789" d="M -21.492188 398.085938 L 82.714844 307.21875 C 104.667969 288.070312 138.121094 290.347656 157.257812 312.292969 L 164.851562 321.003906 C 203.125 364.890625 270.03125 369.449219 313.941406 331.15625 L 322.605469 323.601562 C 344.609375 304.410156 378.011719 306.734375 397.148438 328.675781 L 404.699219 337.335938 C 442.972656 381.226562 509.878906 385.78125 553.789062 347.488281 L 679.898438 237.515625 L 697.257812 257.421875 L 571.148438 367.394531 C 516.28125 415.238281 432.648438 409.589844 384.785156 354.703125 L 377.234375 346.042969 C 367.644531 335.046875 350.964844 333.910156 339.960938 343.503906 L 331.300781 351.058594 C 276.382812 398.949219 192.757812 393.207031 144.9375 338.367188 L 137.34375 329.660156 C 127.796875 318.710938 111.074219 317.527344 100.070312 327.121094 L -4.132812 417.992188 Z M -21.492188 398.085938 " fill-opacity="1" fill-rule="nonzero"/></g></g></g><g clip-path="url(#a15cfc49d7)"><g clip-path="url(#f4c9a99390)"><g clip-path="url(#13a6d4f451)"><path fill="#cdaeff" d="M -45.183594 370.917969 L 66.339844 273.664062 C 99.246094 244.96875 149.429688 248.339844 178.15625 281.28125 L 185.707031 289.9375 C 214.433594 322.882812 264.566406 326.292969 297.523438 297.554688 L 306.1875 290 C 339.144531 261.257812 389.320312 264.722656 418.003906 297.613281 L 425.597656 306.320312 C 454.28125 339.214844 504.457031 342.679688 537.414062 313.9375 L 656.207031 210.347656 L 673.5625 230.25 L 554.773438 333.839844 C 510.859375 372.132812 443.957031 367.578125 405.683594 323.6875 L 398.089844 314.980469 C 378.953125 293.035156 345.5 290.757812 323.542969 309.902344 L 314.882812 317.457031 C 270.917969 355.792969 204.066406 351.195312 165.792969 307.304688 L 158.242188 298.644531 C 139.105469 276.703125 105.652344 274.421875 83.695312 293.570312 L -27.824219 390.820312 Z M -45.183594 370.917969 " fill-opacity="1" fill-rule="nonzero"/></g></g></g><g clip-path="url(#6c61453c1c)"><g clip-path="url(#f125b9e423)"><g clip-path="url(#852344e5a8)"><path fill="#d54b1a" d="M -68.921875 343.699219 L 49.871094 240.105469 C 93.78125 201.8125 160.6875 206.371094 198.960938 250.261719 L 206.554688 258.96875 C 225.691406 280.914062 259.144531 283.191406 281.097656 264.046875 L 289.761719 256.492188 C 333.722656 218.152344 400.578125 222.753906 438.851562 266.644531 L 446.402344 275.300781 C 465.539062 297.246094 498.992188 299.527344 520.945312 280.378906 L 632.46875 183.128906 L 649.828125 203.03125 L 538.304688 300.285156 C 505.394531 328.980469 455.214844 325.609375 426.488281 292.667969 L 418.9375 284.011719 C 390.210938 251.066406 340.078125 247.652344 307.121094 276.394531 L 298.457031 283.949219 C 265.496094 312.691406 215.324219 309.226562 186.640625 276.335938 L 179.046875 267.625 C 150.363281 234.734375 100.1875 231.269531 67.226562 260.011719 L -51.5625 363.601562 Z M -68.921875 343.699219 " fill-opacity="1" fill-rule="nonzero"/></g></g></g><g clip-path="url(#eb73f41634)"><g clip-path="url(#94b0d80171)"><g clip-path="url(#d32d56674a)"><path fill="#e3a72f" d="M -92.613281 316.527344 L 33.496094 206.554688 C 88.359375 158.710938 171.996094 164.359375 219.859375 219.246094 L 227.410156 227.90625 C 237 238.902344 253.679688 240.039062 264.679688 230.441406 L 273.34375 222.890625 C 328.257812 175 411.886719 180.742188 459.707031 235.582031 L 467.300781 244.289062 C 476.847656 255.234375 493.570312 256.421875 504.570312 246.828125 L 608.777344 155.957031 L 626.132812 175.863281 L 521.929688 266.730469 C 499.972656 285.878906 466.523438 283.601562 447.386719 261.65625 L 439.792969 252.945312 C 401.515625 209.054688 334.613281 204.5 290.703125 242.792969 L 282.039062 250.347656 C 260.035156 269.539062 226.632812 267.214844 207.496094 245.269531 L 199.945312 236.613281 C 161.671875 192.722656 94.765625 188.167969 50.855469 226.460938 L -75.257812 336.433594 Z M -92.613281 316.527344 " fill-opacity="1" fill-rule="nonzero"/></g></g></g><g clip-path="url(#a72cd08024)"><g clip-path="url(#545883d376)"><g clip-path="url(#9acd02ea73)"><path fill="#058789" d="M -30.042969 387.945312 L 74.164062 297.078125 C 96.117188 277.929688 129.570312 280.207031 148.707031 302.152344 L 156.300781 310.863281 C 194.574219 354.753906 261.476562 359.308594 305.390625 321.015625 L 314.054688 313.460938 C 336.058594 294.269531 369.460938 296.59375 388.597656 318.539062 L 396.148438 327.195312 C 434.421875 371.085938 501.328125 375.640625 545.238281 337.347656 L 671.347656 227.375 L 688.707031 247.28125 L 562.597656 357.253906 C 507.730469 405.097656 424.097656 399.449219 376.234375 344.5625 L 368.683594 335.902344 C 359.09375 324.90625 342.414062 323.769531 331.410156 333.367188 L 322.75 340.917969 C 267.832031 388.808594 184.207031 383.066406 136.386719 328.226562 L 128.792969 319.519531 C 119.246094 308.574219 102.523438 307.386719 91.519531 316.980469 L -12.683594 407.851562 Z M -30.042969 387.945312 " fill-opacity="1" fill-rule="nonzero"/></g></g></g><g clip-path="url(#f439f0ffdd)"><g clip-path="url(#4d1ab67fa0)"><g clip-path="url(#7562d3d2c8)"><path fill="#cdaeff" d="M -53.734375 360.777344 L 57.789062 263.523438 C 90.695312 234.828125 140.878906 238.199219 169.605469 271.140625 L 177.15625 279.796875 C 205.882812 312.742188 256.015625 316.15625 288.972656 287.414062 L 297.636719 279.859375 C 330.59375 251.117188 380.769531 254.582031 409.453125 287.472656 L 417.046875 296.183594 C 445.730469 329.074219 495.90625 332.539062 528.863281 303.796875 L 647.65625 200.207031 L 665.011719 220.109375 L 546.222656 323.703125 C 502.308594 361.996094 435.40625 357.4375 397.132812 313.546875 L 389.539062 304.839844 C 370.402344 282.894531 336.949219 280.617188 314.992188 299.761719 L 306.332031 307.316406 C 262.367188 345.65625 195.515625 341.054688 157.242188 297.164062 L 149.691406 288.507812 C 130.554688 266.5625 97.101562 264.28125 75.144531 283.429688 L -36.378906 380.679688 Z M -53.734375 360.777344 " fill-opacity="1" fill-rule="nonzero"/></g></g></g><g clip-path="url(#ee3b156e59)"><g clip-path="url(#e67d89d28b)"><g clip-path="url(#88ee8eb1f1)"><path fill="#d54b1a" d="M -77.472656 333.558594 L 41.320312 229.96875 C 85.230469 191.671875 152.136719 196.230469 190.410156 240.121094 L 198.003906 248.828125 C 217.140625 270.773438 250.59375 273.050781 272.546875 253.90625 L 281.210938 246.351562 C 325.171875 208.015625 392.027344 212.613281 430.300781 256.503906 L 437.851562 265.164062 C 456.988281 287.105469 490.441406 289.386719 512.394531 270.238281 L 623.917969 172.988281 L 641.277344 192.890625 L 529.753906 290.144531 C 496.84375 318.839844 446.664062 315.46875 417.9375 282.527344 L 410.386719 273.871094 C 381.660156 240.925781 331.527344 237.515625 298.570312 266.253906 L 289.90625 273.808594 C 256.945312 302.550781 206.773438 299.085938 178.089844 266.195312 L 170.496094 257.488281 C 141.8125 224.59375 91.636719 221.128906 58.675781 249.871094 L -60.113281 353.460938 Z M -77.472656 333.558594 " fill-opacity="1" fill-rule="nonzero"/></g></g></g><g clip-path="url(#7f6aa4417e)"><g clip-path="url(#9376dad6c8)"><g clip-path="url(#496b15d72f)"><path fill="#e3a72f" d="M -101.164062 306.386719 L 24.945312 196.414062 C 79.808594 148.570312 163.445312 154.21875 211.308594 209.105469 L 218.859375 217.765625 C 228.449219 228.761719 245.128906 229.898438 256.128906 220.304688 L 264.792969 212.75 C 319.707031 164.859375 403.335938 170.601562 451.15625 225.441406 L 458.75 234.148438 C 468.296875 245.097656 485.019531 246.28125 496.019531 236.6875 L 600.226562 145.816406 L 617.582031 165.722656 L 513.378906 256.589844 C 491.421875 275.738281 457.972656 273.460938 438.835938 251.515625 L 431.238281 242.804688 C 392.964844 198.917969 326.0625 194.359375 282.152344 232.652344 L 273.488281 240.207031 C 251.480469 259.398438 218.082031 257.074219 198.941406 235.128906 L 191.390625 226.472656 C 153.117188 182.582031 86.214844 178.027344 42.304688 216.320312 L -83.808594 326.292969 Z M -101.164062 306.386719 " fill-opacity="1" fill-rule="nonzero"/></g></g></g><g clip-path="url(#0e2253bf2f)"><g clip-path="url(#601cb00622)"><g clip-path="url(#a079494f59)"><path fill="#058789" d="M 732.246094 173.886719 L 836.449219 83.015625 C 858.40625 63.871094 891.855469 66.148438 910.992188 88.09375 L 918.585938 96.800781 C 956.859375 140.691406 1023.765625 145.25 1067.675781 106.953125 L 1076.339844 99.402344 C 1098.34375 80.210938 1131.746094 82.53125 1150.882812 104.476562 L 1158.433594 113.136719 C 1196.707031 157.027344 1263.613281 161.582031 1307.523438 123.289062 L 1433.632812 13.316406 L 1450.992188 33.222656 L 1324.882812 143.195312 C 1270.015625 191.039062 1186.382812 185.390625 1138.519531 130.503906 L 1130.96875 121.84375 C 1121.378906 110.847656 1104.699219 109.710938 1093.695312 119.304688 L 1085.035156 126.859375 C 1030.121094 174.746094 946.492188 169.003906 898.671875 114.167969 L 891.078125 105.460938 C 881.53125 94.511719 864.808594 93.328125 853.804688 102.921875 L 749.601562 193.792969 Z M 732.246094 173.886719 " fill-opacity="1" fill-rule="nonzero"/></g></g></g><g clip-path="url(#68ffcb0471)"><g clip-path="url(#88e9f3ec8e)"><g clip-path="url(#b1508a77ca)"><path fill="#cdaeff" d="M 708.550781 146.714844 L 820.074219 49.464844 C 852.984375 20.765625 903.164062 24.136719 931.890625 57.078125 L 939.441406 65.738281 C 968.167969 98.679688 1018.300781 102.09375 1051.257812 73.351562 L 1059.921875 65.796875 C 1092.878906 37.058594 1143.054688 40.519531 1171.738281 73.414062 L 1179.332031 82.121094 C 1208.015625 115.015625 1258.191406 118.476562 1291.148438 89.738281 L 1409.941406 -13.855469 L 1427.296875 6.050781 L 1308.507812 109.640625 C 1264.59375 147.933594 1197.691406 143.378906 1159.417969 99.488281 L 1151.824219 90.78125 C 1132.6875 68.835938 1099.234375 66.558594 1077.28125 85.703125 L 1068.617188 93.257812 C 1024.65625 131.59375 957.800781 126.996094 919.527344 83.105469 L 911.976562 74.445312 C 892.839844 52.5 859.386719 50.222656 837.429688 69.371094 L 725.910156 166.621094 Z M 708.550781 146.714844 " fill-opacity="1" fill-rule="nonzero"/></g></g></g><g clip-path="url(#b0fa6260c7)"><g clip-path="url(#08cb824321)"><g clip-path="url(#0939eb69e5)"><path fill="#d54b1a" d="M 684.816406 119.496094 L 803.605469 15.90625 C 847.519531 -22.386719 914.421875 -17.828125 952.695312 26.058594 L 960.289062 34.769531 C 979.425781 56.714844 1012.878906 58.992188 1034.832031 39.84375 L 1043.496094 32.289062 C 1087.457031 -6.046875 1154.3125 -1.445312 1192.585938 42.441406 L 1200.136719 51.101562 C 1219.273438 73.046875 1252.726562 75.324219 1274.683594 56.179688 L 1386.203125 -41.074219 L 1403.5625 -21.167969 L 1292.039062 76.082031 C 1259.128906 104.78125 1208.949219 101.410156 1180.222656 68.46875 L 1172.671875 59.808594 C 1143.945312 26.867188 1093.8125 23.453125 1060.855469 52.195312 L 1052.191406 59.75 C 1019.234375 88.492188 969.058594 85.027344 940.375 52.132812 L 932.78125 43.425781 C 904.097656 10.535156 853.921875 7.070312 820.964844 35.8125 L 702.171875 139.402344 Z M 684.816406 119.496094 " fill-opacity="1" fill-rule="nonzero"/></g></g></g><g clip-path="url(#e69e450aeb)"><g clip-path="url(#05a2f3cfad)"><g clip-path="url(#5bd7e842dc)"><path fill="#e3a72f" d="M 661.121094 92.328125 L 787.230469 -17.644531 C 842.097656 -65.488281 925.730469 -59.839844 973.59375 -4.953125 L 981.144531 3.703125 C 990.734375 14.703125 1007.414062 15.835938 1018.417969 6.242188 L 1027.078125 -1.3125 C 1081.992188 -49.199219 1165.621094 -43.457031 1213.441406 11.378906 L 1221.035156 20.089844 C 1230.582031 31.035156 1247.304688 32.222656 1258.308594 22.625 L 1362.511719 -68.242188 L 1379.867188 -48.339844 L 1275.664062 42.53125 C 1253.707031 61.675781 1220.257812 59.398438 1201.121094 37.453125 L 1193.527344 28.746094 C 1155.253906 -15.144531 1088.347656 -19.699219 1044.4375 18.59375 L 1035.773438 26.148438 C 1013.769531 45.335938 980.367188 43.015625 961.230469 21.070312 L 953.679688 12.410156 C 915.40625 -31.476562 848.5 -36.035156 804.589844 2.257812 L 678.480469 112.230469 Z M 661.121094 92.328125 " fill-opacity="1" fill-rule="nonzero"/></g></g></g><g clip-path="url(#11a7390acd)"><g clip-path="url(#010002ad7e)"><g clip-path="url(#300edf9019)"><path fill="#058789" d="M 746.605469 174.410156 L 850.808594 83.539062 C 872.765625 64.394531 906.214844 66.671875 925.351562 88.617188 L 932.945312 97.324219 C 971.21875 141.214844 1038.125 145.769531 1082.035156 107.476562 L 1090.699219 99.921875 C 1112.703125 80.734375 1146.105469 83.054688 1165.242188 105 L 1172.792969 113.660156 C 1211.066406 157.546875 1277.972656 162.105469 1321.882812 123.8125 L 1447.992188 13.839844 L 1465.351562 33.742188 L 1339.242188 143.714844 C 1284.375 191.5625 1200.742188 185.910156 1152.878906 131.023438 L 1145.328125 122.367188 C 1135.738281 111.367188 1119.058594 110.234375 1108.054688 119.828125 L 1099.394531 127.382812 C 1044.480469 175.269531 960.851562 169.527344 913.03125 114.691406 L 905.4375 105.984375 C 895.890625 95.035156 879.167969 93.847656 868.164062 103.445312 L 763.960938 194.3125 Z M 746.605469 174.410156 " fill-opacity="1" fill-rule="nonzero"/></g></g></g><g clip-path="url(#22022242d9)"><g clip-path="url(#8bdac62bca)"><g clip-path="url(#1805d26a9e)"><path fill="#cdaeff" d="M 722.910156 147.238281 L 834.433594 49.988281 C 867.34375 21.289062 917.523438 24.660156 946.25 57.601562 L 953.800781 66.261719 C 982.527344 99.203125 1032.660156 102.617188 1065.617188 73.875 L 1074.28125 66.320312 C 1107.238281 37.582031 1157.414062 41.042969 1186.097656 73.9375 L 1193.691406 82.644531 C 1222.375 115.535156 1272.550781 119 1305.507812 90.257812 L 1424.300781 -13.332031 L 1441.65625 6.574219 L 1322.867188 110.164062 C 1278.953125 148.457031 1212.050781 143.898438 1173.777344 100.011719 L 1166.183594 91.300781 C 1147.046875 69.355469 1113.59375 67.078125 1091.636719 86.226562 L 1082.976562 93.78125 C 1039.015625 132.117188 972.160156 127.515625 933.886719 83.628906 L 926.335938 74.96875 C 907.199219 53.023438 873.746094 50.746094 851.789062 69.890625 L 740.269531 167.144531 Z M 722.910156 147.238281 " fill-opacity="1" fill-rule="nonzero"/></g></g></g><g clip-path="url(#a639e9986a)"><g clip-path="url(#1d0836ec75)"><g clip-path="url(#dd807eb02e)"><path fill="#d54b1a" d="M 699.171875 120.019531 L 817.964844 16.429688 C 861.878906 -21.863281 928.78125 -17.308594 967.054688 26.582031 L 974.648438 35.289062 C 993.785156 57.234375 1027.238281 59.511719 1049.191406 40.367188 L 1057.855469 32.8125 C 1101.816406 -5.523438 1168.671875 -0.925781 1206.945312 42.964844 L 1214.496094 51.625 C 1233.632812 73.570312 1267.085938 75.847656 1289.042969 56.699219 L 1400.5625 -40.550781 L 1417.921875 -20.644531 L 1306.398438 76.605469 C 1273.488281 105.304688 1223.308594 101.933594 1194.582031 68.992188 L 1187.03125 60.332031 C 1158.304688 27.390625 1108.171875 23.976562 1075.214844 52.71875 L 1066.550781 60.273438 C 1033.59375 89.011719 983.417969 85.550781 954.734375 52.65625 L 947.140625 43.949219 C 918.457031 11.054688 868.28125 7.59375 835.324219 36.335938 L 716.53125 139.925781 Z M 699.171875 120.019531 " fill-opacity="1" fill-rule="nonzero"/></g></g></g><g clip-path="url(#a85029d638)"><g clip-path="url(#94cf61f468)"><g clip-path="url(#5b502aeaec)"><path fill="#e3a72f" d="M 675.480469 92.847656 L 801.589844 -17.125 C 856.457031 -64.96875 940.089844 -59.320312 987.953125 -4.433594 L 995.503906 4.226562 C 1005.09375 15.222656 1021.773438 16.359375 1032.777344 6.765625 L 1041.4375 -0.789062 C 1096.351562 -48.675781 1179.980469 -42.933594 1227.800781 11.902344 L 1235.394531 20.609375 C 1244.941406 31.558594 1261.664062 32.742188 1272.667969 23.148438 L 1376.871094 -67.722656 L 1394.226562 -47.816406 L 1290.023438 43.054688 C 1268.066406 62.199219 1234.617188 59.921875 1215.480469 37.976562 L 1207.886719 29.269531 C 1169.613281 -14.621094 1102.707031 -19.175781 1058.796875 19.117188 L 1050.132812 26.667969 C 1028.128906 45.859375 994.726562 43.539062 975.589844 21.59375 L 968.039062 12.933594 C 929.765625 -30.957031 862.859375 -35.511719 818.949219 2.78125 L 692.839844 112.753906 Z M 675.480469 92.847656 " fill-opacity="1" fill-rule="nonzero"/></g></g></g><g clip-path="url(#4bb9b95479)"><g clip-path="url(#9d332561d1)"><path fill="#ffffff" d="M 44.390625 32.867188 L 121.28125 32.867188 L 121.28125 57.875 L 44.390625 57.875 Z M 44.390625 32.867188 " fill-opacity="1" fill-rule="nonzero"/></g></g><g clip-path="url(#cc92b6aa3b)"><g clip-path="url(#0721e6f7d5)"><g clip-path="url(#4cc9145e33)"><path fill="#ffffff" d="M -137.472656 111.492188 L 37.84375 -33.382812 L 143.761719 94.792969 L -31.554688 239.667969 Z M -137.472656 111.492188 " fill-opacity="1" fill-rule="nonzero"/></g></g></g><g clip-path="url(#0842c4b660)"><g clip-path="url(#332dfc2440)"><g clip-path="url(#2ce95ac00f)"><path fill="#ffffff" d="M 472.527344 30.476562 L 670.234375 -138.367188 L 778.21875 -11.921875 L 580.511719 156.921875 Z M 472.527344 30.476562 " fill-opacity="1" fill-rule="nonzero"/></g></g></g><g clip-path="url(#cdfb12397f)"><path fill="#ffffff" d="M 35.324219 -121.953125 L 575.777344 -121.953125 L 575.777344 79.9375 L 35.324219 79.9375 Z M 35.324219 -121.953125 " fill-opacity="1" fill-rule="nonzero"/></g><g clip-path="url(#40d30776b1)"><g clip-path="url(#cb5110c32b)"><g clip-path="url(#7405855bdc)"><path fill="#ffffff" d="M 251.511719 -107.726562 L 411.8125 58.683594 L 318.269531 148.789062 L 157.972656 -17.621094 Z M 251.511719 -107.726562 " fill-opacity="1" fill-rule="nonzero"/></g></g></g><g clip-path="url(#2e00e3b7a8)"><g clip-path="url(#7d7fdf2f3a)"><g clip-path="url(#8841a0ba01)"><path fill="#ffffff" d="M 449.105469 -72.769531 L 641.308594 55.476562 L 569.21875 163.515625 L 377.015625 35.269531 Z M 449.105469 -72.769531 " fill-opacity="1" fill-rule="nonzero"/></g></g></g><g clip-path="url(#5c680aa29d)"><g clip-path="url(#356be1bce7)"><g clip-path="url(#2cafdfa531)"><path fill="#ffffff" d="M 293.292969 -22.253906 L 524.082031 -33.382812 L 530.339844 96.347656 L 299.546875 107.476562 Z M 293.292969 -22.253906 " fill-opacity="1" fill-rule="nonzero"/></g></g></g><g clip-path="url(#577e7e7f2b)"><g clip-path="url(#47d9a5aca5)"><g clip-path="url(#cf765cbd9e)"><path fill="#ffffff" d="M 55.609375 -20.472656 L 283.40625 -60.203125 L 305.550781 66.753906 L 77.753906 106.488281 Z M 55.609375 -20.472656 " fill-opacity="1" fill-rule="nonzero"/></g></g></g><g clip-path="url(#1c37164cfc)"><g clip-path="url(#29f1774698)"><g clip-path="url(#b2293e3a01)"><path fill="#ffffff" d="M 300.121094 10.941406 L 462.972656 3.085938 L 467.878906 104.808594 L 305.027344 112.660156 Z M 300.121094 10.941406 " fill-opacity="1" fill-rule="nonzero"/></g></g></g></svg>
