<svg xmlns="http://www.w3.org/2000/svg" xmlns:xlink="http://www.w3.org/1999/xlink" width="105vw" zoomAndPan="magnify" viewBox="0 0 768 431.249996" height="auto" preserveAspectRatio="xMidYMid meet" version="1.0"><defs><clipPath id="f1830caed9"><path d="M 0.667969 0 L 767.332031 0 L 767.332031 430.5 L 0.667969 430.5 Z M 0.667969 0 " clip-rule="nonzero"/></clipPath><clipPath id="199891437b"><path d="M 0.667969 0 L 767.332031 0 L 767.332031 241 L 0.667969 241 Z M 0.667969 0 " clip-rule="nonzero"/></clipPath><clipPath id="fd5cee0c11"><path d="M -64.925781 7.070312 L 768.808594 -33.136719 L 780.042969 199.808594 L -53.691406 240.015625 Z M -64.925781 7.070312 " clip-rule="nonzero"/></clipPath><clipPath id="0582ec87a5"><path d="M -64.925781 7.070312 L 768.808594 -33.136719 L 780.042969 199.808594 L -53.691406 240.015625 Z M -64.925781 7.070312 " clip-rule="nonzero"/></clipPath><clipPath id="5e508b58c4"><path d="M 0.667969 248 L 94 248 L 94 430.5 L 0.667969 430.5 Z M 0.667969 248 " clip-rule="nonzero"/></clipPath><clipPath id="279c9ae9b5"><path d="M -17.027344 432.390625 L -106.582031 329.691406 L 4.015625 233.246094 L 93.574219 335.945312 Z M -17.027344 432.390625 " clip-rule="nonzero"/></clipPath><clipPath id="c5cda6c149"><path d="M 209.714844 692.402344 L -106.6875 329.570312 L 381.414062 -96.074219 L 697.816406 266.757812 Z M 209.714844 692.402344 " clip-rule="nonzero"/></clipPath><clipPath id="51ae9bb964"><path d="M 0.667969 233 L 94 233 L 94 404 L 0.667969 404 Z M 0.667969 233 " clip-rule="nonzero"/></clipPath><clipPath id="716afbcf8c"><path d="M -17.027344 432.390625 L -106.582031 329.691406 L 4.015625 233.246094 L 93.574219 335.945312 Z M -17.027344 432.390625 " clip-rule="nonzero"/></clipPath><clipPath id="c4ef882358"><path d="M 209.714844 692.402344 L -106.6875 329.570312 L 381.414062 -96.074219 L 697.816406 266.757812 Z M 209.714844 692.402344 " clip-rule="nonzero"/></clipPath><clipPath id="ba3c0943e7"><path d="M 0.667969 233 L 94 233 L 94 376 L 0.667969 376 Z M 0.667969 233 " clip-rule="nonzero"/></clipPath><clipPath id="5cd6fe92f8"><path d="M -17.027344 432.390625 L -106.582031 329.691406 L 4.015625 233.246094 L 93.574219 335.945312 Z M -17.027344 432.390625 " clip-rule="nonzero"/></clipPath><clipPath id="9264db85c6"><path d="M 209.714844 692.402344 L -106.6875 329.570312 L 381.414062 -96.074219 L 697.816406 266.757812 Z M 209.714844 692.402344 " clip-rule="nonzero"/></clipPath><clipPath id="b220159940"><path d="M 0.667969 233 L 94 233 L 94 349 L 0.667969 349 Z M 0.667969 233 " clip-rule="nonzero"/></clipPath><clipPath id="8973e1fb66"><path d="M -17.027344 432.390625 L -106.582031 329.691406 L 4.015625 233.246094 L 93.574219 335.945312 Z M -17.027344 432.390625 " clip-rule="nonzero"/></clipPath><clipPath id="e712cf3d4b"><path d="M 209.714844 692.402344 L -106.6875 329.570312 L 381.414062 -96.074219 L 697.816406 266.757812 Z M 209.714844 692.402344 " clip-rule="nonzero"/></clipPath><clipPath id="29540fef76"><path d="M 27 147 L 152 147 L 152 330 L 27 330 Z M 27 147 " clip-rule="nonzero"/></clipPath><clipPath id="73ef28829a"><path d="M 42.921875 331.230469 L -34.824219 242.074219 L 73.515625 147.597656 L 151.265625 236.753906 Z M 42.921875 331.230469 " clip-rule="nonzero"/></clipPath><clipPath id="6707028c3d"><path d="M 269.664062 591.242188 L -46.742188 228.410156 L 441.363281 -197.234375 L 757.765625 165.597656 Z M 269.664062 591.242188 " clip-rule="nonzero"/></clipPath><clipPath id="e1397cfe9f"><path d="M 3 147 L 152 147 L 152 303 L 3 303 Z M 3 147 " clip-rule="nonzero"/></clipPath><clipPath id="3dc076a102"><path d="M 42.921875 331.230469 L -34.824219 242.074219 L 73.515625 147.597656 L 151.265625 236.753906 Z M 42.921875 331.230469 " clip-rule="nonzero"/></clipPath><clipPath id="d8214ea235"><path d="M 269.664062 591.242188 L -46.742188 228.410156 L 441.363281 -197.234375 L 757.765625 165.597656 Z M 269.664062 591.242188 " clip-rule="nonzero"/></clipPath><clipPath id="9a68b16400"><path d="M 0.667969 147 L 152 147 L 152 275 L 0.667969 275 Z M 0.667969 147 " clip-rule="nonzero"/></clipPath><clipPath id="b411d08c18"><path d="M 42.921875 331.230469 L -34.824219 242.074219 L 73.515625 147.597656 L 151.265625 236.753906 Z M 42.921875 331.230469 " clip-rule="nonzero"/></clipPath><clipPath id="5248790539"><path d="M 269.664062 591.242188 L -46.742188 228.410156 L 441.363281 -197.234375 L 757.765625 165.597656 Z M 269.664062 591.242188 " clip-rule="nonzero"/></clipPath><clipPath id="882181f7f9"><path d="M 0.667969 147 L 152 147 L 152 248 L 0.667969 248 Z M 0.667969 147 " clip-rule="nonzero"/></clipPath><clipPath id="7f7241ec24"><path d="M 42.921875 331.230469 L -34.824219 242.074219 L 73.515625 147.597656 L 151.265625 236.753906 Z M 42.921875 331.230469 " clip-rule="nonzero"/></clipPath><clipPath id="f9dfd70da3"><path d="M 269.664062 591.242188 L -46.742188 228.410156 L 441.363281 -197.234375 L 757.765625 165.597656 Z M 269.664062 591.242188 " clip-rule="nonzero"/></clipPath><clipPath id="cfb0481461"><path d="M 49 176 L 767.332031 176 L 767.332031 360 L 49 360 Z M 49 176 " clip-rule="nonzero"/></clipPath><clipPath id="f18e78675c"><path d="M 291.957031 620.746094 L -24.445312 257.914062 L 463.65625 -167.726562 L 780.058594 195.105469 Z M 291.957031 620.746094 " clip-rule="nonzero"/></clipPath><clipPath id="e4baa280e9"><path d="M 291.957031 620.746094 L -24.445312 257.914062 L 463.65625 -167.726562 L 780.058594 195.105469 Z M 291.957031 620.746094 " clip-rule="nonzero"/></clipPath><clipPath id="6f8d20f52b"><path d="M 25 148 L 755 148 L 755 332 L 25 332 Z M 25 148 " clip-rule="nonzero"/></clipPath><clipPath id="b6ff2b1036"><path d="M 291.957031 620.746094 L -24.445312 257.914062 L 463.65625 -167.726562 L 780.058594 195.105469 Z M 291.957031 620.746094 " clip-rule="nonzero"/></clipPath><clipPath id="50df2da49c"><path d="M 291.957031 620.746094 L -24.445312 257.914062 L 463.65625 -167.726562 L 780.058594 195.105469 Z M 291.957031 620.746094 " clip-rule="nonzero"/></clipPath><clipPath id="11c8a53350"><path d="M 1 121 L 731 121 L 731 305 L 1 305 Z M 1 121 " clip-rule="nonzero"/></clipPath><clipPath id="917f40237a"><path d="M 291.957031 620.746094 L -24.445312 257.914062 L 463.65625 -167.726562 L 780.058594 195.105469 Z M 291.957031 620.746094 " clip-rule="nonzero"/></clipPath><clipPath id="02471bf99a"><path d="M 291.957031 620.746094 L -24.445312 257.914062 L 463.65625 -167.726562 L 780.058594 195.105469 Z M 291.957031 620.746094 " clip-rule="nonzero"/></clipPath><clipPath id="b2b04de650"><path d="M 0.667969 93 L 707 93 L 707 277 L 0.667969 277 Z M 0.667969 93 " clip-rule="nonzero"/></clipPath><clipPath id="72e5a19142"><path d="M 291.957031 620.746094 L -24.445312 257.914062 L 463.65625 -167.726562 L 780.058594 195.105469 Z M 291.957031 620.746094 " clip-rule="nonzero"/></clipPath><clipPath id="355dbba3af"><path d="M 291.957031 620.746094 L -24.445312 257.914062 L 463.65625 -167.726562 L 780.058594 195.105469 Z M 291.957031 620.746094 " clip-rule="nonzero"/></clipPath><clipPath id="df4d60ef70"><path d="M 44 153 L 767.332031 153 L 767.332031 337 L 44 337 Z M 44 153 " clip-rule="nonzero"/></clipPath><clipPath id="cd62bb3f7b"><path d="M 287.386719 598.335938 L -29.019531 235.503906 L 459.085938 -190.140625 L 775.488281 172.691406 Z M 287.386719 598.335938 " clip-rule="nonzero"/></clipPath><clipPath id="519ceb768c"><path d="M 287.386719 598.335938 L -29.019531 235.503906 L 459.085938 -190.140625 L 775.488281 172.691406 Z M 287.386719 598.335938 " clip-rule="nonzero"/></clipPath><clipPath id="f779a536c8"><path d="M 20 126 L 750 126 L 750 310 L 20 310 Z M 20 126 " clip-rule="nonzero"/></clipPath><clipPath id="39789fc396"><path d="M 287.386719 598.335938 L -29.019531 235.503906 L 459.085938 -190.140625 L 775.488281 172.691406 Z M 287.386719 598.335938 " clip-rule="nonzero"/></clipPath><clipPath id="01dc3ed24d"><path d="M 287.386719 598.335938 L -29.019531 235.503906 L 459.085938 -190.140625 L 775.488281 172.691406 Z M 287.386719 598.335938 " clip-rule="nonzero"/></clipPath><clipPath id="50415596b3"><path d="M 0.667969 98 L 726 98 L 726 282 L 0.667969 282 Z M 0.667969 98 " clip-rule="nonzero"/></clipPath><clipPath id="b739def48a"><path d="M 287.386719 598.335938 L -29.019531 235.503906 L 459.085938 -190.140625 L 775.488281 172.691406 Z M 287.386719 598.335938 " clip-rule="nonzero"/></clipPath><clipPath id="acba8c3773"><path d="M 287.386719 598.335938 L -29.019531 235.503906 L 459.085938 -190.140625 L 775.488281 172.691406 Z M 287.386719 598.335938 " clip-rule="nonzero"/></clipPath><clipPath id="ad248dcac3"><path d="M 0.667969 71 L 702 71 L 702 255 L 0.667969 255 Z M 0.667969 71 " clip-rule="nonzero"/></clipPath><clipPath id="98677d2168"><path d="M 287.386719 598.335938 L -29.019531 235.503906 L 459.085938 -190.140625 L 775.488281 172.691406 Z M 287.386719 598.335938 " clip-rule="nonzero"/></clipPath><clipPath id="4d251fa032"><path d="M 287.386719 598.335938 L -29.019531 235.503906 L 459.085938 -190.140625 L 775.488281 172.691406 Z M 287.386719 598.335938 " clip-rule="nonzero"/></clipPath><clipPath id="c7eaac3558"><path d="M 0.667969 237 L 96 237 L 96 421 L 0.667969 421 Z M 0.667969 237 " clip-rule="nonzero"/></clipPath><clipPath id="b6b15105e2"><path d="M -15.191406 422.222656 L -104.75 319.523438 L 5.847656 223.078125 L 95.40625 325.777344 Z M -15.191406 422.222656 " clip-rule="nonzero"/></clipPath><clipPath id="50b976af53"><path d="M 211.546875 682.234375 L -104.855469 319.402344 L 383.246094 -106.238281 L 699.648438 256.59375 Z M 211.546875 682.234375 " clip-rule="nonzero"/></clipPath><clipPath id="5a07a81548"><path d="M 0.667969 223 L 96 223 L 96 394 L 0.667969 394 Z M 0.667969 223 " clip-rule="nonzero"/></clipPath><clipPath id="db9368d612"><path d="M -15.191406 422.222656 L -104.75 319.523438 L 5.847656 223.078125 L 95.40625 325.777344 Z M -15.191406 422.222656 " clip-rule="nonzero"/></clipPath><clipPath id="6d4e8508b0"><path d="M 211.546875 682.234375 L -104.855469 319.402344 L 383.246094 -106.238281 L 699.648438 256.59375 Z M 211.546875 682.234375 " clip-rule="nonzero"/></clipPath><clipPath id="19afbfc40f"><path d="M 0.667969 223 L 96 223 L 96 366 L 0.667969 366 Z M 0.667969 223 " clip-rule="nonzero"/></clipPath><clipPath id="68d8d33c98"><path d="M -15.191406 422.222656 L -104.75 319.523438 L 5.847656 223.078125 L 95.40625 325.777344 Z M -15.191406 422.222656 " clip-rule="nonzero"/></clipPath><clipPath id="3ab7e5535b"><path d="M 211.546875 682.234375 L -104.855469 319.402344 L 383.246094 -106.238281 L 699.648438 256.59375 Z M 211.546875 682.234375 " clip-rule="nonzero"/></clipPath><clipPath id="17ac806bad"><path d="M 0.667969 223 L 96 223 L 96 339 L 0.667969 339 Z M 0.667969 223 " clip-rule="nonzero"/></clipPath><clipPath id="8ec5130a01"><path d="M -15.191406 422.222656 L -104.75 319.523438 L 5.847656 223.078125 L 95.40625 325.777344 Z M -15.191406 422.222656 " clip-rule="nonzero"/></clipPath><clipPath id="553086d8e2"><path d="M 211.546875 682.234375 L -104.855469 319.402344 L 383.246094 -106.238281 L 699.648438 256.59375 Z M 211.546875 682.234375 " clip-rule="nonzero"/></clipPath><clipPath id="dbcf539839"><path d="M 0.667969 227 L 87 227 L 87 411 L 0.667969 411 Z M 0.667969 227 " clip-rule="nonzero"/></clipPath><clipPath id="c7cdebc3a1"><path d="M -23.863281 411.941406 L -113.421875 309.242188 L -2.824219 212.796875 L 86.734375 315.496094 Z M -23.863281 411.941406 " clip-rule="nonzero"/></clipPath><clipPath id="e562f2b188"><path d="M 202.875 671.953125 L -113.527344 309.121094 L 374.574219 -116.523438 L 690.976562 246.308594 Z M 202.875 671.953125 " clip-rule="nonzero"/></clipPath><clipPath id="615c3caeea"><path d="M 0.667969 212 L 87 212 L 87 383 L 0.667969 383 Z M 0.667969 212 " clip-rule="nonzero"/></clipPath><clipPath id="b5509c62d3"><path d="M -23.863281 411.941406 L -113.421875 309.242188 L -2.824219 212.796875 L 86.734375 315.496094 Z M -23.863281 411.941406 " clip-rule="nonzero"/></clipPath><clipPath id="cf93053e95"><path d="M 202.875 671.953125 L -113.527344 309.121094 L 374.574219 -116.523438 L 690.976562 246.308594 Z M 202.875 671.953125 " clip-rule="nonzero"/></clipPath><clipPath id="5c33e08dc8"><path d="M 0.667969 212 L 87 212 L 87 356 L 0.667969 356 Z M 0.667969 212 " clip-rule="nonzero"/></clipPath><clipPath id="c5ef81e712"><path d="M -23.863281 411.941406 L -113.421875 309.242188 L -2.824219 212.796875 L 86.734375 315.496094 Z M -23.863281 411.941406 " clip-rule="nonzero"/></clipPath><clipPath id="0615260a1a"><path d="M 202.875 671.953125 L -113.527344 309.121094 L 374.574219 -116.523438 L 690.976562 246.308594 Z M 202.875 671.953125 " clip-rule="nonzero"/></clipPath><clipPath id="f1c2eb3abd"><path d="M 0.667969 212 L 87 212 L 87 328 L 0.667969 328 Z M 0.667969 212 " clip-rule="nonzero"/></clipPath><clipPath id="18ad4f0570"><path d="M -23.863281 411.941406 L -113.421875 309.242188 L -2.824219 212.796875 L 86.734375 315.496094 Z M -23.863281 411.941406 " clip-rule="nonzero"/></clipPath><clipPath id="7716106be6"><path d="M 202.875 671.953125 L -113.527344 309.121094 L 374.574219 -116.523438 L 690.976562 246.308594 Z M 202.875 671.953125 " clip-rule="nonzero"/></clipPath><clipPath id="79e1764323"><path d="M 733 10 L 767.332031 10 L 767.332031 194 L 733 194 Z M 733 10 " clip-rule="nonzero"/></clipPath><clipPath id="fc276a88e2"><path d="M 749.195312 194.855469 L 659.640625 92.15625 L 770.238281 -4.289062 L 859.796875 98.410156 Z M 749.195312 194.855469 " clip-rule="nonzero"/></clipPath><clipPath id="1aa439c9af"><path d="M 975.9375 454.867188 L 659.535156 92.035156 L 1147.636719 -333.609375 L 1464.039062 29.222656 Z M 975.9375 454.867188 " clip-rule="nonzero"/></clipPath><clipPath id="f02bc7fbbd"><path d="M 709 0 L 767.332031 0 L 767.332031 166 L 709 166 Z M 709 0 " clip-rule="nonzero"/></clipPath><clipPath id="fc497e00dd"><path d="M 749.195312 194.855469 L 659.640625 92.15625 L 770.238281 -4.289062 L 859.796875 98.410156 Z M 749.195312 194.855469 " clip-rule="nonzero"/></clipPath><clipPath id="f0c55033ee"><path d="M 975.9375 454.867188 L 659.535156 92.035156 L 1147.636719 -333.609375 L 1464.039062 29.222656 Z M 975.9375 454.867188 " clip-rule="nonzero"/></clipPath><clipPath id="fa2e961831"><path d="M 685 0 L 767.332031 0 L 767.332031 139 L 685 139 Z M 685 0 " clip-rule="nonzero"/></clipPath><clipPath id="e89120a2f2"><path d="M 749.195312 194.855469 L 659.640625 92.15625 L 770.238281 -4.289062 L 859.796875 98.410156 Z M 749.195312 194.855469 " clip-rule="nonzero"/></clipPath><clipPath id="aaeb36a2de"><path d="M 975.9375 454.867188 L 659.535156 92.035156 L 1147.636719 -333.609375 L 1464.039062 29.222656 Z M 975.9375 454.867188 " clip-rule="nonzero"/></clipPath><clipPath id="a472ce9734"><path d="M 661 0 L 767.332031 0 L 767.332031 111 L 661 111 Z M 661 0 " clip-rule="nonzero"/></clipPath><clipPath id="8d8336ac01"><path d="M 749.195312 194.855469 L 659.640625 92.15625 L 770.238281 -4.289062 L 859.796875 98.410156 Z M 749.195312 194.855469 " clip-rule="nonzero"/></clipPath><clipPath id="ef072912cd"><path d="M 975.9375 454.867188 L 659.535156 92.035156 L 1147.636719 -333.609375 L 1464.039062 29.222656 Z M 975.9375 454.867188 " clip-rule="nonzero"/></clipPath><clipPath id="bcf2e2b907"><path d="M 747 11 L 767.332031 11 L 767.332031 194 L 747 194 Z M 747 11 " clip-rule="nonzero"/></clipPath><clipPath id="deb7b52565"><path d="M 763.757812 195.382812 L 674.203125 92.6875 L 784.800781 -3.761719 L 874.359375 98.9375 Z M 763.757812 195.382812 " clip-rule="nonzero"/></clipPath><clipPath id="1c48b0c46a"><path d="M 990.5 455.394531 L 674.09375 92.5625 L 1162.199219 -333.078125 L 1478.601562 29.753906 Z M 990.5 455.394531 " clip-rule="nonzero"/></clipPath><clipPath id="2333522fba"><path d="M 723 0 L 767.332031 0 L 767.332031 167 L 723 167 Z M 723 0 " clip-rule="nonzero"/></clipPath><clipPath id="806fd8128d"><path d="M 763.757812 195.382812 L 674.203125 92.6875 L 784.800781 -3.761719 L 874.359375 98.9375 Z M 763.757812 195.382812 " clip-rule="nonzero"/></clipPath><clipPath id="ff262b5eae"><path d="M 990.5 455.394531 L 674.09375 92.5625 L 1162.199219 -333.078125 L 1478.601562 29.753906 Z M 990.5 455.394531 " clip-rule="nonzero"/></clipPath><clipPath id="d0bbbfd8ac"><path d="M 699 0 L 767.332031 0 L 767.332031 139 L 699 139 Z M 699 0 " clip-rule="nonzero"/></clipPath><clipPath id="1c7e52c90b"><path d="M 763.757812 195.382812 L 674.203125 92.6875 L 784.800781 -3.761719 L 874.359375 98.9375 Z M 763.757812 195.382812 " clip-rule="nonzero"/></clipPath><clipPath id="01a1627f38"><path d="M 990.5 455.394531 L 674.09375 92.5625 L 1162.199219 -333.078125 L 1478.601562 29.753906 Z M 990.5 455.394531 " clip-rule="nonzero"/></clipPath><clipPath id="cdfab75b9c"><path d="M 675 0 L 767.332031 0 L 767.332031 112 L 675 112 Z M 675 0 " clip-rule="nonzero"/></clipPath><clipPath id="78dae51ced"><path d="M 763.757812 195.382812 L 674.203125 92.6875 L 784.800781 -3.761719 L 874.359375 98.9375 Z M 763.757812 195.382812 " clip-rule="nonzero"/></clipPath><clipPath id="cebc21f67d"><path d="M 990.5 455.394531 L 674.09375 92.5625 L 1162.199219 -333.078125 L 1478.601562 29.753906 Z M 990.5 455.394531 " clip-rule="nonzero"/></clipPath><clipPath id="7358caf183"><path d="M 38.585938 33.261719 L 111 33.261719 L 111 55 L 38.585938 55 Z M 38.585938 33.261719 " clip-rule="nonzero"/></clipPath><clipPath id="a46d6a92b1"><path d="M 47.539062 35.300781 C 94.308594 36.441406 93.171875 39.25 93.703125 39.402344 C 94.308594 39.554688 95.601562 35.910156 97.042969 34.921875 C 98.484375 33.933594 100.914062 33.402344 102.433594 33.328125 C 103.496094 33.328125 104.179688 33.480469 105.167969 33.933594 C 106.535156 34.617188 108.585938 35.984375 109.496094 37.503906 C 110.40625 39.019531 110.9375 41.148438 110.785156 42.894531 C 110.632812 44.640625 109.417969 46.84375 108.507812 48.058594 C 107.824219 48.890625 107.21875 49.347656 106.230469 49.804688 C 104.863281 50.410156 102.511719 51.019531 100.761719 50.789062 C 99.015625 50.5625 96.96875 49.5 95.753906 48.207031 C 94.539062 46.917969 93.625 44.945312 93.398438 43.199219 C 93.171875 41.453125 93.550781 39.25 94.460938 37.730469 C 95.371094 36.210938 97.347656 34.695312 98.714844 34.011719 C 99.625 33.554688 100.382812 33.402344 101.445312 33.402344 C 102.964844 33.402344 105.546875 34.085938 106.835938 34.769531 C 107.824219 35.300781 108.355469 35.984375 108.964844 36.742188 C 109.570312 37.503906 110.027344 38.1875 110.332031 39.171875 C 110.710938 40.617188 111.46875 43.046875 110.40625 44.792969 C 108.433594 47.90625 100.535156 51.019531 93.171875 52.613281 C 81.402344 55.117188 53.082031 54.964844 45.410156 52.535156 C 42.679688 51.625 41.386719 50.5625 40.324219 48.96875 C 39.261719 47.375 38.65625 44.867188 38.882812 42.96875 C 39.109375 41.070312 40.324219 38.792969 41.765625 37.503906 C 43.210938 36.210938 47.539062 35.300781 47.539062 35.300781 " clip-rule="nonzero"/></clipPath><clipPath id="814e2abc82"><path d="M 0.667969 0 L 137 0 L 137 241 L 0.667969 241 Z M 0.667969 0 " clip-rule="nonzero"/></clipPath><clipPath id="4c24c7a855"><path d="M -148.589844 110.027344 L 29.203125 -36.898438 L 136.621094 93.089844 L -41.171875 240.015625 Z M -148.589844 110.027344 " clip-rule="nonzero"/></clipPath><clipPath id="f9160e209f"><path d="M -148.589844 110.027344 L 29.203125 -36.898438 L 136.621094 93.089844 L -41.171875 240.015625 Z M -148.589844 110.027344 " clip-rule="nonzero"/></clipPath><clipPath id="8129321923"><path d="M 470 0 L 767.332031 0 L 767.332031 157 L 470 157 Z M 470 0 " clip-rule="nonzero"/></clipPath><clipPath id="7bfa6ddfc6"><path d="M 470.035156 27.867188 L 670.535156 -143.363281 L 780.046875 -15.132812 L 579.546875 156.097656 Z M 470.035156 27.867188 " clip-rule="nonzero"/></clipPath><clipPath id="0a57818f86"><path d="M 470.035156 27.867188 L 670.535156 -143.363281 L 780.046875 -15.132812 L 579.546875 156.097656 Z M 470.035156 27.867188 " clip-rule="nonzero"/></clipPath><clipPath id="dff5e6c027"><path d="M 26.648438 0 L 574.746094 0 L 574.746094 78.027344 L 26.648438 78.027344 Z M 26.648438 0 " clip-rule="nonzero"/></clipPath><clipPath id="f423e92b78"><path d="M 151 0 L 409 0 L 409 148 L 151 148 Z M 151 0 " clip-rule="nonzero"/></clipPath><clipPath id="14cda6f139"><path d="M 245.894531 -112.292969 L 408.460938 56.472656 L 313.597656 147.851562 L 151.03125 -20.914062 Z M 245.894531 -112.292969 " clip-rule="nonzero"/></clipPath><clipPath id="8d0a4b1928"><path d="M 245.894531 -112.292969 L 408.460938 56.472656 L 313.597656 147.851562 L 151.03125 -20.914062 Z M 245.894531 -112.292969 " clip-rule="nonzero"/></clipPath><clipPath id="ab7c90b773"><path d="M 373 0 L 642 0 L 642 163 L 373 163 Z M 373 0 " clip-rule="nonzero"/></clipPath><clipPath id="de342a4181"><path d="M 446.28125 -76.839844 L 641.199219 53.21875 L 568.089844 162.785156 L 373.171875 32.722656 Z M 446.28125 -76.839844 " clip-rule="nonzero"/></clipPath><clipPath id="182859a2da"><path d="M 446.28125 -76.839844 L 641.199219 53.21875 L 568.089844 162.785156 L 373.171875 32.722656 Z M 446.28125 -76.839844 " clip-rule="nonzero"/></clipPath><clipPath id="f51abab999"><path d="M 288 0 L 529 0 L 529 106 L 288 106 Z M 288 0 " clip-rule="nonzero"/></clipPath><clipPath id="1c587693ff"><path d="M 288.265625 -25.609375 L 522.320312 -36.898438 L 528.664062 94.667969 L 294.609375 105.953125 Z M 288.265625 -25.609375 " clip-rule="nonzero"/></clipPath><clipPath id="094d132525"><path d="M 288.265625 -25.609375 L 522.320312 -36.898438 L 528.664062 94.667969 L 294.609375 105.953125 Z M 288.265625 -25.609375 " clip-rule="nonzero"/></clipPath><clipPath id="e0f471abdc"><path d="M 47 0 L 301 0 L 301 105 L 47 105 Z M 47 0 " clip-rule="nonzero"/></clipPath><clipPath id="91f6270643"><path d="M 47.222656 -23.804688 L 278.238281 -64.097656 L 300.699219 64.65625 L 69.679688 104.949219 Z M 47.222656 -23.804688 " clip-rule="nonzero"/></clipPath><clipPath id="6eb2d7bf41"><path d="M 47.222656 -23.804688 L 278.238281 -64.097656 L 300.699219 64.65625 L 69.679688 104.949219 Z M 47.222656 -23.804688 " clip-rule="nonzero"/></clipPath><clipPath id="d82382096b"><path d="M 295 0 L 466 0 L 466 112 L 295 112 Z M 295 0 " clip-rule="nonzero"/></clipPath><clipPath id="a105dc5083"><path d="M 295.191406 8.050781 L 460.34375 0.0859375 L 465.320312 103.246094 L 300.167969 111.210938 Z M 295.191406 8.050781 " clip-rule="nonzero"/></clipPath><clipPath id="64e0288ca9"><path d="M 295.191406 8.050781 L 460.34375 0.0859375 L 465.320312 103.246094 L 300.167969 111.210938 Z M 295.191406 8.050781 " clip-rule="nonzero"/></clipPath></defs><g clip-path="url(#f1830caed9)"><path fill="#ffffff" d="M 0.667969 0 L 767.332031 0 L 767.332031 430.5 L 0.667969 430.5 Z M 0.667969 0 " fill-opacity="1" fill-rule="nonzero"/><path fill="#680416" d="M 0.667969 0 L 767.332031 0 L 767.332031 430.5 L 0.667969 430.5 Z M 0.667969 0 " fill-opacity="1" fill-rule="nonzero"/></g><g clip-path="url(#199891437b)"><g clip-path="url(#fd5cee0c11)"><g clip-path="url(#0582ec87a5)"><path fill="#ffffff" d="M -64.925781 7.070312 L 768.808594 -33.136719 L 780.042969 199.808594 L -53.691406 240.015625 Z M -64.925781 7.070312 " fill-opacity="1" fill-rule="nonzero"/></g></g></g><g clip-path="url(#5e508b58c4)"><g clip-path="url(#279c9ae9b5)"><g clip-path="url(#c5cda6c149)"><path fill="#058789" d="M -32.898438 410.734375 L 72.769531 318.589844 C 95.03125 299.171875 128.960938 301.492188 148.375 323.757812 L 156.082031 332.589844 C 194.910156 377.121094 262.769531 381.757812 307.296875 342.929688 L 316.082031 335.269531 C 338.398438 315.808594 372.273438 318.171875 391.691406 340.4375 L 399.351562 349.222656 C 438.179688 393.75 506.039062 398.386719 550.566406 359.558594 L 678.445312 248.042969 L 696.054688 268.234375 L 568.175781 379.75 C 512.542969 428.265625 427.714844 422.515625 379.15625 366.832031 L 371.496094 358.046875 C 361.765625 346.886719 344.847656 345.730469 333.691406 355.460938 L 324.90625 363.121094 C 269.222656 411.683594 184.402344 405.835938 135.886719 350.203125 L 128.183594 341.367188 C 118.496094 330.261719 101.535156 329.054688 90.378906 338.78125 L -15.289062 430.925781 Z M -32.898438 410.734375 " fill-opacity="1" fill-rule="nonzero"/></g></g></g><g clip-path="url(#51ae9bb964)"><g clip-path="url(#716afbcf8c)"><g clip-path="url(#c4ef882358)"><path fill="#cdaeff" d="M -56.933594 383.167969 L 56.152344 284.550781 C 89.523438 255.453125 140.417969 258.882812 169.5625 292.304688 L 177.226562 301.089844 C 206.367188 334.511719 257.214844 337.984375 290.636719 308.839844 L 299.421875 301.179688 C 332.84375 272.035156 383.734375 275.5625 412.835938 308.933594 L 420.539062 317.765625 C 449.640625 351.136719 500.53125 354.664062 533.949219 325.519531 L 654.410156 220.476562 L 672.019531 240.671875 L 551.5625 345.714844 C 507.03125 384.542969 439.175781 379.90625 400.34375 335.378906 L 392.640625 326.542969 C 373.226562 304.277344 339.296875 301.960938 317.03125 321.375 L 308.246094 329.035156 C 263.667969 367.910156 195.859375 363.226562 157.03125 318.699219 L 149.371094 309.914062 C 129.957031 287.652344 96.027344 285.332031 73.761719 304.746094 L -39.324219 403.363281 Z M -56.933594 383.167969 " fill-opacity="1" fill-rule="nonzero"/></g></g></g><g clip-path="url(#ba3c0943e7)"><g clip-path="url(#5cd6fe92f8)"><g clip-path="url(#9264db85c6)"><path fill="#d54b1a" d="M -81.015625 355.554688 L 39.441406 250.507812 C 83.96875 211.679688 151.828125 216.316406 190.65625 260.84375 L 198.363281 269.679688 C 217.777344 291.945312 251.707031 294.261719 273.96875 274.847656 L 282.753906 267.1875 C 327.332031 228.3125 395.140625 232.996094 433.972656 277.523438 L 441.632812 286.308594 C 461.046875 308.574219 494.976562 310.890625 517.238281 291.476562 L 630.328125 192.859375 L 647.9375 213.054688 L 534.851562 311.671875 C 501.480469 340.773438 450.582031 337.339844 421.4375 303.917969 L 413.777344 295.132812 C 384.632812 261.714844 333.785156 258.238281 300.363281 287.382812 L 291.578125 295.042969 C 258.160156 324.1875 207.269531 320.660156 178.167969 287.289062 L 170.464844 278.457031 C 141.363281 245.085938 90.472656 241.558594 57.050781 270.703125 L -63.40625 375.746094 Z M -81.015625 355.554688 " fill-opacity="1" fill-rule="nonzero"/></g></g></g><g clip-path="url(#b220159940)"><g clip-path="url(#8973e1fb66)"><g clip-path="url(#e712cf3d4b)"><path fill="#e3a72f" d="M -105.054688 327.988281 L 22.824219 216.472656 C 78.460938 167.957031 163.285156 173.707031 211.84375 229.390625 L 219.503906 238.175781 C 229.234375 249.335938 246.152344 250.492188 257.308594 240.761719 L 266.09375 233.101562 C 321.777344 184.542969 406.597656 190.386719 455.113281 246.019531 L 462.820312 254.855469 C 472.503906 265.964844 489.464844 267.171875 500.625 257.441406 L 606.289062 165.296875 L 623.898438 185.488281 L 518.234375 277.632812 C 495.96875 297.050781 462.039062 294.730469 442.625 272.464844 L 434.921875 263.632812 C 396.089844 219.101562 328.234375 214.464844 283.703125 253.296875 L 274.921875 260.957031 C 252.605469 280.414062 218.726562 278.050781 199.3125 255.785156 L 191.652344 247.003906 C 152.820312 202.476562 84.960938 197.835938 40.433594 236.667969 L -87.445312 348.183594 Z M -105.054688 327.988281 " fill-opacity="1" fill-rule="nonzero"/></g></g></g><g clip-path="url(#29540fef76)"><g clip-path="url(#73ef28829a)"><g clip-path="url(#6707028c3d)"><path fill="#058789" d="M 27.050781 309.574219 L 132.71875 217.429688 C 154.980469 198.011719 188.910156 200.332031 208.324219 222.597656 L 216.03125 231.429688 C 254.859375 275.960938 322.71875 280.597656 367.246094 241.769531 L 376.03125 234.109375 C 398.34375 214.648438 432.222656 217.011719 451.640625 239.277344 L 459.300781 248.058594 C 498.128906 292.589844 565.988281 297.226562 610.515625 258.398438 L 738.394531 146.882812 L 756.003906 167.074219 L 628.125 278.589844 C 572.492188 327.105469 487.664062 321.355469 439.105469 265.671875 L 431.445312 256.886719 C 421.714844 245.726562 404.796875 244.570312 393.640625 254.300781 L 384.855469 261.960938 C 329.171875 310.519531 244.351562 304.675781 195.835938 249.042969 L 188.132812 240.207031 C 178.445312 229.101562 161.484375 227.894531 150.328125 237.621094 L 44.660156 329.765625 Z M 27.050781 309.574219 " fill-opacity="1" fill-rule="nonzero"/></g></g></g><g clip-path="url(#e1397cfe9f)"><g clip-path="url(#3dc076a102)"><g clip-path="url(#d8214ea235)"><path fill="#cdaeff" d="M 3.011719 282.007812 L 116.101562 183.390625 C 149.472656 154.292969 200.367188 157.722656 229.511719 191.144531 L 237.171875 199.929688 C 266.316406 233.351562 317.164062 236.824219 350.585938 207.679688 L 359.371094 200.019531 C 392.792969 170.875 443.683594 174.402344 472.785156 207.773438 L 480.488281 216.605469 C 509.589844 249.976562 560.476562 253.503906 593.898438 224.359375 L 714.359375 119.316406 L 731.96875 139.511719 L 611.511719 244.554688 C 566.980469 283.382812 499.125 278.746094 460.292969 234.21875 L 452.589844 225.382812 C 433.175781 203.117188 399.246094 200.800781 376.980469 220.214844 L 368.195312 227.875 C 323.617188 266.75 255.808594 262.066406 216.980469 217.539062 L 209.320312 208.753906 C 189.902344 186.492188 155.976562 184.171875 133.710938 203.585938 L 20.625 302.203125 Z M 3.011719 282.007812 " fill-opacity="1" fill-rule="nonzero"/></g></g></g><g clip-path="url(#9a68b16400)"><g clip-path="url(#b411d08c18)"><g clip-path="url(#5248790539)"><path fill="#d54b1a" d="M -21.066406 254.394531 L 99.390625 149.347656 C 143.917969 110.519531 211.777344 115.15625 250.605469 159.683594 L 258.308594 168.519531 C 277.726562 190.785156 311.65625 193.101562 333.917969 173.6875 L 342.703125 166.027344 C 387.28125 127.152344 455.089844 131.835938 493.921875 176.363281 L 501.582031 185.148438 C 520.996094 207.414062 554.925781 209.730469 577.1875 190.316406 L 690.277344 91.699219 L 707.886719 111.894531 L 594.800781 210.511719 C 561.429688 239.613281 510.53125 236.179688 481.386719 202.757812 L 473.726562 193.972656 C 444.582031 160.554688 393.734375 157.078125 360.3125 186.222656 L 351.527344 193.882812 C 318.109375 223.027344 267.21875 219.5 238.117188 186.128906 L 230.410156 177.296875 C 201.3125 143.925781 150.421875 140.398438 117 169.542969 L -3.457031 274.585938 Z M -21.066406 254.394531 " fill-opacity="1" fill-rule="nonzero"/></g></g></g><g clip-path="url(#882181f7f9)"><g clip-path="url(#7f7241ec24)"><g clip-path="url(#f9dfd70da3)"><path fill="#e3a72f" d="M -45.105469 226.828125 L 82.773438 115.3125 C 138.40625 66.796875 223.234375 72.546875 271.792969 128.230469 L 279.453125 137.015625 C 289.183594 148.175781 306.101562 149.332031 317.257812 139.601562 L 326.042969 131.941406 C 381.726562 83.382812 466.546875 89.226562 515.0625 144.859375 L 522.769531 153.695312 C 532.453125 164.800781 549.414062 166.007812 560.570312 156.28125 L 666.238281 64.136719 L 683.847656 84.328125 L 578.183594 176.472656 C 555.917969 195.890625 521.988281 193.570312 502.574219 171.304688 L 494.871094 162.472656 C 456.039062 117.941406 388.179688 113.304688 343.652344 152.136719 L 334.867188 159.796875 C 312.554688 179.253906 278.675781 176.890625 259.261719 154.625 L 251.601562 145.84375 C 212.769531 101.3125 144.910156 96.675781 100.382812 135.503906 L -27.496094 247.023438 Z M -45.105469 226.828125 " fill-opacity="1" fill-rule="nonzero"/></g></g></g><g clip-path="url(#cfb0481461)"><g clip-path="url(#f18e78675c)"><g clip-path="url(#e4baa280e9)"><path fill="#058789" d="M 49.34375 339.078125 L 155.011719 246.933594 C 177.273438 227.519531 211.203125 229.835938 230.621094 252.101562 L 238.324219 260.9375 C 277.152344 305.464844 345.011719 310.101562 389.539062 271.273438 L 398.324219 263.613281 C 420.640625 244.152344 454.515625 246.515625 473.933594 268.78125 L 481.59375 277.566406 C 520.421875 322.09375 588.28125 326.730469 632.808594 287.902344 L 760.6875 176.386719 L 778.300781 196.578125 L 650.417969 308.09375 C 594.785156 356.609375 509.957031 350.859375 461.398438 295.175781 L 453.738281 286.390625 C 444.007812 275.234375 427.089844 274.078125 415.933594 283.804688 L 407.148438 291.464844 C 351.464844 340.027344 266.644531 334.179688 218.128906 278.546875 L 210.425781 269.710938 C 200.738281 258.605469 183.777344 257.398438 172.621094 267.128906 L 66.957031 359.273438 Z M 49.34375 339.078125 " fill-opacity="1" fill-rule="nonzero"/></g></g></g><g clip-path="url(#6f8d20f52b)"><g clip-path="url(#b6ff2b1036)"><g clip-path="url(#50df2da49c)"><path fill="#cdaeff" d="M 25.308594 311.511719 L 138.394531 212.894531 C 171.765625 183.796875 222.664062 187.226562 251.804688 220.648438 L 259.46875 229.433594 C 288.613281 262.855469 339.457031 266.328125 372.878906 237.183594 L 381.664062 229.523438 C 415.085938 200.378906 465.976562 203.90625 495.078125 237.277344 L 502.78125 246.113281 C 531.882812 279.484375 582.773438 283.007812 616.195312 253.863281 L 736.652344 148.820312 L 754.261719 169.015625 L 633.804688 274.058594 C 589.273438 312.886719 521.417969 308.25 482.585938 263.722656 L 474.882812 254.886719 C 455.46875 232.621094 421.539062 230.304688 399.273438 249.71875 L 390.488281 257.378906 C 345.910156 296.253906 278.101562 291.570312 239.273438 247.042969 L 231.613281 238.257812 C 212.199219 215.996094 178.269531 213.675781 156.003906 233.089844 L 42.917969 331.707031 Z M 25.308594 311.511719 " fill-opacity="1" fill-rule="nonzero"/></g></g></g><g clip-path="url(#11c8a53350)"><g clip-path="url(#917f40237a)"><g clip-path="url(#02471bf99a)"><path fill="#d54b1a" d="M 1.226562 283.898438 L 121.683594 178.851562 C 166.210938 140.023438 234.070312 144.660156 272.898438 189.191406 L 280.605469 198.023438 C 300.019531 220.289062 333.949219 222.609375 356.210938 203.191406 L 364.996094 195.53125 C 409.574219 156.65625 477.382812 161.339844 516.214844 205.867188 L 523.875 214.652344 C 543.289062 236.917969 577.21875 239.238281 599.484375 219.820312 L 712.570312 121.207031 L 730.179688 141.398438 L 617.09375 240.015625 C 583.722656 269.117188 532.824219 265.683594 503.679688 232.261719 L 496.019531 223.476562 C 466.875 190.058594 416.027344 186.582031 382.605469 215.726562 L 373.824219 223.386719 C 340.402344 252.53125 289.511719 249.003906 260.410156 215.632812 L 252.707031 206.800781 C 223.605469 173.429688 172.714844 169.902344 139.292969 199.046875 L 18.835938 304.089844 Z M 1.226562 283.898438 " fill-opacity="1" fill-rule="nonzero"/></g></g></g><g clip-path="url(#b2b04de650)"><g clip-path="url(#72e5a19142)"><g clip-path="url(#355dbba3af)"><path fill="#e3a72f" d="M -22.8125 256.332031 L 105.066406 144.816406 C 160.703125 96.300781 245.527344 102.050781 294.085938 157.738281 L 301.75 166.519531 C 311.476562 177.679688 328.394531 178.835938 339.550781 169.105469 L 348.335938 161.445312 C 404.023438 112.886719 488.84375 118.730469 537.355469 174.367188 L 545.0625 183.199219 C 554.746094 194.308594 571.707031 195.515625 582.867188 185.785156 L 688.53125 93.640625 L 706.140625 113.832031 L 600.476562 205.980469 C 578.210938 225.394531 544.28125 223.074219 524.867188 200.808594 L 517.164062 191.976562 C 478.332031 147.449219 410.476562 142.808594 365.945312 181.640625 L 357.164062 189.300781 C 334.847656 208.757812 300.96875 206.394531 281.554688 184.132812 L 273.894531 175.347656 C 235.0625 130.820312 167.203125 126.179688 122.675781 165.011719 L -5.203125 276.527344 Z M -22.8125 256.332031 " fill-opacity="1" fill-rule="nonzero"/></g></g></g><g clip-path="url(#df4d60ef70)"><g clip-path="url(#cd62bb3f7b)"><g clip-path="url(#519ceb768c)"><path fill="#058789" d="M 44.773438 316.667969 L 150.441406 224.523438 C 172.703125 205.105469 206.632812 207.425781 226.046875 229.691406 L 233.753906 238.523438 C 272.582031 283.054688 340.441406 287.691406 384.96875 248.859375 L 393.753906 241.203125 C 416.066406 221.742188 449.945312 224.105469 469.363281 246.371094 L 477.023438 255.152344 C 515.851562 299.683594 583.710938 304.320312 628.238281 265.492188 L 756.117188 153.976562 L 773.726562 174.167969 L 645.847656 285.683594 C 590.214844 334.199219 505.386719 328.449219 456.828125 272.765625 L 449.167969 263.980469 C 439.4375 252.820312 422.519531 251.664062 411.363281 261.394531 L 402.578125 269.054688 C 346.894531 317.613281 262.074219 311.769531 213.558594 256.136719 L 205.855469 247.300781 C 196.167969 236.195312 179.207031 234.988281 168.050781 244.714844 L 62.382812 336.859375 Z M 44.773438 316.667969 " fill-opacity="1" fill-rule="nonzero"/></g></g></g><g clip-path="url(#f779a536c8)"><g clip-path="url(#39789fc396)"><g clip-path="url(#01dc3ed24d)"><path fill="#cdaeff" d="M 20.734375 289.101562 L 133.824219 190.484375 C 167.195312 161.382812 218.089844 164.816406 247.234375 198.238281 L 254.894531 207.023438 C 284.039062 240.441406 334.886719 243.917969 368.308594 214.773438 L 377.09375 207.113281 C 410.515625 177.96875 461.40625 181.496094 490.503906 214.867188 L 498.210938 223.699219 C 527.3125 257.070312 578.199219 260.597656 611.621094 231.453125 L 732.082031 126.410156 L 749.691406 146.601562 L 629.234375 251.648438 C 584.703125 290.476562 516.847656 285.839844 478.015625 241.3125 L 470.3125 232.476562 C 450.898438 210.210938 416.96875 207.894531 394.703125 227.308594 L 385.917969 234.96875 C 341.339844 273.84375 273.53125 269.160156 234.703125 224.632812 L 227.042969 215.847656 C 207.625 193.582031 173.699219 191.265625 151.433594 210.679688 L 38.347656 309.296875 Z M 20.734375 289.101562 " fill-opacity="1" fill-rule="nonzero"/></g></g></g><g clip-path="url(#50415596b3)"><g clip-path="url(#b739def48a)"><g clip-path="url(#acba8c3773)"><path fill="#d54b1a" d="M -3.34375 261.484375 L 117.113281 156.441406 C 161.640625 117.613281 229.5 122.25 268.328125 166.777344 L 276.03125 175.613281 C 295.449219 197.878906 329.378906 200.195312 351.640625 180.78125 L 360.425781 173.121094 C 405.003906 134.246094 472.8125 138.929688 511.644531 183.457031 L 519.304688 192.242188 C 538.71875 214.503906 572.648438 216.824219 594.910156 197.410156 L 708 98.792969 L 725.609375 118.988281 L 612.523438 217.605469 C 579.152344 246.707031 528.253906 243.273438 499.109375 209.851562 L 491.449219 201.066406 C 462.304688 167.648438 411.457031 164.171875 378.035156 193.316406 L 369.25 200.976562 C 335.832031 230.121094 284.941406 226.59375 255.839844 193.222656 L 248.132812 184.390625 C 219.035156 151.019531 168.144531 147.492188 134.722656 176.636719 L 14.265625 281.679688 Z M -3.34375 261.484375 " fill-opacity="1" fill-rule="nonzero"/></g></g></g><g clip-path="url(#ad248dcac3)"><g clip-path="url(#98677d2168)"><g clip-path="url(#4d251fa032)"><path fill="#e3a72f" d="M -27.382812 233.921875 L 100.496094 122.40625 C 156.128906 73.890625 240.957031 79.640625 289.515625 135.324219 L 297.175781 144.109375 C 306.90625 155.269531 323.824219 156.425781 334.980469 146.695312 L 343.765625 139.035156 C 399.449219 90.476562 484.269531 96.320312 532.785156 151.953125 L 540.492188 160.789062 C 550.175781 171.894531 567.136719 173.101562 578.292969 163.375 L 683.960938 71.230469 L 701.570312 91.421875 L 595.90625 183.566406 C 573.640625 202.984375 539.710938 200.664062 520.296875 178.398438 L 512.59375 169.566406 C 473.761719 125.035156 405.902344 120.398438 361.375 159.226562 L 352.589844 166.886719 C 330.277344 186.347656 296.398438 183.984375 276.984375 161.71875 L 269.324219 152.9375 C 230.492188 108.40625 162.632812 103.769531 118.105469 142.597656 L -9.773438 254.113281 Z M -27.382812 233.921875 " fill-opacity="1" fill-rule="nonzero"/></g></g></g><g clip-path="url(#c7eaac3558)"><g clip-path="url(#b6b15105e2)"><g clip-path="url(#50b976af53)"><path fill="#058789" d="M -31.0625 400.566406 L 74.601562 308.421875 C 96.867188 289.007812 130.796875 291.324219 150.210938 313.589844 L 157.914062 322.425781 C 196.746094 366.953125 264.601562 371.589844 309.132812 332.761719 L 317.914062 325.101562 C 340.230469 305.640625 374.109375 308.003906 393.523438 330.269531 L 401.183594 339.054688 C 440.015625 383.582031 507.871094 388.21875 552.402344 349.390625 L 680.28125 237.875 L 697.890625 258.066406 L 570.011719 369.582031 C 514.375 418.097656 429.550781 412.347656 380.988281 356.664062 L 373.328125 347.878906 C 363.601562 336.722656 346.683594 335.566406 335.523438 345.292969 L 326.742188 352.953125 C 271.054688 401.515625 186.234375 395.667969 137.71875 340.035156 L 130.015625 331.199219 C 120.332031 320.09375 103.371094 318.886719 92.210938 328.613281 L -13.453125 420.761719 Z M -31.0625 400.566406 " fill-opacity="1" fill-rule="nonzero"/></g></g></g><g clip-path="url(#5a07a81548)"><g clip-path="url(#db9368d612)"><g clip-path="url(#6d4e8508b0)"><path fill="#cdaeff" d="M -55.101562 373 L 57.984375 274.382812 C 91.355469 245.285156 142.253906 248.714844 171.398438 282.136719 L 179.058594 290.921875 C 208.203125 324.34375 259.050781 327.816406 292.46875 298.671875 L 301.253906 291.011719 C 334.675781 261.867188 385.566406 265.394531 414.667969 298.765625 L 422.371094 307.601562 C 451.472656 340.96875 502.363281 344.496094 535.785156 315.351562 L 656.242188 210.308594 L 673.851562 230.503906 L 553.394531 335.546875 C 508.867188 374.375 441.007812 369.738281 402.179688 325.210938 L 394.472656 316.375 C 375.058594 294.109375 341.128906 291.792969 318.867188 311.207031 L 310.082031 318.867188 C 265.503906 357.742188 197.695312 353.058594 158.863281 308.53125 L 151.203125 299.746094 C 131.789062 277.484375 97.859375 275.164062 75.59375 294.578125 L -37.492188 393.195312 Z M -55.101562 373 " fill-opacity="1" fill-rule="nonzero"/></g></g></g><g clip-path="url(#19afbfc40f)"><g clip-path="url(#68d8d33c98)"><g clip-path="url(#3ab7e5535b)"><path fill="#d54b1a" d="M -79.183594 345.386719 L 41.273438 240.339844 C 85.800781 201.511719 153.660156 206.148438 192.492188 250.679688 L 200.195312 259.511719 C 219.609375 281.777344 253.539062 284.09375 275.804688 264.679688 L 284.589844 257.019531 C 329.167969 218.144531 396.976562 222.828125 435.804688 267.355469 L 443.464844 276.140625 C 462.878906 298.40625 496.808594 300.722656 519.074219 281.308594 L 632.160156 182.691406 L 649.769531 202.886719 L 536.683594 301.503906 C 503.3125 330.605469 452.414062 327.171875 423.269531 293.75 L 415.609375 284.964844 C 386.464844 251.546875 335.617188 248.070312 302.199219 277.214844 L 293.414062 284.875 C 259.992188 314.019531 209.101562 310.492188 180 277.121094 L 172.296875 268.289062 C 143.195312 234.917969 92.304688 231.390625 58.882812 260.535156 L -61.574219 365.578125 Z M -79.183594 345.386719 " fill-opacity="1" fill-rule="nonzero"/></g></g></g><g clip-path="url(#17ac806bad)"><g clip-path="url(#8ec5130a01)"><g clip-path="url(#553086d8e2)"><path fill="#e3a72f" d="M -103.222656 317.820312 L 24.65625 206.304688 C 80.292969 157.789062 165.121094 163.539062 213.679688 219.226562 L 221.339844 228.007812 C 231.070312 239.167969 247.984375 240.324219 259.144531 230.59375 L 267.925781 222.933594 C 323.613281 174.375 408.433594 180.21875 456.949219 235.855469 L 464.652344 244.6875 C 474.339844 255.796875 491.300781 257.003906 502.457031 247.273438 L 608.121094 155.128906 L 625.734375 175.320312 L 520.066406 267.464844 C 497.800781 286.882812 463.875 284.5625 444.457031 262.296875 L 436.753906 253.464844 C 397.925781 208.933594 330.066406 204.296875 285.539062 243.128906 L 276.753906 250.789062 C 254.4375 270.246094 220.558594 267.882812 201.144531 245.621094 L 193.484375 236.835938 C 154.65625 192.308594 86.796875 187.667969 42.269531 226.5 L -85.613281 338.015625 Z M -103.222656 317.820312 " fill-opacity="1" fill-rule="nonzero"/></g></g></g><g clip-path="url(#dbcf539839)"><g clip-path="url(#c7cdebc3a1)"><g clip-path="url(#e562f2b188)"><path fill="#058789" d="M -39.734375 390.28125 L 65.929688 298.136719 C 88.195312 278.722656 122.121094 281.042969 141.539062 303.304688 L 149.242188 312.140625 C 188.074219 356.667969 255.929688 361.308594 300.457031 322.476562 L 309.242188 314.816406 C 331.558594 295.355469 365.4375 297.71875 384.851562 319.984375 L 392.511719 328.769531 C 431.34375 373.296875 499.199219 377.933594 543.730469 339.105469 L 671.609375 227.589844 L 689.21875 247.785156 L 561.339844 359.300781 C 505.703125 407.816406 420.878906 402.0625 372.316406 346.378906 L 364.65625 337.59375 C 354.925781 326.4375 338.011719 325.28125 326.851562 335.011719 L 318.070312 342.671875 C 262.382812 391.230469 177.5625 385.382812 129.046875 329.75 L 121.34375 320.914062 C 111.660156 309.808594 94.695312 308.601562 83.539062 318.332031 L -22.125 410.476562 Z M -39.734375 390.28125 " fill-opacity="1" fill-rule="nonzero"/></g></g></g><g clip-path="url(#615c3caeea)"><g clip-path="url(#b5509c62d3)"><g clip-path="url(#cf93053e95)"><path fill="#cdaeff" d="M -63.773438 362.714844 L 49.3125 264.101562 C 82.683594 235 133.582031 238.433594 162.726562 271.851562 L 170.386719 280.636719 C 199.53125 314.058594 250.378906 317.535156 283.796875 288.390625 L 292.582031 280.730469 C 326.003906 251.585938 376.894531 255.109375 405.996094 288.480469 L 413.699219 297.316406 C 442.800781 330.6875 493.691406 334.214844 527.113281 305.066406 L 647.570312 200.023438 L 665.179688 220.21875 L 544.722656 325.261719 C 500.195312 364.09375 432.335938 359.453125 393.503906 314.925781 L 385.800781 306.089844 C 366.386719 283.828125 332.457031 281.507812 310.191406 300.921875 L 301.410156 308.582031 C 256.832031 347.457031 189.023438 342.773438 150.191406 298.246094 L 142.53125 289.460938 C 123.117188 267.199219 89.1875 264.878906 66.921875 284.292969 L -46.164062 382.910156 Z M -63.773438 362.714844 " fill-opacity="1" fill-rule="nonzero"/></g></g></g><g clip-path="url(#5c33e08dc8)"><g clip-path="url(#c5ef81e712)"><g clip-path="url(#0615260a1a)"><path fill="#d54b1a" d="M -87.855469 335.101562 L 32.601562 230.058594 C 77.128906 191.226562 144.988281 195.867188 183.820312 240.394531 L 191.523438 249.230469 C 210.9375 271.492188 244.867188 273.8125 267.132812 254.398438 L 275.914062 246.738281 C 320.496094 207.863281 388.300781 212.546875 427.132812 257.074219 L 434.792969 265.859375 C 454.207031 288.121094 488.136719 290.441406 510.402344 271.027344 L 623.488281 172.410156 L 641.097656 192.601562 L 528.011719 291.21875 C 494.640625 320.320312 443.742188 316.886719 414.597656 283.46875 L 406.9375 274.683594 C 377.792969 241.261719 326.945312 237.785156 293.527344 266.929688 L 284.742188 274.589844 C 251.320312 303.734375 200.429688 300.210938 171.328125 266.839844 L 163.625 258.003906 C 134.523438 224.632812 83.632812 221.105469 50.210938 250.25 L -70.246094 355.296875 Z M -87.855469 335.101562 " fill-opacity="1" fill-rule="nonzero"/></g></g></g><g clip-path="url(#f1c2eb3abd)"><g clip-path="url(#18ad4f0570)"><g clip-path="url(#7716106be6)"><path fill="#e3a72f" d="M -111.894531 307.535156 L 15.984375 196.019531 C 71.621094 147.503906 156.449219 153.257812 205.007812 208.941406 L 212.667969 217.726562 C 222.398438 228.882812 239.3125 230.039062 250.472656 220.308594 L 259.253906 212.648438 C 314.941406 164.089844 399.761719 169.933594 448.277344 225.570312 L 455.980469 234.40625 C 465.664062 245.511719 482.628906 246.71875 493.785156 236.988281 L 599.449219 144.84375 L 617.058594 165.039062 L 511.394531 257.183594 C 489.128906 276.597656 455.203125 274.277344 435.785156 252.015625 L 428.082031 243.179688 C 389.25 198.652344 321.394531 194.011719 276.867188 232.84375 L 268.082031 240.503906 C 245.765625 259.964844 211.886719 257.601562 192.472656 235.335938 L 184.8125 226.550781 C 145.984375 182.023438 78.125 177.382812 33.597656 216.214844 L -94.285156 327.730469 Z M -111.894531 307.535156 " fill-opacity="1" fill-rule="nonzero"/></g></g></g><g clip-path="url(#79e1764323)"><g clip-path="url(#fc276a88e2)"><g clip-path="url(#1aa439c9af)"><path fill="#058789" d="M 733.324219 173.195312 L 838.992188 81.050781 C 861.253906 61.636719 895.183594 63.957031 914.597656 86.21875 L 922.304688 95.054688 C 961.132812 139.582031 1028.992188 144.222656 1073.519531 105.390625 L 1082.304688 97.730469 C 1104.621094 78.269531 1138.496094 80.632812 1157.914062 102.898438 L 1165.574219 111.683594 C 1204.402344 156.210938 1272.261719 160.847656 1316.789062 122.019531 L 1444.667969 10.503906 L 1462.28125 30.699219 L 1334.398438 142.214844 C 1278.765625 190.730469 1193.9375 184.976562 1145.378906 129.292969 L 1137.71875 120.507812 C 1127.988281 109.351562 1111.070312 108.195312 1099.914062 117.925781 L 1091.128906 125.585938 C 1035.445312 174.144531 950.625 168.296875 902.109375 112.664062 L 894.40625 103.828125 C 884.71875 92.722656 867.757812 91.515625 856.601562 101.246094 L 750.933594 193.390625 Z M 733.324219 173.195312 " fill-opacity="1" fill-rule="nonzero"/></g></g></g><g clip-path="url(#f02bc7fbbd)"><g clip-path="url(#fc497e00dd)"><g clip-path="url(#f0c55033ee)"><path fill="#cdaeff" d="M 709.289062 145.628906 L 822.375 47.015625 C 855.746094 17.914062 906.644531 21.347656 935.785156 54.765625 L 943.449219 63.550781 C 972.59375 96.972656 1023.4375 100.449219 1056.859375 71.304688 L 1065.644531 63.644531 C 1099.066406 34.5 1149.957031 38.023438 1179.058594 71.394531 L 1186.761719 80.230469 C 1215.863281 113.601562 1266.753906 117.128906 1300.175781 87.980469 L 1420.632812 -17.0625 L 1438.242188 3.132812 L 1317.785156 108.175781 C 1273.253906 147.007812 1205.398438 142.367188 1166.566406 97.839844 L 1158.863281 89.003906 C 1139.449219 66.742188 1105.519531 64.421875 1083.253906 83.835938 L 1074.46875 91.496094 C 1029.890625 130.371094 962.082031 125.6875 923.253906 81.160156 L 915.59375 72.375 C 896.179688 50.113281 862.25 47.792969 839.984375 67.207031 L 726.898438 165.824219 Z M 709.289062 145.628906 " fill-opacity="1" fill-rule="nonzero"/></g></g></g><g clip-path="url(#fa2e961831)"><g clip-path="url(#e89120a2f2)"><g clip-path="url(#aaeb36a2de)"><path fill="#d54b1a" d="M 685.207031 118.015625 L 805.664062 12.972656 C 850.191406 -25.859375 918.050781 -21.21875 956.878906 23.308594 L 964.585938 32.144531 C 984 54.40625 1017.929688 56.726562 1040.191406 37.3125 L 1048.976562 29.652344 C 1093.554688 -9.222656 1161.363281 -4.539062 1200.195312 39.988281 L 1207.855469 48.769531 C 1227.269531 71.035156 1261.199219 73.355469 1283.460938 53.941406 L 1396.550781 -44.675781 L 1414.160156 -24.484375 L 1301.074219 74.132812 C 1267.703125 103.234375 1216.804688 99.800781 1187.660156 66.382812 L 1180 57.597656 C 1150.855469 24.175781 1100.007812 20.699219 1066.585938 49.84375 L 1057.800781 57.503906 C 1024.382812 86.648438 973.492188 83.125 944.390625 49.753906 L 936.6875 40.917969 C 907.585938 7.546875 856.695312 4.019531 823.273438 33.164062 L 702.816406 138.210938 Z M 685.207031 118.015625 " fill-opacity="1" fill-rule="nonzero"/></g></g></g><g clip-path="url(#a472ce9734)"><g clip-path="url(#8d8336ac01)"><g clip-path="url(#ef072912cd)"><path fill="#e3a72f" d="M 661.167969 90.449219 L 789.046875 -21.066406 C 844.683594 -69.582031 929.507812 -63.828125 978.066406 -8.144531 L 985.730469 0.640625 C 995.457031 11.796875 1012.375 12.953125 1023.53125 3.222656 L 1032.316406 -4.4375 C 1088.003906 -52.996094 1172.824219 -47.152344 1221.335938 8.484375 L 1229.042969 17.320312 C 1238.726562 28.425781 1255.6875 29.632812 1266.847656 19.902344 L 1372.511719 -72.242188 L 1390.121094 -52.046875 L 1284.457031 40.097656 C 1262.191406 59.511719 1228.261719 57.191406 1208.847656 34.929688 L 1201.144531 26.09375 C 1162.3125 -18.433594 1094.457031 -23.074219 1049.925781 15.757812 L 1041.144531 23.417969 C 1018.828125 42.878906 984.949219 40.515625 965.535156 18.25 L 957.875 9.464844 C 919.042969 -35.0625 851.183594 -39.703125 806.65625 -0.871094 L 678.777344 110.644531 Z M 661.167969 90.449219 " fill-opacity="1" fill-rule="nonzero"/></g></g></g><g clip-path="url(#bcf2e2b907)"><g clip-path="url(#deb7b52565)"><g clip-path="url(#1c48b0c46a)"><path fill="#058789" d="M 747.886719 173.726562 L 853.554688 81.582031 C 875.816406 62.167969 909.746094 64.484375 929.160156 86.75 L 936.867188 95.585938 C 975.695312 140.113281 1043.554688 144.75 1088.082031 105.921875 L 1096.867188 98.261719 C 1119.179688 78.800781 1153.058594 81.164062 1172.476562 103.429688 L 1180.136719 112.214844 C 1218.964844 156.742188 1286.824219 161.378906 1331.351562 122.550781 L 1459.230469 11.035156 L 1476.839844 31.226562 L 1348.960938 142.742188 C 1293.328125 191.257812 1208.5 185.507812 1159.941406 129.824219 L 1152.28125 121.039062 C 1142.550781 109.882812 1125.632812 108.726562 1114.476562 118.453125 L 1105.691406 126.113281 C 1050.007812 174.675781 965.1875 168.828125 916.671875 113.195312 L 908.96875 104.359375 C 899.28125 93.253906 882.320312 92.046875 871.164062 101.773438 L 765.496094 193.921875 Z M 747.886719 173.726562 " fill-opacity="1" fill-rule="nonzero"/></g></g></g><g clip-path="url(#2333522fba)"><g clip-path="url(#806fd8128d)"><g clip-path="url(#ff262b5eae)"><path fill="#cdaeff" d="M 723.851562 146.160156 L 836.9375 47.542969 C 870.308594 18.445312 921.203125 21.875 950.347656 55.296875 L 958.007812 64.082031 C 987.152344 97.503906 1038 100.976562 1071.421875 71.832031 L 1080.207031 64.171875 C 1113.628906 35.027344 1164.519531 38.554688 1193.621094 71.925781 L 1201.324219 80.761719 C 1230.425781 114.132812 1281.316406 117.65625 1314.734375 88.511719 L 1435.195312 -16.53125 L 1452.804688 3.664062 L 1332.347656 108.707031 C 1287.816406 147.535156 1219.960938 142.898438 1181.128906 98.371094 L 1173.425781 89.535156 C 1154.011719 67.269531 1120.082031 64.953125 1097.816406 84.367188 L 1089.03125 92.027344 C 1044.453125 130.902344 976.644531 126.21875 937.816406 81.691406 L 930.15625 72.90625 C 910.742188 50.644531 876.8125 48.324219 854.546875 67.738281 L 741.460938 166.355469 Z M 723.851562 146.160156 " fill-opacity="1" fill-rule="nonzero"/></g></g></g><g clip-path="url(#d0bbbfd8ac)"><g clip-path="url(#1c7e52c90b)"><g clip-path="url(#01a1627f38)"><path fill="#d54b1a" d="M 699.769531 118.546875 L 820.226562 13.5 C 864.753906 -25.328125 932.613281 -20.691406 971.441406 23.839844 L 979.148438 32.671875 C 998.5625 54.9375 1032.492188 57.253906 1054.753906 37.839844 L 1063.539062 30.179688 C 1108.117188 -8.695312 1175.925781 -4.011719 1214.757812 40.515625 L 1222.417969 49.300781 C 1241.832031 71.566406 1275.761719 73.882812 1298.023438 54.46875 L 1411.113281 -44.148438 L 1428.722656 -23.953125 L 1315.636719 74.664062 C 1282.265625 103.765625 1231.367188 100.332031 1202.222656 66.910156 L 1194.5625 58.125 C 1165.417969 24.707031 1114.570312 21.230469 1081.148438 50.375 L 1072.363281 58.035156 C 1038.945312 87.179688 988.054688 83.652344 958.953125 50.28125 L 951.25 41.449219 C 922.148438 8.078125 871.257812 4.550781 837.835938 33.695312 L 717.378906 138.738281 Z M 699.769531 118.546875 " fill-opacity="1" fill-rule="nonzero"/></g></g></g><g clip-path="url(#cdfab75b9c)"><g clip-path="url(#78dae51ced)"><g clip-path="url(#cebc21f67d)"><path fill="#e3a72f" d="M 675.730469 90.980469 L 803.609375 -20.535156 C 859.242188 -69.050781 944.070312 -63.300781 992.628906 -7.613281 L 1000.289062 1.167969 C 1010.019531 12.328125 1026.9375 13.484375 1038.09375 3.753906 L 1046.878906 -3.90625 C 1102.5625 -52.464844 1187.382812 -46.621094 1235.898438 9.015625 L 1243.605469 17.847656 C 1253.289062 28.957031 1270.25 30.164062 1281.410156 20.433594 L 1387.074219 -71.710938 L 1404.683594 -51.519531 L 1299.019531 40.625 C 1276.753906 60.042969 1242.824219 57.722656 1223.410156 35.457031 L 1215.707031 26.625 C 1176.875 -17.90625 1109.015625 -22.542969 1064.488281 16.289062 L 1055.707031 23.949219 C 1033.390625 43.40625 999.511719 41.042969 980.097656 18.78125 L 972.4375 9.996094 C 933.605469 -34.53125 865.746094 -39.171875 821.21875 -0.339844 L 693.339844 111.175781 Z M 675.730469 90.980469 " fill-opacity="1" fill-rule="nonzero"/></g></g></g><g clip-path="url(#7358caf183)"><g clip-path="url(#a46d6a92b1)"><path fill="#ffffff" d="M 35.84375 30.289062 L 113.824219 30.289062 L 113.824219 55.648438 L 35.84375 55.648438 Z M 35.84375 30.289062 " fill-opacity="1" fill-rule="nonzero"/></g></g><g clip-path="url(#814e2abc82)"><g clip-path="url(#4c24c7a855)"><g clip-path="url(#f9160e209f)"><path fill="#ffffff" d="M -148.589844 110.027344 L 29.203125 -36.898438 L 136.621094 93.089844 L -41.171875 240.015625 Z M -148.589844 110.027344 " fill-opacity="1" fill-rule="nonzero"/></g></g></g><g clip-path="url(#8129321923)"><g clip-path="url(#7bfa6ddfc6)"><g clip-path="url(#0a57818f86)"><path fill="#ffffff" d="M 470.035156 27.867188 L 670.535156 -143.363281 L 780.046875 -15.132812 L 579.546875 156.097656 Z M 470.035156 27.867188 " fill-opacity="1" fill-rule="nonzero"/></g></g></g><g clip-path="url(#dff5e6c027)"><path fill="#ffffff" d="M 26.648438 -126.722656 L 574.746094 -126.722656 L 574.746094 78.027344 L 26.648438 78.027344 Z M 26.648438 -126.722656 " fill-opacity="1" fill-rule="nonzero"/></g><g clip-path="url(#f423e92b78)"><g clip-path="url(#14cda6f139)"><g clip-path="url(#8d0a4b1928)"><path fill="#ffffff" d="M 245.894531 -112.292969 L 408.460938 56.472656 L 313.597656 147.851562 L 151.03125 -20.914062 Z M 245.894531 -112.292969 " fill-opacity="1" fill-rule="nonzero"/></g></g></g><g clip-path="url(#ab7c90b773)"><g clip-path="url(#de342a4181)"><g clip-path="url(#182859a2da)"><path fill="#ffffff" d="M 446.28125 -76.839844 L 641.199219 53.21875 L 568.089844 162.785156 L 373.171875 32.722656 Z M 446.28125 -76.839844 " fill-opacity="1" fill-rule="nonzero"/></g></g></g><g clip-path="url(#f51abab999)"><g clip-path="url(#1c587693ff)"><g clip-path="url(#094d132525)"><path fill="#ffffff" d="M 288.265625 -25.609375 L 522.320312 -36.898438 L 528.664062 94.667969 L 294.609375 105.953125 Z M 288.265625 -25.609375 " fill-opacity="1" fill-rule="nonzero"/></g></g></g><g clip-path="url(#e0f471abdc)"><g clip-path="url(#91f6270643)"><g clip-path="url(#6eb2d7bf41)"><path fill="#ffffff" d="M 47.222656 -23.804688 L 278.238281 -64.097656 L 300.699219 64.65625 L 69.679688 104.949219 Z M 47.222656 -23.804688 " fill-opacity="1" fill-rule="nonzero"/></g></g></g><g clip-path="url(#d82382096b)"><g clip-path="url(#a105dc5083)"><g clip-path="url(#64e0288ca9)"><path fill="#ffffff" d="M 295.191406 8.050781 L 460.34375 0.0859375 L 465.320312 103.246094 L 300.167969 111.210938 Z M 295.191406 8.050781 " fill-opacity="1" fill-rule="nonzero"/></g></g></g></svg>
