<svg xmlns="http://www.w3.org/2000/svg" xmlns:xlink="http://www.w3.org/1999/xlink" width="100 vw" zoomAndPan="magnify" viewBox="0 0 1440 809.249975" height="auto" preserveAspectRatio="xMidYMid meet" version="1.0"><defs><clipPath id="a72835fb0d"><path d="M 0.667969 0 L 1439.332031 0 L 1439.332031 808.5 L 0.667969 808.5 Z M 0.667969 0 " clip-rule="nonzero"/></clipPath><clipPath id="bd1b2cd922"><path d="M 0.667969 314 L 155 314 L 155 535 L 0.667969 535 Z M 0.667969 314 " clip-rule="nonzero"/></clipPath><clipPath id="fe1d6c64c9"><path d="M -113.421875 534.714844 L -241.863281 313.832031 L 26.304688 157.890625 L 154.746094 378.773438 Z M -113.421875 534.714844 " clip-rule="nonzero"/></clipPath><clipPath id="c7b8b4425f"><path d="M 261.488281 1179.453125 L -261.695312 279.726562 L 948.304688 -423.882812 L 1471.492188 475.847656 Z M 261.488281 1179.453125 " clip-rule="nonzero"/></clipPath><clipPath id="9641a45b82"><path d="M 0.667969 227 L 155 227 L 155 535 L 0.667969 535 Z M 0.667969 227 " clip-rule="nonzero"/></clipPath><clipPath id="5cdf6eb7da"><path d="M -113.421875 534.714844 L -241.863281 313.832031 L 26.304688 157.890625 L 154.746094 378.773438 Z M -113.421875 534.714844 " clip-rule="nonzero"/></clipPath><clipPath id="d3744a8ed0"><path d="M 261.488281 1179.453125 L -261.695312 279.726562 L 948.304688 -423.882812 L 1471.492188 475.847656 Z M 261.488281 1179.453125 " clip-rule="nonzero"/></clipPath><clipPath id="2f0848831f"><path d="M 0.667969 157 L 155 157 L 155 528 L 0.667969 528 Z M 0.667969 157 " clip-rule="nonzero"/></clipPath><clipPath id="3f568a8f92"><path d="M -113.421875 534.714844 L -241.863281 313.832031 L 26.304688 157.890625 L 154.746094 378.773438 Z M -113.421875 534.714844 " clip-rule="nonzero"/></clipPath><clipPath id="50db8672ce"><path d="M 261.488281 1179.453125 L -261.695312 279.726562 L 948.304688 -423.882812 L 1471.492188 475.847656 Z M 261.488281 1179.453125 " clip-rule="nonzero"/></clipPath><clipPath id="7f2f532a35"><path d="M 0.667969 157 L 155 157 L 155 442 L 0.667969 442 Z M 0.667969 157 " clip-rule="nonzero"/></clipPath><clipPath id="f48db2c2f3"><path d="M -113.421875 534.714844 L -241.863281 313.832031 L 26.304688 157.890625 L 154.746094 378.773438 Z M -113.421875 534.714844 " clip-rule="nonzero"/></clipPath><clipPath id="dd1e7f85bf"><path d="M 261.488281 1179.453125 L -261.695312 279.726562 L 948.304688 -423.882812 L 1471.492188 475.847656 Z M 261.488281 1179.453125 " clip-rule="nonzero"/></clipPath><clipPath id="bac7a22a15"><path d="M 0.667969 386 L 1439.332031 386 L 1439.332031 774 L 0.667969 774 Z M 0.667969 386 " clip-rule="nonzero"/></clipPath><clipPath id="1cb6017dd5"><path d="M 296.753906 1251.1875 L -226.433594 351.457031 L 983.570312 -352.148438 L 1506.753906 547.578125 Z M 296.753906 1251.1875 " clip-rule="nonzero"/></clipPath><clipPath id="6640e764ac"><path d="M 296.753906 1251.1875 L -226.433594 351.457031 L 983.570312 -352.148438 L 1506.753906 547.578125 Z M 296.753906 1251.1875 " clip-rule="nonzero"/></clipPath><clipPath id="2d280c09b8"><path d="M 0.667969 299 L 1439.332031 299 L 1439.332031 687 L 0.667969 687 Z M 0.667969 299 " clip-rule="nonzero"/></clipPath><clipPath id="3830f6b075"><path d="M 296.753906 1251.1875 L -226.433594 351.457031 L 983.570312 -352.148438 L 1506.753906 547.578125 Z M 296.753906 1251.1875 " clip-rule="nonzero"/></clipPath><clipPath id="2314231ee9"><path d="M 296.753906 1251.1875 L -226.433594 351.457031 L 983.570312 -352.148438 L 1506.753906 547.578125 Z M 296.753906 1251.1875 " clip-rule="nonzero"/></clipPath><clipPath id="d9d89483cc"><path d="M 0.667969 212 L 1423 212 L 1423 600 L 0.667969 600 Z M 0.667969 212 " clip-rule="nonzero"/></clipPath><clipPath id="7113514aa7"><path d="M 296.753906 1251.1875 L -226.433594 351.457031 L 983.570312 -352.148438 L 1506.753906 547.578125 Z M 296.753906 1251.1875 " clip-rule="nonzero"/></clipPath><clipPath id="a27f0f0496"><path d="M 296.753906 1251.1875 L -226.433594 351.457031 L 983.570312 -352.148438 L 1506.753906 547.578125 Z M 296.753906 1251.1875 " clip-rule="nonzero"/></clipPath><clipPath id="36509241a9"><path d="M 0.667969 125 L 1384 125 L 1384 513 L 0.667969 513 Z M 0.667969 125 " clip-rule="nonzero"/></clipPath><clipPath id="ec015a4213"><path d="M 296.753906 1251.1875 L -226.433594 351.457031 L 983.570312 -352.148438 L 1506.753906 547.578125 Z M 296.753906 1251.1875 " clip-rule="nonzero"/></clipPath><clipPath id="df097ba7a1"><path d="M 296.753906 1251.1875 L -226.433594 351.457031 L 983.570312 -352.148438 L 1506.753906 547.578125 Z M 296.753906 1251.1875 " clip-rule="nonzero"/></clipPath><clipPath id="a7f7509218"><path d="M 0.667969 336 L 1439.332031 336 L 1439.332031 725 L 0.667969 725 Z M 0.667969 336 " clip-rule="nonzero"/></clipPath><clipPath id="7f8b028b12"><path d="M 296.21875 1201.742188 L -226.964844 302.011719 L 983.039062 -401.59375 L 1506.222656 498.136719 Z M 296.21875 1201.742188 " clip-rule="nonzero"/></clipPath><clipPath id="eb6a720988"><path d="M 296.21875 1201.742188 L -226.964844 302.011719 L 983.039062 -401.59375 L 1506.222656 498.136719 Z M 296.21875 1201.742188 " clip-rule="nonzero"/></clipPath><clipPath id="de0ba962be"><path d="M 0.667969 249 L 1439.332031 249 L 1439.332031 638 L 0.667969 638 Z M 0.667969 249 " clip-rule="nonzero"/></clipPath><clipPath id="5a643c15d7"><path d="M 296.21875 1201.742188 L -226.964844 302.011719 L 983.039062 -401.59375 L 1506.222656 498.136719 Z M 296.21875 1201.742188 " clip-rule="nonzero"/></clipPath><clipPath id="eddfdcdcbb"><path d="M 296.21875 1201.742188 L -226.964844 302.011719 L 983.039062 -401.59375 L 1506.222656 498.136719 Z M 296.21875 1201.742188 " clip-rule="nonzero"/></clipPath><clipPath id="0f3ab48a5d"><path d="M 0.667969 162 L 1423 162 L 1423 551 L 0.667969 551 Z M 0.667969 162 " clip-rule="nonzero"/></clipPath><clipPath id="ef8a524eb9"><path d="M 296.21875 1201.742188 L -226.964844 302.011719 L 983.039062 -401.59375 L 1506.222656 498.136719 Z M 296.21875 1201.742188 " clip-rule="nonzero"/></clipPath><clipPath id="e1b8ce25e6"><path d="M 296.21875 1201.742188 L -226.964844 302.011719 L 983.039062 -401.59375 L 1506.222656 498.136719 Z M 296.21875 1201.742188 " clip-rule="nonzero"/></clipPath><clipPath id="195d0fcbb6"><path d="M 0.667969 76 L 1383 76 L 1383 464 L 0.667969 464 Z M 0.667969 76 " clip-rule="nonzero"/></clipPath><clipPath id="72ca9c574a"><path d="M 296.21875 1201.742188 L -226.964844 302.011719 L 983.039062 -401.59375 L 1506.222656 498.136719 Z M 296.21875 1201.742188 " clip-rule="nonzero"/></clipPath><clipPath id="cdfbdc81d4"><path d="M 296.21875 1201.742188 L -226.964844 302.011719 L 983.039062 -401.59375 L 1506.222656 498.136719 Z M 296.21875 1201.742188 " clip-rule="nonzero"/></clipPath><clipPath id="b372e9c5f4"><path d="M 1416 315 L 1439.332031 315 L 1439.332031 536 L 1416 536 Z M 1416 315 " clip-rule="nonzero"/></clipPath><clipPath id="874741876b"><path d="M 1441.660156 535.464844 L 1293.257812 280.25 L 1567.257812 120.921875 L 1715.660156 376.136719 Z M 1441.660156 535.464844 " clip-rule="nonzero"/></clipPath><clipPath id="6f64a298d7"><path d="M 1816.574219 1180.203125 L 1293.386719 280.476562 L 2503.390625 -423.132812 L 3026.574219 476.597656 Z M 1816.574219 1180.203125 " clip-rule="nonzero"/></clipPath><clipPath id="c42d29d41b"><path d="M 1377 228 L 1439.332031 228 L 1439.332031 536 L 1377 536 Z M 1377 228 " clip-rule="nonzero"/></clipPath><clipPath id="ba7ec3c88f"><path d="M 1441.660156 535.464844 L 1293.257812 280.25 L 1567.257812 120.921875 L 1715.660156 376.136719 Z M 1441.660156 535.464844 " clip-rule="nonzero"/></clipPath><clipPath id="d12bf4f964"><path d="M 1816.574219 1180.203125 L 1293.386719 280.476562 L 2503.390625 -423.132812 L 3026.574219 476.597656 Z M 1816.574219 1180.203125 " clip-rule="nonzero"/></clipPath><clipPath id="903d92025e"><path d="M 1337 141 L 1439.332031 141 L 1439.332031 529 L 1337 529 Z M 1337 141 " clip-rule="nonzero"/></clipPath><clipPath id="b6f6bc2628"><path d="M 1441.660156 535.464844 L 1293.257812 280.25 L 1567.257812 120.921875 L 1715.660156 376.136719 Z M 1441.660156 535.464844 " clip-rule="nonzero"/></clipPath><clipPath id="5c0ea098a6"><path d="M 1816.574219 1180.203125 L 1293.386719 280.476562 L 2503.390625 -423.132812 L 3026.574219 476.597656 Z M 1816.574219 1180.203125 " clip-rule="nonzero"/></clipPath><clipPath id="58e96b009f"><path d="M 1297 120 L 1439.332031 120 L 1439.332031 442 L 1297 442 Z M 1297 120 " clip-rule="nonzero"/></clipPath><clipPath id="fa5b7a26b6"><path d="M 1441.660156 535.464844 L 1293.257812 280.25 L 1567.257812 120.921875 L 1715.660156 376.136719 Z M 1441.660156 535.464844 " clip-rule="nonzero"/></clipPath><clipPath id="e2ebd02bc7"><path d="M 1816.574219 1180.203125 L 1293.386719 280.476562 L 2503.390625 -423.132812 L 3026.574219 476.597656 Z M 1816.574219 1180.203125 " clip-rule="nonzero"/></clipPath><clipPath id="043e47cb5a"><path d="M 1407 234 L 1439.332031 234 L 1439.332031 542 L 1407 542 Z M 1407 234 " clip-rule="nonzero"/></clipPath><clipPath id="fcbc6948df"><path d="M 1472.355469 541.324219 L 1323.953125 286.109375 L 1597.953125 126.78125 L 1746.355469 381.996094 Z M 1472.355469 541.324219 " clip-rule="nonzero"/></clipPath><clipPath id="c8bb558467"><path d="M 1847.269531 1186.0625 L 1324.082031 286.335938 L 2534.085938 -417.269531 L 3057.269531 482.457031 Z M 1847.269531 1186.0625 " clip-rule="nonzero"/></clipPath><clipPath id="a4c6d832e0"><path d="M 1368 147 L 1439.332031 147 L 1439.332031 535 L 1368 535 Z M 1368 147 " clip-rule="nonzero"/></clipPath><clipPath id="4f1ec75533"><path d="M 1472.355469 541.324219 L 1323.953125 286.109375 L 1597.953125 126.78125 L 1746.355469 381.996094 Z M 1472.355469 541.324219 " clip-rule="nonzero"/></clipPath><clipPath id="ee08fd8667"><path d="M 1847.269531 1186.0625 L 1324.082031 286.335938 L 2534.085938 -417.269531 L 3057.269531 482.457031 Z M 1847.269531 1186.0625 " clip-rule="nonzero"/></clipPath><clipPath id="550a405c2e"><path d="M 1328 126 L 1439.332031 126 L 1439.332031 448 L 1328 448 Z M 1328 126 " clip-rule="nonzero"/></clipPath><clipPath id="16ef99a809"><path d="M 1472.355469 541.324219 L 1323.953125 286.109375 L 1597.953125 126.78125 L 1746.355469 381.996094 Z M 1472.355469 541.324219 " clip-rule="nonzero"/></clipPath><clipPath id="11f1829445"><path d="M 1847.269531 1186.0625 L 1324.082031 286.335938 L 2534.085938 -417.269531 L 3057.269531 482.457031 Z M 1847.269531 1186.0625 " clip-rule="nonzero"/></clipPath><clipPath id="3ae80bc857"><path d="M 1407 209 L 1439.332031 209 L 1439.332031 517 L 1407 517 Z M 1407 209 " clip-rule="nonzero"/></clipPath><clipPath id="b45e511337"><path d="M 1472.355469 516.730469 L 1323.953125 261.515625 L 1597.953125 102.1875 L 1746.355469 357.402344 Z M 1472.355469 516.730469 " clip-rule="nonzero"/></clipPath><clipPath id="f4c6383d91"><path d="M 1847.269531 1161.472656 L 1324.082031 261.742188 L 2534.085938 -441.863281 L 3057.269531 457.863281 Z M 1847.269531 1161.472656 " clip-rule="nonzero"/></clipPath><clipPath id="e72bc9e01a"><path d="M 1368 122 L 1439.332031 122 L 1439.332031 510 L 1368 510 Z M 1368 122 " clip-rule="nonzero"/></clipPath><clipPath id="564a58ee83"><path d="M 1472.355469 516.730469 L 1323.953125 261.515625 L 1597.953125 102.1875 L 1746.355469 357.402344 Z M 1472.355469 516.730469 " clip-rule="nonzero"/></clipPath><clipPath id="ff6075e644"><path d="M 1847.269531 1161.472656 L 1324.082031 261.742188 L 2534.085938 -441.863281 L 3057.269531 457.863281 Z M 1847.269531 1161.472656 " clip-rule="nonzero"/></clipPath><clipPath id="de4d8f9711"><path d="M 1328 102 L 1439.332031 102 L 1439.332031 424 L 1328 424 Z M 1328 102 " clip-rule="nonzero"/></clipPath><clipPath id="dc044f9e6c"><path d="M 1472.355469 516.730469 L 1323.953125 261.515625 L 1597.953125 102.1875 L 1746.355469 357.402344 Z M 1472.355469 516.730469 " clip-rule="nonzero"/></clipPath><clipPath id="ee42268a8b"><path d="M 1847.269531 1161.472656 L 1324.082031 261.742188 L 2534.085938 -441.863281 L 3057.269531 457.863281 Z M 1847.269531 1161.472656 " clip-rule="nonzero"/></clipPath></defs><g clip-path="url(#a72835fb0d)"><path fill="#ffffff" d="M 0.667969 0 L 1439.332031 0 L 1439.332031 808.5 L 0.667969 808.5 Z M 0.667969 0 " fill-opacity="1" fill-rule="nonzero"/><path fill="#ffffff" d="M 0.667969 0 L 1439.332031 0 L 1439.332031 808.5 L 0.667969 808.5 Z M 0.667969 0 " fill-opacity="1" fill-rule="nonzero"/></g><g clip-path="url(#bd1b2cd922)"><g clip-path="url(#fe1d6c64c9)"><g clip-path="url(#c7b8b4425f)"><path fill="#058789" d="M -138.128906 482.457031 L 123.828125 330.132812 C 179.019531 298.039062 250.078125 316.839844 282.171875 372.027344 L 294.90625 393.929688 C 359.089844 504.308594 501.203125 541.910156 611.59375 477.71875 L 633.371094 465.058594 C 688.691406 432.890625 759.621094 451.761719 791.714844 506.953125 L 804.375 528.730469 C 868.5625 639.109375 1010.675781 676.710938 1121.0625 612.519531 L 1438.089844 428.175781 L 1467.195312 478.234375 L 1150.171875 662.578125 C 1012.25 742.78125 834.582031 695.875 754.3125 557.839844 L 741.652344 536.0625 C 725.566406 508.40625 690.140625 499.03125 662.480469 515.117188 L 640.703125 527.78125 C 502.652344 608.054688 325.035156 560.953125 244.84375 423.039062 L 232.105469 401.140625 C 216.097656 373.605469 180.59375 364.109375 152.933594 380.191406 L -109.019531 532.515625 Z M -138.128906 482.457031 " fill-opacity="1" fill-rule="nonzero"/></g></g></g><g clip-path="url(#9641a45b82)"><g clip-path="url(#5cdf6eb7da)"><g clip-path="url(#d3744a8ed0)"><path fill="#cdaeff" d="M -177.863281 414.125 L 102.488281 251.101562 C 185.21875 202.996094 291.832031 231.101562 340.003906 313.945312 L 352.667969 335.722656 C 400.84375 418.570312 507.332031 446.746094 590.183594 398.566406 L 611.960938 385.902344 C 694.816406 337.722656 801.375 366.023438 849.476562 448.746094 L 862.214844 470.648438 C 910.316406 553.371094 1016.875 581.671875 1099.730469 533.492188 L 1398.355469 359.84375 L 1427.460938 409.902344 L 1128.835938 583.550781 C 1018.449219 647.742188 876.335938 610.136719 812.148438 499.757812 L 799.414062 477.859375 C 767.324219 422.667969 696.265625 403.867188 641.070312 435.960938 L 619.292969 448.625 C 508.78125 512.890625 366.789062 475.214844 302.605469 364.835938 L 289.941406 343.058594 C 257.851562 287.867188 186.792969 269.066406 131.597656 301.164062 L -148.753906 464.183594 Z M -177.863281 414.125 " fill-opacity="1" fill-rule="nonzero"/></g></g></g><g clip-path="url(#2f0848831f)"><g clip-path="url(#3f568a8f92)"><g clip-path="url(#50db8672ce)"><path fill="#d54b1a" d="M -217.667969 345.671875 L 80.957031 172.023438 C 191.34375 107.832031 333.457031 145.433594 397.644531 255.8125 L 410.378906 277.714844 C 442.472656 332.90625 513.527344 351.703125 568.722656 319.609375 L 590.5 306.945312 C 701.015625 242.683594 843.003906 280.359375 907.1875 390.738281 L 919.851562 412.515625 C 951.941406 467.703125 1023 486.503906 1078.195312 454.410156 L 1358.546875 291.386719 L 1387.65625 341.445312 L 1107.304688 504.46875 C 1024.574219 552.574219 917.964844 524.472656 869.789062 441.625 L 857.125 419.847656 C 808.949219 337.003906 702.464844 308.828125 619.609375 357.003906 L 597.832031 369.667969 C 514.976562 417.847656 408.417969 389.546875 360.316406 306.824219 L 347.582031 284.925781 C 299.476562 202.203125 192.917969 173.902344 110.066406 222.082031 L -188.558594 395.730469 Z M -217.667969 345.671875 " fill-opacity="1" fill-rule="nonzero"/></g></g></g><g clip-path="url(#7f2f532a35)"><g clip-path="url(#f48db2c2f3)"><g clip-path="url(#dd1e7f85bf)"><path fill="#e3a72f" d="M -257.402344 277.339844 L 59.621094 92.992188 C 197.542969 12.792969 375.214844 59.695312 455.480469 197.730469 L 468.144531 219.507812 C 484.226562 247.164062 519.65625 256.539062 547.316406 240.457031 L 569.09375 227.792969 C 707.140625 147.519531 884.757812 194.621094 964.953125 332.53125 L 977.6875 354.433594 C 993.695312 381.964844 1029.199219 391.464844 1056.859375 375.378906 L 1318.8125 223.054688 L 1347.921875 273.113281 L 1085.96875 425.441406 C 1030.773438 457.535156 959.714844 438.734375 927.625 383.542969 L 914.890625 361.644531 C 850.703125 251.261719 708.589844 213.660156 598.203125 277.851562 L 576.425781 290.515625 C 521.105469 322.683594 450.171875 303.808594 418.082031 248.617188 L 405.417969 226.84375 C 341.234375 116.464844 199.117188 78.863281 88.730469 143.050781 L -228.292969 327.398438 Z M -257.402344 277.339844 " fill-opacity="1" fill-rule="nonzero"/></g></g></g><g clip-path="url(#bac7a22a15)"><g clip-path="url(#1cb6017dd5)"><g clip-path="url(#6640e764ac)"><path fill="#058789" d="M -102.863281 554.1875 L 159.089844 401.863281 C 214.285156 369.769531 285.339844 388.570312 317.433594 443.761719 L 330.167969 465.660156 C 394.355469 576.042969 536.46875 613.644531 646.855469 549.453125 L 668.632812 536.789062 C 723.953125 504.621094 794.882812 523.496094 826.976562 578.683594 L 839.640625 600.460938 C 903.824219 710.839844 1045.941406 748.441406 1156.328125 684.253906 L 1473.351562 499.90625 L 1502.460938 549.964844 L 1185.4375 734.3125 C 1047.515625 814.511719 869.84375 767.609375 789.578125 629.574219 L 776.914062 607.796875 C 760.832031 580.136719 725.402344 570.765625 697.742188 586.847656 L 675.964844 599.511719 C 537.917969 679.785156 360.300781 632.683594 280.105469 494.773438 L 267.371094 472.871094 C 251.363281 445.339844 215.859375 435.839844 188.199219 451.921875 L -73.753906 604.25 Z M -102.863281 554.1875 " fill-opacity="1" fill-rule="nonzero"/></g></g></g><g clip-path="url(#2d280c09b8)"><g clip-path="url(#3830f6b075)"><g clip-path="url(#2314231ee9)"><path fill="#cdaeff" d="M -142.597656 485.859375 L 137.753906 322.835938 C 220.484375 274.730469 327.09375 302.832031 375.269531 385.679688 L 387.933594 407.457031 C 436.109375 490.300781 542.59375 518.476562 625.449219 470.300781 L 647.226562 457.636719 C 730.078125 409.457031 836.640625 437.753906 884.742188 520.480469 L 897.476562 542.378906 C 945.578125 625.101562 1052.136719 653.402344 1134.992188 605.222656 L 1433.617188 431.574219 L 1462.726562 481.632812 L 1164.101562 655.28125 C 1053.710938 719.472656 911.597656 681.871094 847.414062 571.492188 L 834.679688 549.589844 C 802.585938 494.398438 731.527344 475.601562 676.335938 507.695312 L 654.558594 520.359375 C 544.042969 584.621094 402.054688 546.945312 337.871094 436.566406 L 325.207031 414.789062 C 293.113281 359.601562 222.058594 340.800781 166.863281 372.894531 L -113.488281 535.917969 Z M -142.597656 485.859375 " fill-opacity="1" fill-rule="nonzero"/></g></g></g><g clip-path="url(#d9d89483cc)"><g clip-path="url(#7113514aa7)"><g clip-path="url(#a27f0f0496)"><path fill="#d54b1a" d="M -182.40625 417.402344 L 116.21875 243.753906 C 226.609375 179.5625 368.722656 217.167969 432.90625 327.546875 L 445.644531 349.445312 C 477.734375 404.636719 548.792969 423.4375 603.988281 391.34375 L 625.765625 378.679688 C 736.277344 314.414062 878.265625 352.089844 942.453125 462.46875 L 955.113281 484.246094 C 987.207031 539.4375 1058.265625 558.238281 1113.460938 526.140625 L 1393.8125 363.121094 L 1422.921875 413.179688 L 1142.566406 576.203125 C 1059.839844 624.308594 953.226562 596.203125 905.050781 513.359375 L 892.390625 491.582031 C 844.214844 408.734375 737.726562 380.558594 654.875 428.738281 L 633.09375 441.402344 C 550.242188 489.582031 443.683594 461.28125 395.578125 378.558594 L 382.84375 356.65625 C 334.742188 273.933594 228.183594 245.632812 145.328125 293.8125 L -153.296875 467.460938 Z M -182.40625 417.402344 " fill-opacity="1" fill-rule="nonzero"/></g></g></g><g clip-path="url(#36509241a9)"><g clip-path="url(#ec015a4213)"><g clip-path="url(#df097ba7a1)"><path fill="#e3a72f" d="M -222.140625 349.070312 L 94.886719 164.722656 C 232.808594 84.523438 410.476562 131.425781 490.746094 269.464844 L 503.40625 291.238281 C 519.492188 318.898438 554.917969 328.273438 582.578125 312.1875 L 604.355469 299.523438 C 742.40625 219.25 920.019531 266.351562 1000.214844 404.265625 L 1012.949219 426.164062 C 1028.960938 453.699219 1064.460938 463.195312 1092.121094 447.113281 L 1354.078125 294.789062 L 1383.1875 344.847656 L 1121.230469 497.171875 C 1066.039062 529.265625 994.980469 510.464844 962.886719 455.277344 L 950.152344 433.375 C 885.96875 322.996094 743.855469 285.394531 633.464844 349.582031 L 611.6875 362.246094 C 556.367188 394.414062 485.4375 375.542969 453.34375 320.351562 L 440.683594 298.574219 C 376.496094 188.195312 234.382812 150.59375 123.996094 214.785156 L -193.03125 399.128906 Z M -222.140625 349.070312 " fill-opacity="1" fill-rule="nonzero"/></g></g></g><g clip-path="url(#a7f7509218)"><g clip-path="url(#7f8b028b12)"><g clip-path="url(#eb6a720988)"><path fill="#058789" d="M -103.394531 504.746094 L 158.558594 352.421875 C 213.753906 320.324219 284.808594 339.125 316.902344 394.316406 L 329.636719 416.214844 C 393.824219 526.597656 535.9375 564.199219 646.324219 500.007812 L 668.101562 487.34375 C 723.421875 455.175781 794.351562 474.050781 826.445312 529.242188 L 839.109375 551.015625 C 903.292969 661.398438 1045.410156 699 1155.796875 634.808594 L 1472.820312 450.460938 L 1501.929688 500.519531 L 1184.90625 684.867188 C 1046.984375 765.070312 869.3125 718.164062 789.046875 580.128906 L 776.382812 558.351562 C 760.300781 530.695312 724.871094 521.320312 697.210938 537.402344 L 675.433594 550.066406 C 537.386719 630.339844 359.769531 583.238281 279.574219 445.328125 L 266.839844 423.425781 C 250.828125 395.894531 215.328125 386.394531 187.667969 402.480469 L -74.289062 554.804688 Z M -103.394531 504.746094 " fill-opacity="1" fill-rule="nonzero"/></g></g></g><g clip-path="url(#de0ba962be)"><g clip-path="url(#5a643c15d7)"><g clip-path="url(#eddfdcdcbb)"><path fill="#cdaeff" d="M -143.128906 436.414062 L 137.222656 273.390625 C 219.953125 225.285156 326.5625 253.386719 374.738281 336.234375 L 387.402344 358.011719 C 435.574219 440.859375 542.0625 469.03125 624.917969 420.855469 L 646.695312 408.191406 C 729.546875 360.011719 836.109375 388.3125 884.210938 471.035156 L 896.945312 492.933594 C 945.046875 575.65625 1051.605469 603.957031 1134.460938 555.777344 L 1433.085938 382.128906 L 1462.195312 432.1875 L 1163.570312 605.835938 C 1053.179688 670.027344 911.066406 632.425781 846.882812 522.046875 L 834.148438 500.144531 C 802.054688 444.953125 730.996094 426.15625 675.804688 458.25 L 654.027344 470.914062 C 543.511719 535.175781 401.523438 497.5 337.339844 387.121094 L 324.675781 365.347656 C 292.582031 310.15625 221.527344 291.355469 166.332031 323.449219 L -114.019531 486.472656 Z M -143.128906 436.414062 " fill-opacity="1" fill-rule="nonzero"/></g></g></g><g clip-path="url(#0f3ab48a5d)"><g clip-path="url(#ef8a524eb9)"><g clip-path="url(#e1b8ce25e6)"><path fill="#d54b1a" d="M -182.9375 367.957031 L 115.6875 194.308594 C 226.078125 130.121094 368.191406 167.722656 432.375 278.101562 L 445.109375 300.003906 C 477.203125 355.191406 548.261719 373.992188 603.453125 341.898438 L 625.234375 329.234375 C 735.746094 264.972656 877.734375 302.644531 941.921875 413.027344 L 954.582031 434.800781 C 986.675781 489.992188 1057.734375 508.792969 1112.925781 476.699219 L 1393.28125 313.675781 L 1422.390625 363.734375 L 1142.035156 526.757812 C 1059.308594 574.863281 952.695312 546.761719 904.519531 463.914062 L 891.859375 442.136719 C 843.683594 359.289062 737.195312 331.113281 654.34375 379.292969 L 632.5625 391.957031 C 549.710938 440.136719 443.152344 411.835938 395.046875 329.113281 L 382.3125 307.210938 C 334.210938 224.488281 227.652344 196.191406 144.796875 244.371094 L -153.828125 418.015625 Z M -182.9375 367.957031 " fill-opacity="1" fill-rule="nonzero"/></g></g></g><g clip-path="url(#195d0fcbb6)"><g clip-path="url(#72ca9c574a)"><g clip-path="url(#cdfbdc81d4)"><path fill="#e3a72f" d="M -222.671875 299.628906 L 94.351562 115.28125 C 232.277344 35.078125 409.945312 81.984375 490.214844 220.019531 L 502.875 241.796875 C 518.957031 269.453125 554.386719 278.828125 582.046875 262.742188 L 603.824219 250.082031 C 741.871094 169.804688 919.488281 216.90625 999.683594 354.820312 L 1012.417969 376.71875 C 1028.429688 404.253906 1063.929688 413.753906 1091.589844 397.667969 L 1353.546875 245.34375 L 1382.65625 295.402344 L 1120.699219 447.726562 C 1065.503906 479.824219 994.449219 461.023438 962.355469 405.832031 L 949.621094 383.929688 C 885.4375 273.550781 743.324219 235.949219 632.933594 300.140625 L 611.15625 312.800781 C 555.835938 344.972656 484.90625 326.097656 452.8125 270.90625 L 440.148438 249.128906 C 375.964844 138.75 233.851562 101.148438 123.460938 165.339844 L -193.5625 349.6875 Z M -222.671875 299.628906 " fill-opacity="1" fill-rule="nonzero"/></g></g></g><g clip-path="url(#b372e9c5f4)"><g clip-path="url(#874741876b)"><g clip-path="url(#6f64a298d7)"><path fill="#058789" d="M 1416.957031 483.207031 L 1678.910156 330.882812 C 1734.105469 298.789062 1805.160156 317.589844 1837.253906 372.777344 L 1849.988281 394.679688 C 1914.175781 505.058594 2056.289062 542.660156 2166.675781 478.46875 L 2188.453125 465.808594 C 2243.773438 433.640625 2314.703125 452.511719 2346.796875 507.703125 L 2359.460938 529.480469 C 2423.644531 639.859375 2565.761719 677.460938 2676.148438 613.269531 L 2993.171875 428.925781 L 3022.28125 478.984375 L 2705.257812 663.332031 C 2567.335938 743.53125 2389.664062 696.628906 2309.398438 558.589844 L 2296.734375 536.8125 C 2280.652344 509.15625 2245.222656 499.78125 2217.5625 515.867188 L 2195.785156 528.53125 C 2057.738281 608.804688 1880.121094 561.703125 1799.925781 423.789062 L 1787.191406 401.890625 C 1771.183594 374.355469 1735.679688 364.859375 1708.019531 380.941406 L 1446.066406 533.265625 Z M 1416.957031 483.207031 " fill-opacity="1" fill-rule="nonzero"/></g></g></g><g clip-path="url(#c42d29d41b)"><g clip-path="url(#ba7ec3c88f)"><g clip-path="url(#d12bf4f964)"><path fill="#cdaeff" d="M 1377.222656 414.875 L 1657.574219 251.851562 C 1740.304688 203.746094 1846.914062 231.851562 1895.089844 314.695312 L 1907.753906 336.472656 C 1955.929688 419.320312 2062.414062 447.496094 2145.269531 399.316406 L 2167.046875 386.652344 C 2249.902344 338.472656 2356.460938 366.773438 2404.5625 449.496094 L 2417.296875 471.398438 C 2465.398438 554.121094 2571.957031 582.421875 2654.8125 534.242188 L 2953.4375 360.59375 L 2982.546875 410.652344 L 2683.921875 584.300781 C 2573.53125 648.492188 2431.417969 610.886719 2367.234375 500.507812 L 2354.5 478.609375 C 2322.40625 423.417969 2251.347656 404.617188 2196.15625 436.710938 L 2174.378906 449.375 C 2063.863281 513.640625 1921.875 475.964844 1857.691406 365.585938 L 1845.027344 343.808594 C 1812.933594 288.617188 1741.878906 269.816406 1686.683594 301.914062 L 1406.332031 464.933594 Z M 1377.222656 414.875 " fill-opacity="1" fill-rule="nonzero"/></g></g></g><g clip-path="url(#903d92025e)"><g clip-path="url(#b6f6bc2628)"><g clip-path="url(#5c0ea098a6)"><path fill="#d54b1a" d="M 1337.414062 346.421875 L 1636.039062 172.773438 C 1746.429688 108.582031 1888.542969 146.183594 1952.726562 256.5625 L 1965.464844 278.464844 C 1997.554688 333.65625 2068.613281 352.453125 2123.808594 320.359375 L 2145.585938 307.695312 C 2256.097656 243.433594 2398.089844 281.109375 2462.273438 391.488281 L 2474.9375 413.265625 C 2507.027344 468.453125 2578.085938 487.253906 2633.28125 455.160156 L 2913.632812 292.136719 L 2942.742188 342.195312 L 2662.386719 505.21875 C 2579.660156 553.324219 2473.046875 525.222656 2424.871094 442.375 L 2412.210938 420.597656 C 2364.035156 337.753906 2257.546875 309.578125 2174.695312 357.753906 L 2152.914062 370.417969 C 2070.0625 418.597656 1963.503906 390.300781 1915.398438 307.574219 L 1902.664062 285.675781 C 1854.5625 202.953125 1748.003906 174.652344 1665.148438 222.832031 L 1366.523438 396.480469 Z M 1337.414062 346.421875 " fill-opacity="1" fill-rule="nonzero"/></g></g></g><g clip-path="url(#58e96b009f)"><g clip-path="url(#fa5b7a26b6)"><g clip-path="url(#e2ebd02bc7)"><path fill="#e3a72f" d="M 1297.679688 278.089844 L 1614.707031 93.742188 C 1752.628906 13.542969 1930.296875 60.445312 2010.566406 198.480469 L 2023.226562 220.257812 C 2039.3125 247.917969 2074.738281 257.289062 2102.398438 241.207031 L 2124.175781 228.542969 C 2262.226562 148.269531 2439.839844 195.371094 2520.035156 333.28125 L 2532.769531 355.183594 C 2548.78125 382.714844 2584.28125 392.214844 2611.941406 376.128906 L 2873.898438 223.804688 L 2903.007812 273.863281 L 2641.050781 426.191406 C 2585.859375 458.285156 2514.800781 439.484375 2482.707031 384.292969 L 2469.972656 362.394531 C 2405.789062 252.011719 2263.675781 214.410156 2153.285156 278.601562 L 2131.507812 291.265625 C 2076.1875 323.433594 2005.257812 304.558594 1973.164062 249.371094 L 1960.503906 227.59375 C 1896.316406 117.214844 1754.203125 79.613281 1643.816406 143.800781 L 1326.789062 328.148438 Z M 1297.679688 278.089844 " fill-opacity="1" fill-rule="nonzero"/></g></g></g><g clip-path="url(#043e47cb5a)"><g clip-path="url(#fcbc6948df)"><g clip-path="url(#c8bb558467)"><path fill="#cdaeff" d="M 1407.917969 420.734375 L 1688.269531 257.714844 C 1771 209.605469 1877.609375 237.710938 1925.785156 320.558594 L 1938.449219 342.332031 C 1986.625 425.179688 2093.109375 453.355469 2175.964844 405.175781 L 2197.742188 392.511719 C 2280.597656 344.335938 2387.15625 372.632812 2435.257812 455.355469 L 2447.992188 477.257812 C 2496.09375 559.980469 2602.652344 588.28125 2685.507812 540.101562 L 2984.132812 366.453125 L 3013.242188 416.511719 L 2714.617188 590.160156 C 2604.226562 654.351562 2462.113281 616.75 2397.929688 506.367188 L 2385.195312 484.46875 C 2353.101562 429.277344 2282.042969 410.476562 2226.851562 442.574219 L 2205.074219 455.234375 C 2094.558594 519.5 1952.570312 481.824219 1888.386719 371.445312 L 1875.722656 349.667969 C 1843.628906 294.480469 1772.574219 275.675781 1717.378906 307.773438 L 1437.027344 470.796875 Z M 1407.917969 420.734375 " fill-opacity="1" fill-rule="nonzero"/></g></g></g><g clip-path="url(#a4c6d832e0)"><g clip-path="url(#4f1ec75533)"><g clip-path="url(#ee08fd8667)"><path fill="#d54b1a" d="M 1368.109375 352.28125 L 1666.734375 178.632812 C 1777.125 114.441406 1919.238281 152.042969 1983.421875 262.425781 L 1996.160156 284.324219 C 2028.25 339.515625 2099.308594 358.316406 2154.503906 326.21875 L 2176.28125 313.558594 C 2286.792969 249.292969 2428.785156 286.96875 2492.96875 397.347656 L 2505.632812 419.125 C 2537.722656 474.3125 2608.78125 493.117188 2663.976562 461.019531 L 2944.328125 297.996094 L 2973.4375 348.058594 L 2693.082031 511.078125 C 2610.355469 559.1875 2503.742188 531.082031 2455.566406 448.234375 L 2442.90625 426.460938 C 2394.730469 343.613281 2288.242188 315.4375 2205.390625 363.617188 L 2183.609375 376.28125 C 2100.757812 424.457031 1994.199219 396.160156 1946.09375 313.4375 L 1933.359375 291.535156 C 1885.257812 208.8125 1778.699219 180.511719 1695.84375 228.691406 L 1397.21875 402.339844 Z M 1368.109375 352.28125 " fill-opacity="1" fill-rule="nonzero"/></g></g></g><g clip-path="url(#550a405c2e)"><g clip-path="url(#16ef99a809)"><g clip-path="url(#11f1829445)"><path fill="#e3a72f" d="M 1328.375 283.949219 L 1645.402344 99.601562 C 1783.324219 19.402344 1960.992188 66.304688 2041.261719 204.34375 L 2053.921875 226.117188 C 2070.007812 253.777344 2105.433594 263.148438 2133.09375 247.066406 L 2154.871094 234.402344 C 2292.921875 154.128906 2470.535156 201.230469 2550.730469 339.140625 L 2563.464844 361.042969 C 2579.476562 388.574219 2614.976562 398.074219 2642.636719 381.992188 L 2904.59375 229.667969 L 2933.703125 279.726562 L 2671.746094 432.050781 C 2616.554688 464.144531 2545.496094 445.34375 2513.402344 390.152344 L 2500.667969 368.253906 C 2436.484375 257.871094 2294.371094 220.273438 2183.980469 284.460938 L 2162.203125 297.125 C 2106.882812 329.292969 2035.953125 310.417969 2003.859375 255.230469 L 1991.199219 233.453125 C 1927.011719 123.074219 1784.898438 85.472656 1674.511719 149.660156 L 1357.484375 334.007812 Z M 1328.375 283.949219 " fill-opacity="1" fill-rule="nonzero"/></g></g></g><g clip-path="url(#3ae80bc857)"><g clip-path="url(#b45e511337)"><g clip-path="url(#f4c6383d91)"><path fill="#cdaeff" d="M 1407.917969 396.144531 L 1688.269531 233.121094 C 1771 185.015625 1877.609375 213.117188 1925.785156 295.964844 L 1938.449219 317.742188 C 1986.625 400.585938 2093.109375 428.761719 2175.964844 380.585938 L 2197.742188 367.921875 C 2280.597656 319.742188 2387.15625 348.042969 2435.257812 430.765625 L 2447.992188 452.664062 C 2496.09375 535.386719 2602.652344 563.6875 2685.507812 515.507812 L 2984.132812 341.859375 L 3013.242188 391.917969 L 2714.617188 565.566406 C 2604.226562 629.757812 2462.113281 592.15625 2397.929688 481.777344 L 2385.195312 459.875 C 2353.101562 404.683594 2282.042969 385.886719 2226.851562 417.980469 L 2205.074219 430.644531 C 2094.558594 494.90625 1952.570312 457.230469 1888.386719 346.851562 L 1875.722656 325.074219 C 1843.628906 269.886719 1772.574219 251.085938 1717.378906 283.179688 L 1437.027344 446.203125 Z M 1407.917969 396.144531 " fill-opacity="1" fill-rule="nonzero"/></g></g></g><g clip-path="url(#e72bc9e01a)"><g clip-path="url(#564a58ee83)"><g clip-path="url(#ff6075e644)"><path fill="#d54b1a" d="M 1368.109375 327.6875 L 1666.734375 154.039062 C 1777.125 89.847656 1919.238281 127.453125 1983.421875 237.832031 L 1996.160156 259.730469 C 2028.25 314.921875 2099.308594 333.722656 2154.503906 301.628906 L 2176.28125 288.964844 C 2286.792969 224.703125 2428.785156 262.375 2492.96875 372.753906 L 2505.632812 394.53125 C 2537.722656 449.722656 2608.78125 468.523438 2663.976562 436.425781 L 2944.328125 273.40625 L 2973.4375 323.464844 L 2693.082031 486.488281 C 2610.355469 534.59375 2503.742188 506.488281 2455.566406 423.644531 L 2442.90625 401.867188 C 2394.730469 319.019531 2288.242188 290.84375 2205.390625 339.023438 L 2183.609375 351.6875 C 2100.757812 399.867188 1994.199219 371.566406 1946.09375 288.84375 L 1933.359375 266.941406 C 1885.257812 184.21875 1778.699219 155.917969 1695.84375 204.097656 L 1397.21875 377.746094 Z M 1368.109375 327.6875 " fill-opacity="1" fill-rule="nonzero"/></g></g></g><g clip-path="url(#de4d8f9711)"><g clip-path="url(#dc044f9e6c)"><g clip-path="url(#ee42268a8b)"><path fill="#e3a72f" d="M 1328.375 259.355469 L 1645.402344 75.007812 C 1783.324219 -5.191406 1960.992188 41.710938 2041.261719 179.75 L 2053.921875 201.527344 C 2070.007812 229.183594 2105.433594 238.558594 2133.09375 222.472656 L 2154.871094 209.808594 C 2292.921875 129.535156 2470.535156 176.636719 2550.730469 314.550781 L 2563.464844 336.449219 C 2579.476562 363.984375 2614.976562 373.480469 2642.636719 357.398438 L 2904.59375 205.074219 L 2933.703125 255.132812 L 2671.746094 407.457031 C 2616.554688 439.550781 2545.496094 420.75 2513.402344 365.5625 L 2500.667969 343.660156 C 2436.484375 233.28125 2294.371094 195.679688 2183.980469 259.871094 L 2162.203125 272.53125 C 2106.882812 304.699219 2035.953125 285.828125 2003.859375 230.636719 L 1991.199219 208.859375 C 1927.011719 98.480469 1784.898438 60.878906 1674.511719 125.070312 L 1357.484375 309.414062 Z M 1328.375 259.355469 " fill-opacity="1" fill-rule="nonzero" preserveAspectRatio="none"/></g></g></g></svg>
